<svg id="Ebene_1" data-name="Ebene 1" xmlns="http://www.w3.org/2000/svg" viewBox="0 0 1117 1060"><defs><style>.cls-1{fill:#fff;}</style></defs><title>200208_Icons</title><path class="cls-1" d="M661.5,497.24A40.51,40.51,0,0,1,702,537.75V664.31a5.09,5.09,0,0,1-5.08,5.08H626.07a5.09,5.09,0,0,1-5.08-5.08V537.75a40.51,40.51,0,0,1,40.51-40.51"/><path class="cls-1" d="M455.58,484a47,47,0,1,0-47-47,47,47,0,0,0,47,47"/><path class="cls-1" d="M661.5,484a47,47,0,1,0-47-47,47,47,0,0,0,47,47"/><path class="cls-1" d="M455.05,497.24a40.51,40.51,0,0,1,40.51,40.51V664.31a5.09,5.09,0,0,1-5.08,5.08H419.62a5.08,5.08,0,0,1-5.08-5.08V537.75a40.51,40.51,0,0,1,40.51-40.51"/><path class="cls-1" d="M559,451.92a40.51,40.51,0,0,1,40.51,40.51V619a5.07,5.07,0,0,1-5.08,5.08H523.52a5.08,5.08,0,0,1-5.08-5.08V492.43A40.51,40.51,0,0,1,559,451.92"/><path class="cls-1" d="M559,438.65a47,47,0,1,0-47-47,47,47,0,0,0,47,47"/></svg>