<svg id="Ebene_1" data-name="Ebene 1" xmlns="http://www.w3.org/2000/svg" viewBox="0 0 1280 1024"><defs><style>.cls-1{fill:#00f2a0;}.cls-2{fill:#7d47ff;}</style></defs><title>200208_Icons</title><polygon points="762.14 632.37 687.32 531.03 543.73 637.05 583.86 691.4 682.19 691.4 762.14 632.37"/><rect x="466.86" y="709.48" width="338.18" height="164.98"/><polygon points="1170.5 238.47 1096.89 167 1001.62 259.5 906.35 167 832.75 238.47 928.02 330.97 832.75 423.48 906.36 494.94 1001.63 402.44 1096.89 494.94 1170.5 423.48 1075.23 330.97 1170.5 238.47"/><path class="cls-1" d="M1001.61,683.5a45.61,45.61,0,0,1,45.61,45.6V871.58a5.73,5.73,0,0,1-5.72,5.72H961.72a5.73,5.73,0,0,1-5.72-5.72V729.1a45.61,45.61,0,0,1,45.61-45.6"/><rect class="cls-1" x="1071.18" y="569.66" width="91.21" height="182.86" rx="5.6"/><path class="cls-1" d="M1117.09,884.59a53.1,53.1,0,1,0-53.1-53.1,53.11,53.11,0,0,0,53.1,53.1"/><path class="cls-1" d="M885.54,683.5a45.61,45.61,0,0,1,45.6,45.6V871.58a5.72,5.72,0,0,1-5.72,5.72H845.65a5.72,5.72,0,0,1-5.72-5.72V729.1a45.61,45.61,0,0,1,45.61-45.6"/><path class="cls-1" d="M885.54,669.09a53.1,53.1,0,1,0-53.1-53.1,53.1,53.1,0,0,0,53.1,53.1"/><path class="cls-1" d="M1001.61,669.09a53.1,53.1,0,1,0-53.1-53.1,53.1,53.1,0,0,0,53.1,53.1"/><path class="cls-2" d="M212.85,701.91c33.67,0,61-26.9,61-60.09s-27.29-60.09-61-60.09-61,26.9-61,60.09,27.29,60.09,61,60.09"/><path class="cls-2" d="M384.47,670.7c29.34,0,53.13-23.45,53.13-52.37S413.81,566,384.47,566s-53.13,23.45-53.13,52.37,23.79,52.37,53.13,52.37"/><path class="cls-2" d="M384.47,684.3a45.37,45.37,0,0,1,45.38,45.37V871.4a5.73,5.73,0,0,1-5.72,5.72H344.82a5.73,5.73,0,0,1-5.72-5.72V729.67a45.37,45.37,0,0,1,45.37-45.37"/><path class="cls-2" d="M269.58,734a45.76,45.76,0,0,1,45.76,45.76V871.4a5.73,5.73,0,0,1-5.72,5.72H116.08a5.73,5.73,0,0,1-5.72-5.72V779.73A45.76,45.76,0,0,1,156.12,734Z"/>
</svg>