<svg width="385" height="391" viewBox="0 0 385 391" fill="none" xmlns="http://www.w3.org/2000/svg">
<path fill-rule="evenodd" clip-rule="evenodd" d="M128 326.68L192.822 391L257 327.32L192.176 263L128 326.68Z" fill="#7D47FF"/>
<path fill-rule="evenodd" clip-rule="evenodd" d="M293.279 142L268 167.061L358.721 257L384 231.939L293.279 142Z" fill="#00F2A0"/>
<path fill-rule="evenodd" clip-rule="evenodd" d="M358.721 142L268 231.939L293.279 257L384 167.061L358.721 142Z" fill="#00F2A0"/>
<path fill-rule="evenodd" clip-rule="evenodd" d="M326 314.045C334.951 314.045 342.209 321.143 342.209 329.898V379.739C342.209 380.662 341.445 381.409 340.501 381.409H311.499C310.555 381.409 309.791 380.662 309.791 379.739V329.898C309.791 321.143 317.049 314.045 326 314.045" fill="#242424"/>
<path fill-rule="evenodd" clip-rule="evenodd" d="M351.694 273.886C350.753 273.886 349.989 274.633 349.989 275.554V335.698C349.989 336.617 350.753 337.364 351.694 337.364H380.701C381.643 337.364 382.407 336.617 382.407 335.698V275.554C382.407 274.633 381.643 273.886 380.701 273.886H351.694Z" fill="#242424"/>
<path fill-rule="evenodd" clip-rule="evenodd" d="M366.198 384C376.583 384 385 375.591 385 365.216C385 354.843 376.583 346.432 366.198 346.432C355.813 346.432 347.396 354.843 347.396 365.216C347.396 375.591 355.813 384 366.198 384" fill="#242424"/>
<path fill-rule="evenodd" clip-rule="evenodd" d="M285.802 314.045C294.754 314.045 302.011 321.143 302.011 329.898V379.739C302.011 380.662 301.247 381.409 300.303 381.409H271.301C270.357 381.409 269.593 380.662 269.593 379.739V329.898C269.593 321.143 276.851 314.045 285.802 314.045" fill="#242424"/>
<mask id="mask0" mask-type="alpha" maskUnits="userSpaceOnUse" x="267" y="271" width="37" height="38">
<path fill-rule="evenodd" clip-rule="evenodd" d="M267 271.048H303.921V308.331H267V271.048Z" fill="white"/>
</mask>
<g mask="url(#mask0)">
<path fill-rule="evenodd" clip-rule="evenodd" d="M285.46 308.331C295.657 308.331 303.921 299.985 303.921 289.689C303.921 279.395 295.657 271.048 285.46 271.048C275.264 271.048 267 279.395 267 289.689C267 299.985 275.264 308.331 285.46 308.331" fill="#242424"/>
</g>
<path fill-rule="evenodd" clip-rule="evenodd" d="M326 308.864C336.385 308.864 344.802 300.455 344.802 290.08C344.802 279.707 336.385 271.295 326 271.295C315.615 271.295 307.198 279.707 307.198 290.08C307.198 300.455 315.615 308.864 326 308.864" fill="#242424"/>
</svg>
