<svg width="385" height="391" viewBox="0 0 385 391" fill="none" xmlns="http://www.w3.org/2000/svg">
<path fill-rule="evenodd" clip-rule="evenodd" d="M128 326.68L192.822 391L257 327.32L192.176 263L128 326.68Z" fill="#7D47FF"/>
<path fill-rule="evenodd" clip-rule="evenodd" d="M253 63.6796L317.822 128L382 64.3204L317.176 0L253 63.6796Z" fill="#7D47FF"/>
<path fill-rule="evenodd" clip-rule="evenodd" d="M293.279 142L268 167.061L358.721 257L384 231.939L293.279 142Z" fill="#00F2A0"/>
<path fill-rule="evenodd" clip-rule="evenodd" d="M358.721 142L268 231.939L293.279 257L384 167.061L358.721 142Z" fill="#00F2A0"/>
<path fill-rule="evenodd" clip-rule="evenodd" d="M326 314.045C334.951 314.045 342.209 321.143 342.209 329.898V379.739C342.209 380.662 341.445 381.409 340.501 381.409H311.499C310.555 381.409 309.791 380.662 309.791 379.739V329.898C309.791 321.143 317.049 314.045 326 314.045" fill="#242424"/>
<path fill-rule="evenodd" clip-rule="evenodd" d="M351.694 273.886C350.753 273.886 349.989 274.633 349.989 275.554V335.698C349.989 336.617 350.753 337.364 351.694 337.364H380.701C381.643 337.364 382.407 336.617 382.407 335.698V275.554C382.407 274.633 381.643 273.886 380.701 273.886H351.694Z" fill="#242424"/>
<path fill-rule="evenodd" clip-rule="evenodd" d="M366.198 384C376.583 384 385 375.591 385 365.216C385 354.843 376.583 346.432 366.198 346.432C355.813 346.432 347.396 354.843 347.396 365.216C347.396 375.591 355.813 384 366.198 384" fill="#242424"/>
<path fill-rule="evenodd" clip-rule="evenodd" d="M285.802 314.045C294.754 314.045 302.011 321.143 302.011 329.898V379.739C302.011 380.662 301.247 381.409 300.303 381.409H271.301C270.357 381.409 269.593 380.662 269.593 379.739V329.898C269.593 321.143 276.851 314.045 285.802 314.045" fill="#242424"/>
<mask id="mask0" mask-type="alpha" maskUnits="userSpaceOnUse" x="267" y="271" width="37" height="38">
<path fill-rule="evenodd" clip-rule="evenodd" d="M267 271.048H303.921V308.331H267V271.048Z" fill="white"/>
</mask>
<g mask="url(#mask0)">
<path fill-rule="evenodd" clip-rule="evenodd" d="M285.46 308.331C295.657 308.331 303.921 299.985 303.921 289.689C303.921 279.395 295.657 271.048 285.46 271.048C275.264 271.048 267 279.395 267 289.689C267 299.985 275.264 308.331 285.46 308.331" fill="#242424"/>
</g>
<path fill-rule="evenodd" clip-rule="evenodd" d="M326 308.864C336.385 308.864 344.802 300.455 344.802 290.08C344.802 279.707 336.385 271.295 326 271.295C315.615 271.295 307.198 279.707 307.198 290.08C307.198 300.455 315.615 308.864 326 308.864" fill="#242424"/>
<path fill-rule="evenodd" clip-rule="evenodd" d="M59 310.998C67.9515 310.998 75.2088 318.096 75.2088 326.85V376.691C75.2088 377.614 74.4449 378.362 73.5012 378.362H44.4988C43.5551 378.362 42.7912 377.614 42.7912 376.691V326.85C42.7912 318.096 50.0485 310.998 59 310.998" fill="#242424"/>
<path fill-rule="evenodd" clip-rule="evenodd" d="M84.6945 270.839C83.753 270.839 82.989 271.585 82.989 272.507V332.65C82.989 333.57 83.753 334.316 84.6945 334.316H113.701C114.643 334.316 115.407 333.57 115.407 332.65V272.507C115.407 271.585 114.643 270.839 113.701 270.839H84.6945Z" fill="#242424"/>
<path fill-rule="evenodd" clip-rule="evenodd" d="M99.1978 380.952C109.583 380.952 118 372.543 118 362.168C118 351.796 109.583 343.384 99.1978 343.384C88.8128 343.384 80.3956 351.796 80.3956 362.168C80.3956 372.543 88.8128 380.952 99.1978 380.952" fill="#242424"/>
<path fill-rule="evenodd" clip-rule="evenodd" d="M18.8022 310.998C27.7537 310.998 35.011 318.096 35.011 326.85V376.691C35.011 377.614 34.2471 378.362 33.3034 378.362H4.30102C3.35734 378.362 2.59341 377.614 2.59341 376.691V326.85C2.59341 318.096 9.85075 310.998 18.8022 310.998" fill="#242424"/>
<mask id="mask1" mask-type="alpha" maskUnits="userSpaceOnUse" x="0" y="268" width="37" height="38">
<path fill-rule="evenodd" clip-rule="evenodd" d="M0 268H36.9208V305.283H0V268Z" fill="white"/>
</mask>
<g mask="url(#mask1)">
<path fill-rule="evenodd" clip-rule="evenodd" d="M18.4603 305.283C28.6566 305.283 36.9208 296.938 36.9208 286.641C36.9208 276.347 28.6566 268 18.4603 268C8.26405 268 -0.000213623 276.347 -0.000213623 286.641C-0.000213623 296.938 8.26405 305.283 18.4603 305.283" fill="#242424"/>
</g>
<path fill-rule="evenodd" clip-rule="evenodd" d="M59 305.816C69.385 305.816 77.8022 297.407 77.8022 287.032C77.8022 276.659 69.385 268.248 59 268.248C48.615 268.248 40.1978 276.659 40.1978 287.032C40.1978 297.407 48.615 305.816 59 305.816" fill="#242424"/>
</svg>
