<svg id="Ebene_1" data-name="Ebene 1" xmlns="http://www.w3.org/2000/svg" viewBox="0 0 1117 1060">
  <defs>
    <style>
      .cls-1{fill:#fff}
    </style>
  </defs>
  <path class="cls-1" d="M661.5 497.24a40.51 40.51 0 0140.5 40.51v126.56a5.09 5.09 0 01-5.08 5.08h-70.85a5.09 5.09 0 01-5.08-5.08V537.75a40.51 40.51 0 0140.51-40.51M455.58 484a47 47 0 10-47-47 47 47 0 0047 47M661.5 484a47 47 0 10-47-47 47 47 0 0047 47M455.05 497.24a40.51 40.51 0 0140.51 40.51v126.56a5.09 5.09 0 01-5.08 5.08h-70.86a5.08 5.08 0 01-5.08-5.08V537.75a40.51 40.51 0 0140.51-40.51M559 451.92a40.51 40.51 0 0140.51 40.51V619a5.07 5.07 0 01-5.08 5.08h-70.91a5.08 5.08 0 01-5.08-5.08V492.43A40.51 40.51 0 01559 451.92M559 438.65a47 47 0 10-47-47 47 47 0 0047 47"/>
</svg>
