<svg id="Ebene_1" data-name="Ebene 1" xmlns="http://www.w3.org/2000/svg" viewBox="0 0 1080 1080">
  <defs>
  </defs>
  <path class="cls-1" d="M540.38 420a134.16 134.16 0 01134.16 134.16v419a20.19 20.19 0 01-20.18 20.18h-228a20.18 20.18 0 01-20.18-20.18v-419A134.15 134.15 0 01540.38 420"/>
  <rect class="cls-1" x="748.26" y="85.12" width="268.32" height="537.93" rx="19.77"/>
  <path class="cls-1" d="M883.3 1014.78a156.21 156.21 0 10-156.21-156.21 156.21 156.21 0 00156.21 156.21M195.7 420a134.16 134.16 0 01134.17 134.16v419a20.19 20.19 0 01-20.19 20.18H81.73a20.19 20.19 0 01-20.19-20.18v-419A134.16 134.16 0 01195.7 420M195.7 377.63a156.21 156.21 0 10-156.2-156.2 156.2 156.2 0 00156.2 156.2M540.38 377.63a156.21 156.21 0 10-156.21-156.2 156.2 156.2 0 00156.21 156.2"/>
</svg>
