<svg width="32" height="32" xmlns="http://www.w3.org/2000/svg">
  <path d="M24.8525353 7.10357246c.5522131-.01309006 1.0874172.19154682 1.4900305.56971754.3822899.38982204.6150336.90185813.6574342 1.44620607V24.326572c.0046382.5553869-.2358977 1.0845657-.6574342 1.446206-.3999903.3823375-.9369914.5876615-1.4900305.5697176H7.14746712c-.56643549.0199599-1.11779151-.1848295-1.53385492-.5697176-.39598164-.3762905-.61814833-.8999691-.6136122-1.446206V9.11949607c.00549744-.54419264.22607329-1.06412143.6136122-1.44620607.41606341-.38488802.96741943-.5896774 1.53385492-.56971754h1.70915262v3.63742734H12.274925V7.10357246h7.406328v3.63742734h3.4183053V7.10357246h1.752977zM11.8805052 18.0158546v-4.2509693H6.84069613v4.2509693h5.03980907zm0 5.7848243v-4.2509694H6.84069613v4.2509694h5.03980907zm-.2629466-13.5417477H9.51398614V5h2.10357246v5.2589312zm6.8804349 7.7569234v-4.2509693h-4.9959846v4.2509693h4.9959846zm0 5.7848243v-4.2509694h-4.9959846v4.2509694h4.9959846zm6.6174884-5.7848243v-4.2509693h-4.9959846v4.2509693h4.9959846zm0 5.7848243v-4.2509694h-4.9959846v4.2509694h4.9959846zm-2.6294656-13.5417477h-2.1473969V5h2.1473969v5.2589312z" fill-rule="evenodd"/>
</svg>
