<svg width="32" height="32" xmlns="http://www.w3.org/2000/svg">
  <path d="M15.9786871 4.00081034c1.6113661-.0191217 3.2087881.30036269 4.6888485.93776971 1.4122151.60990597 2.6986629 1.47717414 3.7937047 2.55755375 1.0992552 1.10471685 1.9812682 2.4060475 2.6001796 3.8363306.6124993 1.4727954.9310676 3.0511563.9377698 4.6462227.0191217 1.6113661-.3003627 3.2087881-.9377698 4.6888485-.6096769 1.4227805-1.4931613 2.7117986-2.6001796 3.7937047-1.0819061 1.1070183-2.3709242 1.9905027-3.7937047 2.6001796-1.4800604.6374071-3.0774824.9568915-4.6888485.9377698-1.5971511.0144213-3.179699-.304992-4.6462227-.9377698-1.4302831-.6189114-2.73161375-1.5009244-3.8363306-2.6001796-1.08037961-1.0950418-1.94764778-2.3814896-2.55755375-3.7937047-.63740702-1.4800604-.95689141-3.0774824-.93776971-4.6888485-.01442136-1.5971511.30499198-3.179699.93776971-4.6462227.61953809-1.41963455 1.48540572-2.718436 2.55755375-3.8363306 1.1178946-1.07214803 2.41669605-1.93801566 3.8363306-2.55755375 1.4665237-.63277773 3.0490716-.95219107 4.6462227-.93776971zm0 21.56870326c1.3386681.0240768 2.6696436-.2073972 3.9215824-.6820143 2.2982452-.874063 4.1131668-2.6889846 4.9872298-4.9872298.4746171-1.2519388.7060911-2.5829143.6820143-3.9215824.0207353-1.3245388-.2107179-2.6409289-.6820143-3.8789566-.4229999-1.1407739-1.092514-2.17415421-1.9607912-3.02643856-.8668335-.85028792-1.896137-1.51716065-3.0264386-1.96079121-1.249094-.48916805-2.5801612-.73512613-3.9215824-.72464022-1.3252308.01471164-2.6377942.2599158-3.8789566.72464022-1.1324821.4393745-2.16259833 1.10677375-3.02643856 1.96079121-.85028792.86683344-1.51716065 1.89613696-1.96079121 3.02643856-.48484945 1.2354754-.73074945 2.5517636-.72475132 3.8789566.01073921 1.3394863.25599452 2.6667503.72475132 3.9215824.45996569 1.1218342 1.12490727 2.148157 1.96079121 3.0264386.86683344.8502879 1.89613696 1.5171606 3.02643856 1.9607912 1.2380277.4712964 2.5544178.7027496 3.8789566.6820143zm8.0136684-10.0597114l-8.0136684.4688849V8.00764455c1.0238057.00440161 2.0370683.20705412 2.9838127.59676254.9486428.3706453 1.8169874.92059684 2.5575537 1.61978401.7345362.6659451 1.3412552 1.4604581 1.7902876 2.3444243.4415066.9180857.674411 1.9224859.6820144 2.9411868z" fill-rule="evenodd"/>
</svg>
