<svg id="Ebene_1" data-name="Ebene 1" xmlns="http://www.w3.org/2000/svg" viewBox="0 0 1280 1024">
  <defs>
    <style>
      .cls-1{fill:#00f2a0}.cls-2{fill:#7d47ff}
    </style>
  </defs>
  <path d="M762.14 632.37l-74.82-101.34-143.59 106.02 40.13 54.35h98.33l79.95-59.03zM466.86 709.48h338.18v164.98H466.86zM1170.5 238.47L1096.89 167l-95.27 92.5-95.27-92.5-73.6 71.47 95.27 92.5-95.27 92.51 73.61 71.46 95.27-92.5 95.26 92.5 73.61-71.46-95.27-92.51 95.27-92.5z"/>
  <path class="cls-1" d="M1001.61 683.5a45.61 45.61 0 0145.61 45.6v142.48a5.73 5.73 0 01-5.72 5.72h-79.78a5.73 5.73 0 01-5.72-5.72V729.1a45.61 45.61 0 0145.61-45.6"/>
  <rect class="cls-1" x="1071.18" y="569.66" width="91.21" height="182.86" rx="5.6"/>
  <path class="cls-1" d="M1117.09 884.59a53.1 53.1 0 10-53.1-53.1 53.11 53.11 0 0053.1 53.1M885.54 683.5a45.61 45.61 0 0145.6 45.6v142.48a5.72 5.72 0 01-5.72 5.72h-79.77a5.72 5.72 0 01-5.72-5.72V729.1a45.61 45.61 0 0145.61-45.6M885.54 669.09a53.1 53.1 0 10-53.1-53.1 53.1 53.1 0 0053.1 53.1M1001.61 669.09a53.1 53.1 0 10-53.1-53.1 53.1 53.1 0 0053.1 53.1"/>
  <path class="cls-2" d="M212.85 701.91c33.67 0 61-26.9 61-60.09s-27.29-60.09-61-60.09-61 26.9-61 60.09 27.29 60.09 61 60.09M384.47 670.7c29.34 0 53.13-23.45 53.13-52.37S413.81 566 384.47 566s-53.13 23.45-53.13 52.37 23.79 52.37 53.13 52.37M384.47 684.3a45.37 45.37 0 0145.38 45.37V871.4a5.73 5.73 0 01-5.72 5.72h-79.31a5.73 5.73 0 01-5.72-5.72V729.67a45.37 45.37 0 0145.37-45.37M269.58 734a45.76 45.76 0 0145.76 45.76v91.64a5.73 5.73 0 01-5.72 5.72H116.08a5.73 5.73 0 01-5.72-5.72v-91.67A45.76 45.76 0 01156.12 734z"/>
</svg>
