<svg data-name="Ebene 1" xmlns="http://www.w3.org/2000/svg" viewBox="0 0 1000 1000">
  <path d="M826.91 837.88H178.5a13 13 0 01-13-13V178.71a13 13 0 0112.88-13l199.32-2.12a13 13 0 0012.89-13V27.32a13 13 0 00-13-13H29.38a13 13 0 00-13 13V974a13 13 0 0013 13H976a13 13 0 0013-13V594.74a13 13 0 00-13-13H853a13 13 0 00-13 13v230.1a13 13 0 01-13.09 13.04zM525 36.54l140.61 140.64a13 13 0 010 18.44L430.86 430.36a13 13 0 000 18.44l127.69 123.68a13 13 0 0018.43 0l234.74-234.74a13 13 0 0118.44 0l136.65 140.65a13 13 0 0022.25-9.22V27.32a13 13 0 00-13-13H534.18A13 13 0 00525 36.54z"/>
</svg>
