<svg viewBox="0 0 1000 1000" fill="none" xmlns="http://www.w3.org/2000/svg"><path d="M373.58 401.2l-36.17 24.86-84.89-123.52a3.61 3.61 0 00-5-.93l-1.5 1a4.09 4.09 0 00-.9.43L177 349.87l-59.61-86.73a3.61 3.61 0 00-5-.93l-67.54 46.43a3.61 3.61 0 00-.93 5l108.37 157.7a3.62 3.62 0 005 .93l67.55-46.43c.537-.37.959-.882 1.22-1.48l1.33-.91 36.51 53.12-33.46 23c-1.64 1.13-1.38 2.34.58 2.71l118.66 22a3.597 3.597 0 004.2-2.89l22-118.66c.38-1.98-.66-2.66-2.3-1.53z" fill="#744DFA"/><path d="M763.716 432.324c1 1.5 3.76 2.2 3.76 2.2l72.8 19.47a5.083 5.083 0 004.1-.21c1.34-.84 2.32-5.89 2.88-7.27 6.34-15.65 19.54-8.53 67.43-22.41 29.91-8.65 51.21-18.3 60.59-53.41 13.36-50-21-105.71-103.39-127.74-75.48-20.18-127.75-.41-164.76 41.8-2 2.25-3.4 4.43-3.08 7.12.32 2.69 4.25 5.18 4.25 5.18l50.39 38.76s4 2.87 6.5 2.36c2.5-.51 3.06-1.53 4.76-3.37 23-24.89 47.25-32.23 80.75-23.27 29.31 7.84 43.19 23.58 39.62 36.92-4.8 18-20 15.38-46.51 22.09-41.87 10.64-67.41 8.78-78.45 50.09l-1.85 6.9s-.83 3.25.21 4.74v.05zm12.22 115.38a47.475 47.475 0 0049.936-16.984 47.475 47.475 0 003.42-52.635 47.464 47.464 0 00-20.126-18.827 47.465 47.465 0 00-52.29 6.914 47.458 47.458 0 00-15.741 41.895 47.469 47.469 0 0034.801 39.637" fill="#FF523D"/><path d="M598.66 833.15a50.996 50.996 0 0136.062 14.938 50.996 50.996 0 0114.938 36.062v74.45a4.46 4.46 0 01-4.45 4.46h-182.8a4.461 4.461 0 01-4.45-4.46v-74.47a50.996 50.996 0 0114.938-36.062 50.996 50.996 0 0136.062-14.938l89.7.02zm-201.25-50.1a42.356 42.356 0 0129.952 12.401A42.334 42.334 0 01439.77 825.4v133.18a4.461 4.461 0 01-4.46 4.45h-75.79a4.457 4.457 0 01-4.46-4.45V825.4a42.35 42.35 0 0142.35-42.35zm0-13.38a49.316 49.316 0 0027.404-8.308 49.313 49.313 0 0020.979-50.631 49.316 49.316 0 00-13.499-25.255 49.316 49.316 0 00-75.886 7.48 49.316 49.316 0 006.138 62.269 49.322 49.322 0 0034.864 14.445zM553 820.31a56.712 56.712 0 0055.62-67.774A56.71 56.71 0 00496.29 763.6 56.718 56.718 0 00553 820.31zm-374.25-33.19a41.344 41.344 0 0141.33 41.33v129.92a4.349 4.349 0 01-4.35 4.35h-73.95a4.349 4.349 0 01-4.35-4.35V828.45a41.327 41.327 0 0141.32-41.33zm-105.16 0a41.329 41.329 0 0141.32 41.33v129.92a4.349 4.349 0 01-4.35 4.35H36.61a4.349 4.349 0 01-4.35-4.35V828.45a41.34 41.34 0 0141.33-41.33zm0-13.05a48.114 48.114 0 0044.452-29.708 48.117 48.117 0 00-10.447-52.435 48.105 48.105 0 00-52.444-10.403A48.107 48.107 0 0025.48 726a48.109 48.109 0 0048.11 48.11v-.04zm105.16 0a48.107 48.107 0 0044.459-29.701 48.108 48.108 0 00-35.084-65.599 48.116 48.116 0 00-49.386 20.49A48.109 48.109 0 00130.65 726a48.101 48.101 0 0048.1 48.11v-.04zm104.95 80a41.319 41.319 0 0141.3 41.32v62.66a4.344 4.344 0 01-2.684 4.022 4.344 4.344 0 01-1.666.328h-73.92a4.346 4.346 0 01-4.019-2.685 4.365 4.365 0 01-.331-1.665v-62.66a41.32 41.32 0 0141.32-41.32zm0-13.07a48.115 48.115 0 0044.465-29.701 48.124 48.124 0 00-10.429-52.445 48.124 48.124 0 00-52.445-10.429A48.12 48.12 0 00283.7 841zm541.05-53.88a41.344 41.344 0 0141.33 41.33v129.92a4.346 4.346 0 01-2.685 4.019 4.346 4.346 0 01-1.665.331h-74a4.349 4.349 0 01-4.35-4.35V828.45a41.327 41.327 0 0141.32-41.33h.05zm-105.16 0a41.327 41.327 0 0141.32 41.33v129.92a4.349 4.349 0 01-4.35 4.35h-73.95a4.349 4.349 0 01-4.35-4.35V828.45a41.344 41.344 0 0141.33-41.33zm0-13.05a48.114 48.114 0 0044.452-29.708 48.117 48.117 0 00-10.447-52.435 48.106 48.106 0 00-52.444-10.403A48.105 48.105 0 00671.48 726a48.11 48.11 0 0048.11 48.11v-.04zm105.16 0a48.107 48.107 0 0044.459-29.701 48.108 48.108 0 00-35.084-65.599 48.116 48.116 0 00-49.386 20.49A48.109 48.109 0 00776.65 726a48.101 48.101 0 0048.1 48.11v-.04zm104.95 80a41.319 41.319 0 0141.3 41.32v62.66a4.344 4.344 0 01-2.684 4.022 4.344 4.344 0 01-1.666.328h-73.92a4.346 4.346 0 01-4.019-2.685 4.365 4.365 0 01-.331-1.665v-62.66a41.32 41.32 0 0141.32-41.32zm0-13.07a48.115 48.115 0 0044.465-29.701 48.124 48.124 0 00-10.429-52.445 48.124 48.124 0 00-52.445-10.429 48.115 48.115 0 00-29.701 44.465A48.12 48.12 0 00929.7 841" fill="#242424"/><path d="M651.233 4.676l-40.314 40.326C583.108 17.3 544.78 0 502.479 0c-76.421 0-139.872 55.99-151.674 129.163h77.59c10.4-31.093 39.613-53.536 74.084-53.536 21.501 0 40.899 8.65 55.038 22.794l-40.782 40.794c-1.986 1.987-.584 5.494 2.338 5.494H653.57a3.267 3.267 0 003.272-3.273V7.013c0-2.922-3.506-4.325-5.609-2.337zM502.479 232.026c-21.618 0-41.249-8.884-55.388-23.144l39.847-39.86c1.986-1.987.584-5.493-2.337-5.493h-59.595v-.351h-75.954c0 .351.117.701.117 1.052-.702.584-1.169 1.52-1.169 2.455v133.487c0 2.922 3.506 4.325 5.492 2.338l40.197-40.21c27.811 27.937 66.256 45.353 108.79 45.353 75.253 0 138.12-54.47 151.208-126.007h-78.175c-11.218 29.34-39.73 50.38-73.033 50.38z" fill="#00F2A0"/></svg>