<svg width="1000" height="1000" viewBox="0 0 1000 1000" fill="none" xmlns="http://www.w3.org/2000/svg">
  <path d="M947.2 28l-34.5 34.5C888.9 38.8 856.1 24 819.9 24c-65.4 0-119.7 47.9-129.8 110.5h66.4c8.9-26.6 33.9-45.8 63.4-45.8 18.4 0 35 7.4 47.1 19.5l-34.9 34.9c-1.7 1.7-.5 4.7 2 4.7h115.1c1.5 0 2.8-1.2 2.8-2.8V30c0-2.5-3-3.7-4.8-2zM819.9 222.5c-18.5 0-35.3-7.6-47.4-19.8l34.1-34.1c1.7-1.7.5-4.7-2-4.7h-51v-.3h-65c0 .3.1.6.1.9-.6.5-1 1.3-1 2.1v114.2c0 2.5 3 3.7 4.7 2l34.4-34.4c23.8 23.9 56.7 38.8 93.1 38.8 64.4 0 118.2-46.6 129.4-107.8h-66.9c-9.6 25.1-34 43.1-62.5 43.1zM538.6 432.9l63.5-57-70-77.9-110.3 99.2 32.2 35.7h84.6zM638.4 448.6h-281v137.1h281V448.6z" fill="#7D47FF"/>
  <path d="M825.6 421.8c-21.3 0-38.5 17.3-38.5 38.5v121.1c0 2.2 1.8 4.1 4.1 4.1h68.9c2.2 0 4.1-1.8 4.1-4.1V460.3c0-21.3-17.3-38.5-38.6-38.5zM888.5 480.101h68.9c2.2 0 4.1-1.801 4.1-4.101V329.601c0-2.2-1.8-4.101-4.1-4.101h-68.9c-2.2 0-4.1 1.801-4.1 4.101V476c0 2.2 1.8 4.101 4.1 4.101zM923.2 501.9c-24.8 0-44.9 20.1-44.9 44.9 0 24.8 20.1 44.9 44.9 44.9 24.8 0 44.9-20.1 44.9-44.9 0-24.8-20.1-44.9-44.9-44.9zM727.6 421.8c-21.3 0-38.5 17.3-38.5 38.5v121.1c0 2.2 1.8 4.1 4.1 4.1h68.9c2.2 0 4.1-1.8 4.1-4.1V460.3c-.1-21.3-17.3-38.5-38.6-38.5zM727.6 319.9c-24.8 0-44.9 20.1-44.9 44.9 0 24.8 20.1 44.9 44.9 44.9 24.8 0 44.9-20.1 44.9-44.9-.1-24.9-20.1-44.9-44.9-44.9zM825.6 319.9c-24.8 0-44.9 20.1-44.9 44.9 0 24.8 20.1 44.9 44.9 44.9 24.8 0 44.9-20.1 44.9-44.9 0-24.9-20.1-44.9-44.9-44.9zM163.2 465.101H79.5c-26.3 0-47.5 21.3-47.5 47.5v69.4c0 2.3 1.9 4.2 4.2 4.2h170.4c2.3 0 4.2-1.9 4.2-4.2v-69.4c-.1-26.2-21.3-47.5-47.6-47.5zM267.2 418.4c-21.8 0-39.5 17.7-39.5 39.5v124.2c0 2.3 1.9 4.2 4.2 4.2h70.7c2.3 0 4.2-1.9 4.2-4.2V457.9c-.1-21.9-17.8-39.5-39.6-39.5zM267.2 405.9c25.405 0 46-20.595 46-46s-20.595-46-46-46-46 20.595-46 46 20.595 46 46 46zM122.2 453.1c29.216 0 52.9-23.684 52.9-52.9 0-29.216-23.684-52.9-52.9-52.9-29.2158 0-52.9 23.684-52.9 52.9 0 29.216 23.6842 52.9 52.9 52.9z" fill="#242424"/>
</svg>
