<svg id="Ebene_1" data-name="Ebene 1" xmlns="http://www.w3.org/2000/svg" viewBox="0 0 1000 1000"><defs><style>.cls-3{fill:#1d1d1b}.cls-4{font-size:101.85px;font-family:Alpha-Regular,Alpha;letter-spacing:.01em}</style></defs><path d="M373.58 401.2l-36.17 24.86-84.89-123.52a3.61 3.61 0 00-5-.93l-1.5 1a4.12 4.12 0 00-.9.43L177 349.87l-59.61-86.73a3.61 3.61 0 00-5-.93l-67.54 46.43a3.61 3.61 0 00-.93 5l108.37 157.7a3.62 3.62 0 005 .93l67.55-46.43a3.49 3.49 0 001.22-1.48l1.33-.91 36.51 53.12-33.46 23c-1.64 1.13-1.38 2.34.58 2.71l118.66 22a3.6 3.6 0 004.2-2.89l22-118.66c.38-1.98-.66-2.66-2.3-1.53z" fill="#744dfa"/><path d="M747.78 303c1 1.5 3.76 2.2 3.76 2.2l72.8 19.47a5.09 5.09 0 004.1-.21c1.34-.84 2.32-5.89 2.88-7.27 6.34-15.65 19.54-8.53 67.43-22.41 29.91-8.65 51.21-18.3 60.59-53.41 13.36-50-21-105.71-103.39-127.74-75.48-20.18-127.75-.41-164.76 41.8-2 2.25-3.4 4.43-3.08 7.12s4.25 5.18 4.25 5.18l50.39 38.76s4 2.87 6.5 2.36 3.06-1.53 4.76-3.37c23-24.89 47.25-32.23 80.75-23.27 29.31 7.84 43.19 23.58 39.62 36.92-4.8 18-20 15.38-46.51 22.09-41.87 10.64-67.41 8.78-78.45 50.09l-1.85 6.9s-.83 3.25.21 4.74M760 418.38a47.47 47.47 0 10-33.6-58.12 47.47 47.47 0 0033.6 58.12" fill="#ff523d"/><path class="cls-3" d="M598.66 833.15a51 51 0 0151 51v74.45a4.46 4.46 0 01-4.45 4.46h-182.8a4.46 4.46 0 01-4.45-4.46v-74.47a51 51 0 0151-51zM397.41 783.05a42.35 42.35 0 0142.36 42.35v133.18a4.46 4.46 0 01-4.46 4.45h-75.79a4.46 4.46 0 01-4.46-4.45V825.4a42.35 42.35 0 0142.35-42.35M397.41 769.67a49.32 49.32 0 10-49.31-49.31 49.32 49.32 0 0049.31 49.31M553 820.31a56.71 56.71 0 10-56.71-56.71A56.72 56.72 0 00553 820.31M178.75 787.12a41.34 41.34 0 0141.33 41.33v129.92a4.35 4.35 0 01-4.35 4.35h-73.95a4.35 4.35 0 01-4.35-4.35V828.45a41.33 41.33 0 0141.32-41.33M73.59 787.12a41.33 41.33 0 0141.32 41.33v129.92a4.35 4.35 0 01-4.35 4.35H36.61a4.35 4.35 0 01-4.35-4.35V828.45a41.34 41.34 0 0141.33-41.33M73.59 774.07A48.11 48.11 0 1025.48 726a48.11 48.11 0 0048.11 48.11M178.75 774.07a48.11 48.11 0 10-48.1-48.07 48.1 48.1 0 0048.1 48.11M283.7 854.07a41.32 41.32 0 0141.3 41.32v62.66a4.34 4.34 0 01-4.35 4.35h-73.92a4.35 4.35 0 01-4.35-4.35v-62.66a41.32 41.32 0 0141.32-41.32M283.7 841a48.12 48.12 0 10-48.11-48.11A48.12 48.12 0 00283.7 841M824.75 787.12a41.34 41.34 0 0141.33 41.33v129.92a4.35 4.35 0 01-4.35 4.35h-74a4.35 4.35 0 01-4.35-4.35V828.45a41.33 41.33 0 0141.32-41.33M719.59 787.12a41.33 41.33 0 0141.32 41.33v129.92a4.35 4.35 0 01-4.35 4.35h-73.95a4.35 4.35 0 01-4.35-4.35V828.45a41.34 41.34 0 0141.33-41.33M719.59 774.07A48.11 48.11 0 10671.48 726a48.11 48.11 0 0048.11 48.11M824.75 774.07a48.11 48.11 0 10-48.1-48.07 48.1 48.1 0 0048.1 48.11M929.7 854.07a41.32 41.32 0 0141.3 41.32v62.66a4.34 4.34 0 01-4.35 4.35h-73.92a4.35 4.35 0 01-4.35-4.35v-62.66a41.32 41.32 0 0141.32-41.32M929.7 841a48.12 48.12 0 10-48.11-48.11A48.12 48.12 0 00929.7 841"/><text class="cls-4" transform="matrix(.98 -.22 .22 .98 94.52 139.59)">DIE</text><text class="cls-4" transform="rotate(9.02 -1555.25 1457.927)">HERAUS-</text><text class="cls-4" transform="rotate(-11.5 3354.213 -1194.629)">FORDERUNG</text></svg>