<svg width="1000" height="1000" viewBox="0 0 1000 1000" fill="none" xmlns="http://www.w3.org/2000/svg">
<path d="M330.9 834.1C330.9 833.6 330.9 833.2 330.9 832.7C330.9 832.2 330.9 831.8 330.9 831.3V700.2H200.5C199.8 700.2 199.1 700.2 198.3 700.2C197.6 700.2 196.9 700.2 196.1 700.2H195.5C123.6 701.7 65.7 760.4 65.7 832.7C65.7 861.4 74.8 887.9 90.3 909.6L46.9 953L80.4 986.5L124.3 942.6C145.4 956.9 170.9 965.2 198.4 965.2C270 965.2 328.3 908.5 330.9 837.5H331V834.1H330.9Z" fill="#242424"/>
<path d="M630.4 698.5L595.4 733.5C571.2 709.4 537.9 694.5 501.2 694.5C434.9 694.5 379.7 743.1 369.4 806.6H436.8C445.8 779.6 471.2 760.2 501.2 760.2C519.8 760.2 536.7 767.8 549 780L513.6 815.4C511.8 817.2 513.1 820.2 515.6 820.2H632.4C634 820.2 635.2 818.9 635.2 817.4V700.5C635.2 698 632.1 696.7 630.4 698.5Z" fill="#242424"/>
<path d="M501.1 895.9C482.3 895.9 465.3 888.2 453 875.8L487.6 841.2C489.4 839.4 488.1 836.4 485.6 836.4H433.8C433.8 836.3 433.8 836.2 433.8 836.1H367.9C367.9 836.4 368 836.7 368 837C367.4 837.5 367 838.3 367 839.2V955.1C367 957.6 370 958.9 371.8 957.1L406.7 922.2C430.9 946.5 464.3 961.5 501.2 961.5C566.6 961.5 621.1 914.2 632.5 852.1H564.6C554.8 877.7 530.1 895.9 501.1 895.9Z" fill="#242424"/>
<path d="M825.3 788.6C802.5 788.6 784 807.1 784 829.9V959.8C784 962.2 785.9 964.1 788.4 964.1H862.3C864.7 964.1 866.7 962.2 866.7 959.8V829.9C866.6 807.1 848.1 788.6 825.3 788.6Z" fill="#242424"/>
<path d="M892.6 851.1H966.5C968.9 851.1 970.9 849.1 970.9 846.8V689.8C970.9 687.4 969 685.5 966.5 685.5H892.6C890.2 685.5 888.2 687.4 888.2 689.8V846.8C888.3 849.2 890.2 851.1 892.6 851.1Z" fill="#242424"/>
<path d="M929.9 874.6C903.3 874.6 881.8 896.1 881.8 922.7C881.8 949.3 903.3 970.8 929.9 970.8C956.5 970.8 978 949.3 978 922.7C978 896.1 956.5 874.6 929.9 874.6Z" fill="#242424"/>
<path d="M720.1 788.6C697.3 788.6 678.8 807.1 678.8 829.9V959.8C678.8 962.2 680.7 964.1 683.1 964.1H757C759.4 964.1 761.3 962.2 761.3 959.8V829.9C761.4 807.1 742.9 788.6 720.1 788.6Z" fill="#242424"/>
<path d="M720.1 679.3C693.5 679.3 672 700.8 672 727.4C672 754 693.5 775.5 720.1 775.5C746.7 775.5 768.2 754 768.2 727.4C768.2 700.9 746.7 679.3 720.1 679.3Z" fill="#242424"/>
<path d="M825.3 679.3C798.7 679.3 777.2 700.8 777.2 727.4C777.2 754 798.7 775.5 825.3 775.5C851.9 775.5 873.4 754 873.4 727.4C873.4 700.9 851.8 679.3 825.3 679.3Z" fill="#242424"/>
</svg>
