<svg version="1.1" id="Ebene_1" xmlns="http://www.w3.org/2000/svg" x="0" y="0" viewBox="0 0 1000 1000" xml:space="preserve">
  <style>
    .st0{fill:#242424}.st1{fill:#7d47ff}.st2{fill:#ff4633}.st3{fill:#ffe552}
  </style>
  <path class="st0" d="M518.89 683.25c-76.98 0-139.38 62.4-139.38 139.38S441.92 962 518.89 962s139.38-62.4 139.38-139.38-62.4-139.37-139.38-139.37zm0 197.07c-31.86 0-57.69-25.83-57.69-57.69s25.83-57.69 57.69-57.69 57.69 25.83 57.69 57.69-25.83 57.69-57.69 57.69zM820.29 361.66c-76.98 0-139.38 62.4-139.38 139.38s62.4 139.38 139.38 139.38 139.38-62.4 139.38-139.38-62.41-139.38-139.38-139.38zm0 197.07c-31.86 0-57.69-25.83-57.69-57.69s25.83-57.69 57.69-57.69 57.69 25.83 57.69 57.69-25.83 57.69-57.69 57.69zM38.79 33.47H55.6l19.51 78.21c1.43 5.39 2.54 10.47 3.81 16.18h.63c1.59-5.71 2.86-10.79 4.44-16.18l22.37-78.21h15.7l23 78.21c1.59 5.39 3.01 10.47 4.6 16.18h.63c1.27-5.71 2.54-10.79 3.97-16.34l19.51-78.05h15.86l-30.62 115.8H142.2l-23.48-78.84c-1.59-5.39-2.54-9.83-4.12-16.18h-.63c-1.43 6.35-2.38 10.79-4.12 16.18l-23.16 78.84H69.24L38.79 33.47zM274.03 117.23H224.7l-10.95 32.04h-16.66l41.88-115.8h21.26l41.72 115.8h-16.97l-10.95-32.04zm-4.6-13.48l-19.99-58.69-20.15 58.69h40.14zM417.59 33.47v115.8h-15.86V98.35h-65.51v50.92h-15.86V33.47h15.86v50.76h65.51V33.47h15.86zM446.62 33.47h15.86v101.68h64.25v14.12h-80.11V33.47zM144.75 290.96v.32H124.6l-42.67-57.11-16.5 16.81v40.29H49.57v-115.8h15.86v56l56.31-56h19.51v.32l-48.22 47.75 51.72 67.42zM258.33 290.8v.48h-18.08c-2.54-10.15-3.01-20.15-4.76-32.36-1.43-10.15-9.52-16.02-22.53-16.02h-33.95v48.38h-15.86v-115.8h52.82c24.59 0 38.71 11.74 38.71 32.68 0 15.07-8.57 25.38-23.48 28.08 10.95 1.27 17.77 7.61 19.67 18.24 2.38 14.9 2.86 25.53 7.46 36.32zm-20.15-81.86c0-12.06-7.93-19.67-22.21-19.67h-36.96v40.13h35.53c14.92.01 23.64-7.29 23.64-20.46zM280.69 175.47h82.17v14.12h-66.31v35.69h59.65v13.48h-59.65v38.39h67.74v14.12h-83.6v-115.8zM389.19 175.47h15.86v115.8h-15.86v-115.8zM428.53 264.47l13.8-9.52c6.35 15.86 19.51 24.75 36.96 24.75 16.18 0 26.65-7.77 26.65-19.99 0-10.15-6.66-15.7-24.27-19.67l-17.77-4.12c-19.67-4.44-30.14-14.91-30.14-30.3 0-19.51 16.97-32.52 42.35-32.52 18.72 0 35.22 7.77 45.21 22.53l-13.48 8.88c-7.46-11.42-19.51-17.45-33.79-17.45-14.91 0-24.43 6.5-24.43 17.29 0 9.04 6.5 14.12 22.37 17.77l17.77 4.12c21.1 4.76 32.2 16.02 32.2 32.52 0 20.94-17.61 34.9-43.78 34.9-23-.01-41.4-10.95-49.65-29.19zM547.19 175.47h82.17v14.12h-66.31v35.69h59.65v13.48h-59.65v38.39h67.74v14.12h-83.6v-115.8z"/>
  <path class="st3" d="M505.4 467.41c21.04 0 38.1 17.06 38.1 38.1v119.02c0 2.64-2.14 4.78-4.78 4.78h-66.64c-2.64 0-4.78-2.14-4.78-4.78V505.51c0-21.04 17.06-38.1 38.1-38.1M568.2 372.32c-2.58 0-4.68 2.1-4.68 4.68v143.39c0 2.59 2.1 4.68 4.68 4.68h66.83c2.58 0 4.68-2.09 4.68-4.68V377c0-2.58-2.1-4.68-4.68-4.68H568.2zM601.86 635.4c24.5 0 44.36-19.86 44.36-44.36s-19.86-44.36-44.36-44.36-44.36 19.86-44.36 44.36 19.86 44.36 44.36 44.36M408.43 467.41c21.04 0 38.1 17.06 38.1 38.1v119.02c0 2.64-2.14 4.78-4.78 4.78h-66.64c-2.64 0-4.78-2.14-4.78-4.78V505.51c.01-21.04 17.06-38.1 38.1-38.1M408.43 455.38c24.5 0 44.36-19.86 44.36-44.36s-19.86-44.36-44.36-44.36-44.36 19.86-44.36 44.36 19.87 44.36 44.36 44.36M505.4 455.38c24.5 0 44.36-19.86 44.36-44.36s-19.86-44.36-44.36-44.36-44.36 19.86-44.36 44.36 19.86 44.36 44.36 44.36"/>
  <g>
    <path class="st2" d="M282.22 790.57c21.04 0 38.1 17.06 38.1 38.1v119.02c0 2.64-2.14 4.78-4.78 4.78H248.9c-2.64 0-4.78-2.14-4.78-4.78V828.67c0-21.04 17.06-38.1 38.1-38.1M88.56 778.09c24.43 0 44.24-19.81 44.24-44.24 0-24.43-19.81-44.24-44.24-44.24s-44.24 19.81-44.24 44.24c0 24.44 19.8 44.24 44.24 44.24M186.17 822.62c24.43 0 44.24-19.81 44.24-44.24 0-24.43-19.81-44.24-44.24-44.24-24.43 0-44.24 19.81-44.24 44.24 0 24.44 19.81 44.24 44.24 44.24M282.22 778.09c24.43 0 44.24-19.81 44.24-44.24 0-24.43-19.81-44.24-44.24-44.24-24.43 0-44.24 19.81-44.24 44.24 0 24.44 19.81 44.24 44.24 44.24M88.06 790.57c21.04 0 38.1 17.06 38.1 38.1v119.02c0 2.64-2.14 4.78-4.78 4.78H54.74c-2.64 0-4.78-2.14-4.78-4.78V828.67c0-21.04 17.06-38.1 38.1-38.1M185.87 833.22c21.04 0 38.1 17.06 38.1 38.1v76.37c0 2.64-2.14 4.78-4.78 4.78h-66.64c-2.64 0-4.78-2.14-4.78-4.78v-76.37c0-21.04 17.06-38.1 38.1-38.1"/>
  </g>
  <path class="st1" d="M885.44 847.34h70.1c2.3 0 4.1-1.8 4.1-4.1v-157.9c0-2.3-1.8-4.1-4.1-4.1h-70.1c-2.3 0-4.1 1.8-4.1 4.1v157.9c-.1 2.3 1.8 4.1 4.1 4.1zM920.74 869.64c-25.2 0-45.6 20.4-45.6 45.6 0 25.2 20.4 45.6 45.6 45.6 25.2 0 45.6-20.4 45.6-45.6s-20.4-45.6-45.6-45.6zM785.24 847.34h70.1c2.3 0 4.1-1.8 4.1-4.1v-157.9c0-2.3-1.8-4.1-4.1-4.1h-70.1c-2.3 0-4.1 1.8-4.1 4.1v157.9c0 2.3 1.9 4.1 4.1 4.1zM820.54 869.64c-25.2 0-45.6 20.4-45.6 45.6 0 25.2 20.4 45.6 45.6 45.6s45.6-20.4 45.6-45.6c.1-25.2-20.4-45.6-45.6-45.6zM686.44 847.34h70.1c2.3 0 4.1-1.8 4.1-4.1v-157.9c0-2.3-1.8-4.1-4.1-4.1h-70.1c-2.3 0-4.1 1.8-4.1 4.1v157.9c0 2.3 1.8 4.1 4.1 4.1zM721.74 869.64c-25.2 0-45.6 20.4-45.6 45.6 0 25.2 20.4 45.6 45.6 45.6s45.6-20.4 45.6-45.6-20.4-45.6-45.6-45.6z"/>
  <g>
    <path class="st1" d="M769.89 144.75c28.13 0 50.93-22.47 50.93-50.2 0-27.72-22.8-50.2-50.93-50.2s-50.93 22.47-50.93 50.2c0 27.73 22.8 50.2 50.93 50.2M913.26 118.68c24.51 0 44.38-19.59 44.38-43.75s-19.87-43.74-44.38-43.74-44.38 19.59-44.38 43.74c-.01 24.16 19.86 43.75 44.38 43.75M913.26 130.04c20.93 0 37.9 16.97 37.9 37.9v118.39c0 2.64-2.14 4.78-4.78 4.78h-66.25c-2.64 0-4.78-2.14-4.78-4.78V167.95c0-20.94 16.97-37.91 37.91-37.91M817.28 171.54c21.11 0 38.22 17.11 38.22 38.22v76.57c0 2.64-2.14 4.78-4.78 4.78H689.05c-2.64 0-4.78-2.14-4.78-4.78v-76.57c0-21.11 17.11-38.22 38.22-38.22h94.79z"/>
  </g>
  <path class="st0" d="M186.58 361.66c-76.98 0-139.38 62.4-139.38 139.38s62.4 139.38 139.38 139.38 139.38-62.4 139.38-139.38-62.41-139.38-139.38-139.38zm0 197.07c-31.86 0-57.69-25.83-57.69-57.69s25.83-57.69 57.69-57.69 57.69 25.83 57.69 57.69-25.83 57.69-57.69 57.69z"/>
</svg>
