<svg width="1000" height="1000" viewBox="0 0 1000 1000" fill="none" xmlns="http://www.w3.org/2000/svg">
  <path d="M90.8001 83.9004c0-8.4-5.4-14.9-13.8-16.5 5.7-1.4 11.6-6.6 11.6-15.3 0-11.6-8.5-17.2-20.9-17.2h-32.1V102.5h32.3c13.6.1 22.9-6.5996 22.9-18.5996zm-45.9-41h22.9c6.5 0 11.3 3.5 11.3 10.2 0 6-4.4 10.6-12.1 10.6h-22.1v-20.8zm0 51.7v-23.2h22.9c9.5 0 13.4 5.8 13.4 11.8 0 6.4-4 11.4-13.6 11.4h-22.7zM143 70.4004c8.7-1.6 13.7-7.6 13.7-16.4 0-12.2-8.2-19.1-22.6-19.1h-30.9V102.5h9.3V74.2004h19.8c7.6 0 12.3 3.4 13.2 9.4 1 7.1 1.3 13 2.8 18.8996h10.6v-.3c-2.7-6.2996-3-12.4996-4.4-21.1996-1.1-6.1-5.1-9.8-11.5-10.6zm-9.7-4h-20.8v-23.4h21.6c8.3 0 13 4.4 13 11.5 0 7.7-5.1 11.9-13.8 11.9zM180.4 83.8004h28.8l6.4 18.6996h9.9l-24.4-67.5996h-12.4L164.2 102.5h9.7l6.5-18.6996zm14.5-42.1l11.7 34.3h-23.4l11.7-34.3zM244.1 60.8005c0-3.8 0-8.3-.1-12.5h.3c2.3 3.9 4.1 6.5 8.9 13.5L280.8 102.6h10.5V35.0005h-9.2v42c0 6.3 0 8.8.1 12.3h-.3c-2.4-3.8-4.8-7.6-8.7-13.3l-27.8-41h-10.5V102.6h9.2V60.8005zM329.7 34.9004h-22.9V102.5h22.8c21.9 0 35.2-12.4996 35.2-33.8996 0-21.1-13-33.7-35.1-33.7zm.4 59.4h-14v-51.1h14c16 0 25.1 9.2 25.1 25.4 0 16.4-9.1 25.7-25.1 25.7zM82.8001 166.8c0 6.3 0 8.8.1 12.3h-.3c-2.4-3.8-4.8-7.6-8.7-13.3l-27.8-41h-10.5v67.6h9.2v-41.8c0-3.8 0-8.3-.1-12.5h.3c2.3 3.9 4.1 6.5 8.9 13.5l27.6 40.8h10.5v-67.6h-9.2v42zM155.5 133.1v-8.3h-48v67.7h48.8v-8.3h-39.5v-22.4h34.8v-7.9h-34.8v-20.8h38.7zM242 124.8l-11.4 45.6c-.8 3.2-1.6 6.2-2.3 9.5h-.4c-.9-3.3-1.8-6.3-2.7-9.5l-13.4-45.7h-9.2l-13.1 45.7c-.9 3.2-1.7 6.1-2.6 9.5h-.4c-.7-3.3-1.4-6.3-2.2-9.5l-11.4-45.7h-9.8l17.8 67.6h10.2l13.5-46.1c1-3.2 1.6-5.7 2.4-9.5h.4c.9 3.7 1.5 6.3 2.4 9.5l13.7 46.1h9.8l17.9-67.6H242v.1zM77.0001 247.2c5.7-1.4 11.6-6.6 11.6-15.3 0-11.6-8.5-17.2-20.9-17.2h-32.1v67.6h32.3c13.5 0 22.9-6.7 22.9-18.6 0-8.4-5.4-14.9-13.8-16.5zm-32.1-24.5h22.9c6.5 0 11.3 3.5 11.3 10.2 0 6-4.4 10.6-12.1 10.6h-22.1v-20.8zm22.7 51.7h-22.7v-23.2h22.9c9.5 0 13.4 5.8 13.4 11.8 0 6.4-4 11.4-13.6 11.4zM147.2 257.8c0 11.9-5.9 17.6-17.5 17.6s-17.6-5.7-17.6-17.6v-43.1h-9.3V258c0 16.8 9.6 25.8 26.9 25.8 17.1 0 26.8-9 26.8-25.8v-43.3h-9.3v43.1zM218.8 256.7c0 6.3 0 8.8.1 12.3h-.3c-2.4-3.8-4.8-7.6-8.7-13.3l-27.8-41h-10.5v67.6h9.2v-41.8c0-3.8 0-8.3-.1-12.5h.3c2.3 3.9 4.1 6.5 8.9 13.5l27.6 40.8H228v-67.6h-9.2v42zM266.4 214.7h-22.9v67.6h22.8c21.9 0 35.2-12.5 35.2-33.9 0-21.1-13-33.7-35.1-33.7zm.4 59.4h-14v-51.2h14c16 0 25.1 9.2 25.1 25.4 0 16.5-9.1 25.8-25.1 25.8zM323.1 251.7h34.8v-7.9h-34.8V223h38.7v-8.3h-48v67.7h48.8v-8.3h-39.5v-22.4zM408.2 244.4l-10.4-2.4c-9.3-2.1-13.1-5.1-13.1-10.4 0-6.3 5.6-10.1 14.3-10.1 8.3 0 15.4 3.5 19.7 10.2l7.9-5.2c-5.8-8.6-15.5-13.2-26.4-13.2-14.8 0-24.7 7.6-24.7 19 0 9 6.1 15.1 17.6 17.7l10.4 2.4c10.3 2.3 14.2 5.6 14.2 11.5 0 7.1-6.1 11.7-15.6 11.7-10.2 0-17.9-5.2-21.6-14.5l-8.1 5.6c4.8 10.7 15.6 17.1 29 17.1 15.3 0 25.6-8.2 25.6-20.4 0-9.7-6.5-16.3-18.8-19zM488.2 214.7h-55v8.4H456v59.3h9.3v-59.3h22.9v-8.4zM506.8 214.7l-24.5 67.6h9.7l6.4-18.7h28.8l6.4 18.7h9.9l-24.4-67.6h-12.3zm-5.6 41.1l11.8-34.3 11.7 34.3h-23.5zM580.4 247.4v8.1h25.3v1c0 10.4-9.9 19.2-22.1 19.2-13.9 0-24.4-11.2-24.4-27.2 0-15.8 10.7-26.9 24.3-26.9 11.5 0 18.3 6.1 22.1 13.5l8.8-4.9c-5.9-10.3-15.4-17-30.3-17-19.7 0-34.6 14.7-34.6 35.5 0 20.5 14.1 34.9 33.4 34.9 9.9 0 18.4-4.2 23.3-10.5v9.1h8.3v-34.9h-34.1v.1z" fill="#242424"/>
  <path d="M954.6 28l-34.5 34.5C896.3 38.8 863.5 24 827.3 24c-65.4 0-119.7 47.9-129.8 110.5h66.4c8.9-26.6 33.9-45.8 63.4-45.8 18.4 0 35 7.4 47.1 19.5l-34.9 34.9c-1.7 1.7-.5 4.7 2 4.7h115.1c1.5 0 2.8-1.2 2.8-2.8V30c0-2.5-3-3.7-4.8-2zM827.3 222.5c-18.5 0-35.3-7.6-47.4-19.8l34.1-34.1c1.7-1.7.5-4.7-2-4.7h-51v-.3h-65c0 .3.1.6.1.9-.6.5-1 1.3-1 2.1v114.2c0 2.5 3 3.7 4.7 2l34.4-34.4c23.8 23.9 56.7 38.8 93.1 38.8 64.4 0 118.2-46.6 129.4-107.8h-66.9c-9.6 25.1-34 43.1-62.5 43.1zM546 432.9l63.5-57-70-77.9-110.3 99.2 32.2 35.7H546zM645.8 448.6h-281v137.1h281V448.6z" fill="#7D47FF"/>
  <path d="M833 421.8c-21.3 0-38.5 17.3-38.5 38.5v121.1c0 2.2 1.8 4.1 4.1 4.1h68.9c2.2 0 4.1-1.8 4.1-4.1V460.3c0-21.3-17.3-38.5-38.6-38.5zM895.9 480.101h68.9c2.2 0 4.1-1.801 4.1-4.101V329.601c0-2.2-1.8-4.101-4.1-4.101h-68.9c-2.2 0-4.1 1.801-4.1 4.101V476c0 2.2 1.8 4.101 4.1 4.101zM930.6 501.9c-24.8 0-44.9 20.1-44.9 44.9 0 24.8 20.1 44.9 44.9 44.9 24.8 0 44.9-20.1 44.9-44.9 0-24.8-20.1-44.9-44.9-44.9zM735 421.8c-21.3 0-38.5 17.3-38.5 38.5v121.1c0 2.2 1.8 4.1 4.1 4.1h68.9c2.2 0 4.1-1.8 4.1-4.1V460.3c-.1-21.3-17.3-38.5-38.6-38.5zM735 319.9c-24.8 0-44.9 20.1-44.9 44.9 0 24.8 20.1 44.9 44.9 44.9 24.8 0 44.9-20.1 44.9-44.9-.1-24.9-20.1-44.9-44.9-44.9zM833 319.9c-24.8 0-44.9 20.1-44.9 44.9 0 24.8 20.1 44.9 44.9 44.9 24.8 0 44.9-20.1 44.9-44.9 0-24.9-20.1-44.9-44.9-44.9zM170.6 465.101H86.8999c-26.3 0-47.5 21.3-47.5 47.5v69.4c0 2.3 1.9 4.2 4.2 4.2H214c2.3 0 4.2-1.9 4.2-4.2v-69.4c-.1-26.2-21.3-47.5-47.6-47.5zM274.6 418.4c-21.8 0-39.5 17.7-39.5 39.5v124.2c0 2.3 1.9 4.2 4.2 4.2H310c2.3 0 4.2-1.9 4.2-4.2V457.9c-.1-21.9-17.8-39.5-39.6-39.5zM274.6 405.9c25.405 0 46-20.595 46-46s-20.595-46-46-46-46 20.595-46 46 20.595 46 46 46zM129.6 453.1c29.216 0 52.9-23.684 52.9-52.9 0-29.216-23.684-52.9-52.9-52.9-29.216 0-52.9 23.684-52.9 52.9 0 29.216 23.684 52.9 52.9 52.9z" fill="#242424"/>
</svg>
