<svg width="423" height="282" fill="none" xmlns="http://www.w3.org/2000/svg">
  <path fill-rule="evenodd" clip-rule="evenodd" d="M249.141 73.793c0 24.3124-19.709 44.021-44.021 44.021s-44.021-19.7086-44.021-44.021c0-24.3114 19.709-44.0205 44.021-44.0205s44.021 19.7091 44.021 44.0205zM197.297 22.9127h15.723V7.77161h-15.723V22.9127zM197.297 139.722h15.723V124.58h-15.723v15.142zM256.029 81.6451h15.214V65.8473h-15.214v15.7978zM139.22 81.6451h15.214V65.8473H139.22v15.7978zM235.152 115.258l11.555-11.554 11.128 11.127-11.555 11.555-11.128-11.128zM152.556 32.6621l11.555-11.5547 11.128 11.127L163.684 43.79l-11.128-11.1279zM163.684 103.703l11.554 11.555-11.127 11.128-11.555-11.555 11.128-11.128zM246.28 21.1073l11.554 11.5547-11.127 11.1278-11.555-11.5546 11.128-11.1279z" fill="#242424"/>
  <mask id="a" maskUnits="userSpaceOnUse" x="0" y="139" width="118" height="139">
    <path fill-rule="evenodd" clip-rule="evenodd" d="M.44043 139.89H117.015v137.669H.44043V139.89z" fill="#fff"/>
  </mask>
  <g mask="url(#a)">
    <path fill-rule="evenodd" clip-rule="evenodd" d="M108.409 188.765c-.83-1.349-2.715-1.552-3.835-.433L86.912 205.99c-.6811.682-.9085 1.702-.5622 2.601 4.0944 10.611 1.8741 23.12-6.6741 31.667-2.9596 2.957-6.4001 5.134-10.0654 6.577-.0517.015-.1047.015-.1551.035-10.6134 4.093-23.1241 1.872-31.6723-6.674-3.0359-3.036-5.2537-6.576-6.6947-10.348-.1939-.512-.371-1.028-.5364-1.547-.2882-.903-.5312-1.816-.7315-2.737-.1306-.606-.2507-1.213-.3425-1.825-.0905-.59-.1784-1.179-.2326-1.772-.0879-.967-.1228-1.936-.1164-2.907.0039-.542.0285-1.086.0621-1.629.062-1.003.1551-2.003.3192-2.995.0737-.449.1796-.892.274-1.338.1861-.877.4084-1.748.6746-2.61.1047-.339.1887-.682.3063-1.017.3878-1.11.8621-2.194 1.3855-3.259.1487-.306.2973-.612.4576-.914 1.3376-2.499 3.0333-4.857 5.1386-6.962 5.7565-5.755 13.3108-8.628 20.8715-8.651v18.887c0 2.195 2.6546 3.295 4.2068 1.741l33.1134-33.106c.9615-.961.9615-2.522-.0013-3.485L62.825 140.616c-1.5522-1.552-4.2068-.452-4.2068 1.743v18.696c-14.9082.018-29.8086 5.647-41.16 16.996-1.4501 1.449-2.7774 2.971-4.0427 4.529-.0349.038-.084.053-.1176.095-.3399.422-.6256.873-.9525 1.302-.6657.874-1.3261 1.748-1.9361 2.649-.3528.521-.67336 1.055-1.00681 1.584-.61778.979-1.21747 1.963-1.77063 2.97-.27012.492-.51956.99-.77416 1.488-.55316 1.079-1.07789 2.167-1.55867 3.272-.19774.455-.38385.913-.56996 1.37-.4782 1.18-.91763 2.37-1.31699 3.573-.13441.406-.26495.813-.38902 1.222-.39548 1.287-.74185 2.585-1.04558 3.891-.07883.34-.16026.676-.23263 1.016-.30243 1.414-.5467 2.835-.74315 4.263-.033602.244-.073668.486-.104686.73-.196449 1.576-.326985 3.157-.395483 4.742-.00517.1-.014217.201-.018094.3-.4471807 11.751 2.591323 23.611 9.190463 33.844.07625.119.19645.18.28821.279 2.15449 3.29 4.64239 6.422 7.53099 9.312 1.4062 1.404 2.8795 2.698 4.3878 3.928.093.107.1486.235.2636.327 18.0126 14.513 42.6916 16.685 62.7539 6.623.0479-.025.0957-.048.1448-.073 1.3532-.682 2.6792-1.425 3.9858-2.22.0828-.051.1719-.092.2559-.143.0155-.009.0207-.026.0362-.036 3.7778-2.33 7.3707-5.074 10.6432-8.345 19.4487-19.445 22.2547-49.309 8.4447-71.778z" fill="#242424"/>
  </g>
  <path fill-rule="evenodd" clip-rule="evenodd" d="M168.396 154.323l-28.066 27.823L241.052 282l28.066-27.823-100.722-99.854z" fill="#00F2A0"/>
  <path fill-rule="evenodd" clip-rule="evenodd" d="M241.052 154.323L140.33 254.177 168.396 282l100.722-99.854-28.066-27.823z" fill="#00F2A0"/>
</svg>
