<svg id="Ebene_1" data-name="Ebene 1" xmlns="http://www.w3.org/2000/svg" viewBox="0 0 1000 1000"><defs><style>.cls-1{fill:#1d1d1b}.cls-2{fill:#7d47ff}.cls-3{fill:#00f2a0}</style></defs><path class="cls-1" d="M442.06 812.88h-.16l-44.02-43.01-44.01 43.01h-.16v151.5h88.35v-151.5zM670.37 877.7l-50.01-43.16-50.01 43.16v86.68h100.02V877.7zM454.13 690.32h102.16v274.06H454.13z"/><path class="cls-2" d="M810.44 747.23h-.22l-62.99-61.53-62.99 61.53h-.23v216.8h126.43v-216.8z"/><path class="cls-3" d="M114.06 828.88h-.16l-44.02-43.01-44.02 43.01h-.15v135.5h88.35v-135.5z"/><path class="cls-2" d="M823.82 787.47H970v175.55H823.82z"/><path class="cls-3" d="M269.33 717.52l-70.66 27.42v-27.42L128 744.94l.13.02v219.42H340V717.52l-70.67 27.42v-27.42z"/><path class="cls-2" d="M898.76 635.56L914 673.85a3.06 3.06 0 002.61 1.94l40.39 3a3.1 3.1 0 012.83 3.34 3.14 3.14 0 01-1.08 2.16l-31 26.65a3.14 3.14 0 00-1 3.13l9.7 40.13a3.12 3.12 0 01-2.24 3.78 3 3 0 01-2.34-.38l-34.39-21.82a3 3 0 00-3.23 0l-34.39 21.82a3 3 0 01-4.22-1 3.2 3.2 0 01-.37-2.4l9.73-40.15a3.15 3.15 0 00-1-3.13l-31-26.65a3.17 3.17 0 01-.37-4.4 3.07 3.07 0 012.12-1.1l40.39-3a3.06 3.06 0 002.61-1.94l15.26-38.29a3 3 0 014-1.71 3.08 3.08 0 011.75 1.73z"/></svg>