<svg width="1000" height="1000" viewBox="0 0 1000 1000" fill="none" xmlns="http://www.w3.org/2000/svg">
<path d="M32.5 30.2002H67.1C100.4 30.2002 120.2 49.2002 120.2 81.2002C120.2 113.5 100 132.4 67 132.4H32.5V30.2002ZM67.6 120C91.8 120 105.5 105.9 105.5 81.1002C105.5 56.6002 91.8 42.7002 67.6 42.7002H46.5V120H67.6Z" fill="#242424"/>
<path d="M138.6 30.2002H152.6V132.4H138.6V30.2002Z" fill="#242424"/>
<path d="M176.1 30.2002H248.6V42.7002H190.1V74.2002H242.7V86.1002H190.1V120H249.9V132.5H176.1V30.2002V30.2002Z" fill="#242424"/>
<path d="M118.3 166V268.2H104.3V223.3H46.5V268.2H32.5V166H46.5V210.8H104.3V166H118.3Z" fill="#242424"/>
<path d="M141.7 166H214.2V178.5H155.7V210H208.3V221.9H155.7V255.8H215.5V268.3H141.7V166Z" fill="#242424"/>
<path d="M319.2 267.8V268.2H303.2C301 259.2 300.5 250.4 299 239.6C297.7 230.6 290.6 225.5 279.1 225.5H249.1V268.2H235.1V166H281.7C303.4 166 315.9 176.4 315.9 194.8C315.9 208.1 308.3 217.2 295.2 219.6C304.9 220.7 310.9 226.3 312.6 235.7C314.8 248.9 315.2 258.3 319.2 267.8ZM301.5 195.6C301.5 185 294.5 178.2 281.9 178.2H249.3V213.6H280.7C293.8 213.6 301.5 207.2 301.5 195.6Z" fill="#242424"/>
<path d="M833.8 307.8C912.1 307.8 975.6 244.3 975.6 166C975.6 87.7002 912.1 24.2002 833.8 24.2002C755.5 24.2002 691.9 87.7002 691.9 166C691.9 244.3 755.4 307.8 833.8 307.8Z" fill="#242424"/>
<path d="M267.4 846.1C294.5 846.1 316.5 868.1 316.5 895.2V966.9C316.5 969.3 314.6 971.2 312.2 971.2H136.2C133.8 971.2 131.9 969.3 131.9 966.9V895.2C131.9 868.1 153.9 846.1 181 846.1H267.4Z" fill="#242424"/>
<path d="M73.6 797.9C96.1 797.9 114.4 816.2 114.4 838.7V967C114.4 969.4 112.5 971.3 110.1 971.3H37.1C34.7 971.3 32.8 969.4 32.8 967V838.7C32.8 816.1 51 797.9 73.6 797.9Z" fill="#242424"/>
<path d="M73.6001 785C99.8001 785 121.1 763.7 121.1 737.5C121.1 711.3 99.8001 690 73.6001 690C47.4001 690 26.1001 711.3 26.1001 737.5C26.1001 763.7 47.3001 785 73.6001 785Z" fill="#242424"/>
<path d="M223.3 833.8C253.5 833.8 277.9 809.3 277.9 779.2C277.9 749 253.4 724.6 223.3 724.6C193.2 724.6 168.7 749.1 168.7 779.2C168.7 809.3 193.2 833.8 223.3 833.8Z" fill="#242424"/>
<path d="M399.6 430H356.1L346.4 458.3H331.7L368.7 356.1H387.5L424.3 458.3H409.3L399.6 430ZM395.6 418.1L378 366.3L360.2 418.1H395.6Z" fill="#242424"/>
<path d="M437.6 421.4V356H451.6V421.1C451.6 439 460.7 447.7 478.2 447.7C495.7 447.7 504.7 439 504.7 421.1V356H518.7V421.4C518.7 446.7 504.1 460.3 478.2 460.3C452.1 460.4 437.6 446.8 437.6 421.4Z" fill="#242424"/>
<path d="M536.7 434.6L548.9 426.2C554.5 440.2 566.1 448 581.5 448C595.8 448 605 441.1 605 430.4C605 421.4 599.1 416.5 583.6 413L567.9 409.4C550.5 405.5 541.3 396.2 541.3 382.7C541.3 365.5 556.3 354 578.7 354C595.2 354 609.8 360.9 618.6 373.9L606.7 381.7C600.1 371.6 589.5 366.3 576.9 366.3C563.7 366.3 555.3 372 555.3 381.6C555.3 389.6 561 394.1 575 397.3L590.7 400.9C609.3 405.1 619.1 415 619.1 429.6C619.1 448.1 603.6 460.4 580.5 460.4C560.2 460.4 544 450.7 536.7 434.6Z" fill="#242424"/>
<path d="M355.1 504.3V539.4H406.8V551.3H355.1V594H341.1V491.9H412.4V504.4H355.1V504.3Z" fill="#242424"/>
<path d="M421.5 543C421.5 512.5 443.2 489.8 472.5 489.8C501.6 489.8 523.3 512.5 523.3 543C523.3 573.8 501.9 596.2 472.5 596.2C442.9 596.2 421.5 573.8 421.5 543ZM508.7 543C508.7 519.1 493.6 502.4 472.4 502.4C451.3 502.4 436.1 519.1 436.1 543C436.1 567.1 451.1 583.6 472.4 583.6C493.7 583.6 508.7 567.1 508.7 543Z" fill="#242424"/>
<path d="M625.7 593.7V594.1H609.7C607.5 585.1 607 576.3 605.5 565.5C604.2 556.5 597.1 551.4 585.6 551.4H555.6V594.1H541.6V491.9H588.2C609.9 491.9 622.4 502.3 622.4 520.7C622.4 534 614.8 543.1 601.7 545.5C611.4 546.6 617.4 552.2 619.1 561.6C621.3 574.8 621.7 584.1 625.7 593.7ZM608 521.4C608 510.8 601 504 588.4 504H555.8V539.4H587.2C600.3 539.5 608 533 608 521.4Z" fill="#242424"/>
<path d="M440.6 865.7C442 866.9 444.8 866.9 444.8 866.9H520.2C520.2 866.9 522.7 867.2 524.1 865.6C525.2 864.4 524.8 859.3 525 857.8C527.1 841 541.7 844.5 584.4 818.7C611.1 802.6 629.1 787.8 629.1 751.4C629.1 699.7 581.5 654.7 496.2 654.7C418.1 654.7 372.7 687.3 347.8 737.6C346.5 740.3 345.7 742.8 346.7 745.3C347.7 747.8 352.1 749.2 352.1 749.2L410.8 773.6C410.8 773.6 415.4 775.3 417.7 774.2C420 773.1 420.3 771.9 421.4 769.7C437.2 739.7 458.7 726.4 493.4 726.4C523.7 726.4 541.2 738 541.2 751.8C541.2 770.4 525.9 771.8 502 785.1C464.3 806.3 439.2 811 439.2 853.8V860.9C439.2 861.1 439.2 864.5 440.6 865.7ZM482.2 974C508.4 974 529.7 952.7 529.7 926.5C529.7 900.3 508.4 879 482.2 879C456 879 434.7 900.3 434.7 926.5C434.7 952.8 456 974 482.2 974Z" fill="#FF523D"/>
<path d="M290.7 409.4L228.7 347.4L153 423.1L77.3 347.4L15.2 409.4L90.9 485.1L15.2 560.9L77.3 622.9L153 547.2L228.7 622.9L290.7 560.9L215 485.1L290.7 409.4Z" fill="#7D47FF"/>
<path d="M650.6 159.2L614.4 184.1L529.5 60.5002C528.4 58.9002 526.1 58.4002 524.5 59.6002L523 60.6002C522.7 60.7002 522.4 60.8002 522.1 61.0002L454 107.9L394.4 21.2002C393.3 19.6002 391 19.1002 389.4 20.3002L321.8 66.7002C320.2 67.8002 319.7 70.1002 320.9 71.7002L429.3 229.4C430.4 231 432.7 231.5 434.3 230.3L501.8 183.9C502.4 183.5 502.8 183 503 182.4L504.3 181.5L540.8 234.6L507.3 257.6C505.7 258.7 505.9 259.9 507.9 260.3L626.6 282.3C628.6 282.7 630.4 281.4 630.8 279.4L652.8 160.7C653.3 158.7 652.2 158.1 650.6 159.2Z" fill="#FF523D"/>
<path d="M711.3 678.2H676.7V780.4H711.1C744.1 780.4 764.3 761.5 764.3 729.2C764.4 697.2 744.6 678.2 711.3 678.2ZM711.9 767.9H690.8V690.6H711.9C736.1 690.6 749.8 704.5 749.8 729C749.8 753.8 736.1 767.9 711.9 767.9Z" fill="#242424"/>
<path d="M859.4 767.9H799.6V734H852.3V722.1H799.6V690.6H858.2V678.2H785.6V780.4H859.4V767.9Z" fill="#242424"/>
<path d="M896.1 737.7H926.1C937.6 737.7 944.7 742.9 946 751.8C947.5 762.6 948 771.4 950.2 780.4H966.2V780C962.1 770.5 961.7 761.1 959.6 747.9C957.9 738.5 951.9 732.9 942.2 731.8C955.4 729.4 962.9 720.3 962.9 707C962.9 688.5 950.4 678.2 928.7 678.2H882.1V780.4H896.1V737.7ZM896.1 690.4H928.7C941.3 690.4 948.3 697.1 948.3 707.8C948.3 719.4 940.6 725.9 927.4 725.9H896V690.4H896.1Z" fill="#242424"/>
<path d="M743.1 878.9C743.1 896.8 734.1 905.5 716.6 905.5C699.1 905.5 690 896.8 690 878.9V813.8H676V879.2C676 904.5 690.6 918.1 716.6 918.1C742.5 918.1 757.1 904.5 757.1 879.2V813.8H743.1V878.9Z" fill="#242424"/>
<path d="M845.9 877.3C845.9 886.8 845.9 890.6 846 895.9H845.6C842 890.2 838.3 884.4 832.4 875.7L790.4 813.8H774.6V916H788.5V852.9C788.5 847.2 788.5 840.3 788.4 834H788.8C792.3 839.9 795 843.8 802.2 854.4L843.9 916H859.7V813.8H845.8V877.3H845.9Z" fill="#242424"/>
<path d="M919.4 863.3V875.5H957.6V877C957.6 892.7 942.6 906 924.3 906C903.3 906 887.5 889.1 887.5 865C887.5 841.1 903.6 824.4 924.2 824.4C941.6 824.4 951.9 833.6 957.5 844.8L970.8 837.4C961.8 821.9 947.6 811.8 925 811.8C895.2 811.8 872.8 834.1 872.8 865.4C872.8 896.3 894.1 918.2 923.2 918.2C938.2 918.2 951.1 911.9 958.3 902.4V916H970.9V863.2H919.4V863.3Z" fill="#242424"/>
<path d="M825.4 451.3C803.6 451.3 785.9 469 785.9 490.8V614.9C785.9 617.2 787.8 619.1 790.1 619.1H860.7C863 619.1 864.9 617.2 864.9 614.9V490.8C864.8 469 847.2 451.3 825.4 451.3Z" fill="#242424"/>
<path d="M925.8 451.3C904 451.3 886.3 469 886.3 490.8V614.9C886.3 617.2 888.2 619.1 890.5 619.1H961.1C963.4 619.1 965.3 617.2 965.3 614.9V490.8C965.3 469 947.6 451.3 925.8 451.3Z" fill="#242424"/>
<path d="M925.8 438.8C951.2 438.8 971.7 418.2 971.7 392.9C971.7 367.5 951.1 347 925.8 347C900.5 347 879.9 367.6 879.9 392.9C879.9 418.3 900.4 438.8 925.8 438.8Z" fill="#242424"/>
<path d="M825.4 347C800 347 779.5 367.6 779.5 392.9C779.5 418.3 800.1 438.8 825.4 438.8C850.8 438.8 871.3 418.2 871.3 392.9C871.3 367.5 850.7 347 825.4 347Z" fill="#242424"/>
<path d="M725.2 515.2C703.4 515.2 685.7 532.9 685.7 554.7V614.5C685.7 616.8 687.6 618.6 689.9 618.6H760.5C762.8 618.6 764.7 616.7 764.7 614.5V554.7C764.6 532.9 746.9 515.2 725.2 515.2Z" fill="#242424"/>
<path d="M725.2 410.9C699.8 410.9 679.3 431.5 679.3 456.8C679.3 482.2 699.9 502.7 725.2 502.7C750.6 502.7 771.1 482.1 771.1 456.8C771.1 431.5 750.5 410.9 725.2 410.9Z" fill="#242424"/>
</svg>
