<svg width="1000" height="1000" viewBox="0 0 1000 1000" fill="none" xmlns="http://www.w3.org/2000/svg">
<path d="M90.8001 469.7C90.8001 461.3 85.4001 454.8 77.0001 453.2C82.7001 451.8 88.6001 446.6 88.6001 437.9C88.6001 426.3 80.1001 420.7 67.7001 420.7H35.6001V488.3H67.9001C81.5001 488.4 90.8001 481.7 90.8001 469.7ZM44.9001 428.7H67.8001C74.3001 428.7 79.1001 432.2 79.1001 438.9C79.1001 444.9 74.7001 449.5 67.0001 449.5H44.9001V428.7ZM44.9001 480.4V457.2H67.8001C77.3001 457.2 81.2001 463 81.2001 469C81.2001 475.4 77.2001 480.4 67.6001 480.4H44.9001Z" fill="#242424"/>
<path d="M143 456.2C151.7 454.6 156.7 448.6 156.7 439.8C156.7 427.6 148.5 420.7 134.1 420.7H103.2V488.3H112.5V460H132.3C139.9 460 144.6 463.4 145.5 469.4C146.5 476.5 146.8 482.4 148.3 488.3H158.9V488C156.2 481.7 155.9 475.5 154.5 466.8C153.4 460.7 149.4 457 143 456.2ZM133.3 452.2H112.5V428.8H134.1C142.4 428.8 147.1 433.2 147.1 440.3C147.1 448 142 452.2 133.3 452.2Z" fill="#242424"/>
<path d="M180.4 469.6H209.2L215.6 488.3H225.5L201.1 420.7H188.7L164.2 488.3H173.9L180.4 469.6ZM194.9 427.5L206.6 461.8H183.2L194.9 427.5Z" fill="#242424"/>
<path d="M244.1 446.6C244.1 442.8 244.1 438.3 244 434.1H244.3C246.6 438 248.4 440.6 253.2 447.6L280.8 488.4H291.3V420.8H282.1V462.8C282.1 469.1 282.1 471.6 282.2 475.1H281.9C279.5 471.3 277.1 467.5 273.2 461.8L245.4 420.8H234.9V488.4H244.1V446.6V446.6Z" fill="#242424"/>
<path d="M329.7 420.7H306.8V488.3H329.6C351.5 488.3 364.8 475.8 364.8 454.4C364.8 433.3 351.8 420.7 329.7 420.7ZM330.1 480.1H316.1V429H330.1C346.1 429 355.2 438.2 355.2 454.4C355.2 470.8 346.1 480.1 330.1 480.1Z" fill="#242424"/>
<path d="M82.8001 552.6C82.8001 558.9 82.8001 561.4 82.9001 564.9H82.6001C80.2001 561.1 77.8001 557.3 73.9001 551.6L46.1001 510.6H35.6001V578.2H44.8001V536.4C44.8001 532.6 44.8001 528.1 44.7001 523.9H45.0001C47.3001 527.8 49.1001 530.4 53.9001 537.4L81.5001 578.2H92.0001V510.6H82.8001V552.6Z" fill="#242424"/>
<path d="M155.5 518.9V510.6H107.5V578.3H156.3V570H116.8V547.6H151.6V539.7H116.8V518.9H155.5Z" fill="#242424"/>
<path d="M242 510.6L230.6 556.2C229.8 559.4 229 562.4 228.3 565.7H227.9C227 562.4 226.1 559.4 225.2 556.2L211.8 510.5H202.6L189.5 556.2C188.6 559.4 187.8 562.3 186.9 565.7H186.5C185.8 562.4 185.1 559.4 184.3 556.2L172.9 510.5H163.1L180.9 578.1H191.1L204.6 532C205.6 528.8 206.2 526.3 207 522.5H207.4C208.3 526.2 208.9 528.8 209.8 532L223.5 578.1H233.3L251.2 510.5H242V510.6Z" fill="#242424"/>
<path d="M77.0001 633C82.7001 631.6 88.6001 626.4 88.6001 617.7C88.6001 606.1 80.1001 600.5 67.7001 600.5H35.6001V668.1H67.9001C81.4001 668.1 90.8001 661.4 90.8001 649.5C90.8001 641.1 85.4001 634.6 77.0001 633ZM44.9001 608.5H67.8001C74.3001 608.5 79.1001 612 79.1001 618.7C79.1001 624.7 74.7001 629.3 67.0001 629.3H44.9001V608.5ZM67.6001 660.2H44.9001V637H67.8001C77.3001 637 81.2001 642.8 81.2001 648.8C81.2001 655.2 77.2001 660.2 67.6001 660.2Z" fill="#242424"/>
<path d="M147.2 643.6C147.2 655.5 141.3 661.2 129.7 661.2C118.1 661.2 112.1 655.5 112.1 643.6V600.5H102.8V643.8C102.8 660.6 112.4 669.6 129.7 669.6C146.8 669.6 156.5 660.6 156.5 643.8V600.5H147.2V643.6Z" fill="#242424"/>
<path d="M218.8 642.5C218.8 648.8 218.8 651.3 218.9 654.8H218.6C216.2 651 213.8 647.2 209.9 641.5L182.1 600.5H171.6V668.1H180.8V626.3C180.8 622.5 180.8 618 180.7 613.8H181C183.3 617.7 185.1 620.3 189.9 627.3L217.5 668.1H228V600.5H218.8V642.5Z" fill="#242424"/>
<path d="M266.4 600.5H243.5V668.1H266.3C288.2 668.1 301.5 655.6 301.5 634.2C301.5 613.1 288.5 600.5 266.4 600.5ZM266.8 659.9H252.8V608.7H266.8C282.8 608.7 291.9 617.9 291.9 634.1C291.9 650.6 282.8 659.9 266.8 659.9Z" fill="#242424"/>
<path d="M323.1 637.5H357.9V629.6H323.1V608.8H361.8V600.5H313.8V668.2H362.6V659.9H323.1V637.5Z" fill="#242424"/>
<path d="M408.2 630.2L397.8 627.8C388.5 625.7 384.7 622.7 384.7 617.4C384.7 611.1 390.3 607.3 399 607.3C407.3 607.3 414.4 610.8 418.7 617.5L426.6 612.3C420.8 603.7 411.1 599.1 400.2 599.1C385.4 599.1 375.5 606.7 375.5 618.1C375.5 627.1 381.6 633.2 393.1 635.8L403.5 638.2C413.8 640.5 417.7 643.8 417.7 649.7C417.7 656.8 411.6 661.4 402.1 661.4C391.9 661.4 384.2 656.2 380.5 646.9L372.4 652.5C377.2 663.2 388 669.6 401.4 669.6C416.7 669.6 427 661.4 427 649.2C427 639.5 420.5 632.9 408.2 630.2Z" fill="#242424"/>
<path d="M488.2 600.5H433.2V608.9H456V668.2H465.3V608.9H488.2V600.5Z" fill="#242424"/>
<path d="M506.8 600.5L482.3 668.1H492L498.4 649.4H527.2L533.6 668.1H543.5L519.1 600.5H506.8ZM501.2 641.6L513 607.3L524.7 641.6H501.2Z" fill="#242424"/>
<path d="M580.4 633.2V641.3H605.7V642.3C605.7 652.7 595.8 661.5 583.6 661.5C569.7 661.5 559.2 650.3 559.2 634.3C559.2 618.5 569.9 607.4 583.5 607.4C595 607.4 601.8 613.5 605.6 620.9L614.4 616C608.5 605.7 599 599 584.1 599C564.4 599 549.5 613.7 549.5 634.5C549.5 655 563.6 669.4 582.9 669.4C592.8 669.4 601.3 665.2 606.2 658.9V668H614.5V633.1H580.4V633.2Z" fill="#242424"/>
<path d="M954.6 413.8L920.1 448.3C896.3 424.6 863.5 409.8 827.3 409.8C761.9 409.8 707.6 457.7 697.5 520.3H763.9C772.8 493.7 797.8 474.5 827.3 474.5C845.7 474.5 862.3 481.9 874.4 494L839.5 528.9C837.8 530.6 839 533.6 841.5 533.6H956.6C958.1 533.6 959.4 532.4 959.4 530.8V415.8C959.4 413.3 956.4 412.1 954.6 413.8Z" fill="#7D47FF"/>
<path d="M827.3 608.3C808.8 608.3 792 600.7 779.9 588.5L814 554.4C815.7 552.7 814.5 549.7 812 549.7H761C761 549.6 761 549.5 761 549.4H696C696 549.7 696.1 550 696.1 550.3C695.5 550.8 695.1 551.6 695.1 552.4V666.6C695.1 669.1 698.1 670.3 699.8 668.6L734.2 634.2C758 658.1 790.9 673 827.3 673C891.7 673 945.5 626.4 956.7 565.2H889.8C880.2 590.3 855.8 608.3 827.3 608.3Z" fill="#7D47FF"/>
<path d="M546 818.7L609.5 761.7L539.5 683.8L429.2 783L461.4 818.7H546Z" fill="#7D47FF"/>
<path d="M645.8 834.4H364.8V971.5H645.8V834.4Z" fill="#7D47FF"/>
<path d="M833 807.6C811.7 807.6 794.5 824.9 794.5 846.1V967.2C794.5 969.4 796.3 971.3 798.6 971.3H867.5C869.7 971.3 871.6 969.5 871.6 967.2V846.1C871.6 824.8 854.3 807.6 833 807.6Z" fill="#242424"/>
<path d="M895.9 865.9H964.8C967 865.9 968.9 864.1 968.9 861.8V715.4C968.9 713.2 967.1 711.3 964.8 711.3H895.9C893.7 711.3 891.8 713.1 891.8 715.4V861.8C891.8 864 893.6 865.9 895.9 865.9Z" fill="#242424"/>
<path d="M930.6 887.7C905.8 887.7 885.7 907.8 885.7 932.6C885.7 957.4 905.8 977.5 930.6 977.5C955.4 977.5 975.5 957.4 975.5 932.6C975.5 907.8 955.4 887.7 930.6 887.7Z" fill="#242424"/>
<path d="M735 807.6C713.7 807.6 696.5 824.9 696.5 846.1V967.2C696.5 969.4 698.3 971.3 700.6 971.3H769.5C771.7 971.3 773.6 969.5 773.6 967.2V846.1C773.5 824.8 756.3 807.6 735 807.6Z" fill="#242424"/>
<path d="M735 705.7C710.2 705.7 690.1 725.8 690.1 750.6C690.1 775.4 710.2 795.5 735 795.5C759.8 795.5 779.9 775.4 779.9 750.6C779.8 725.7 759.8 705.7 735 705.7Z" fill="#242424"/>
<path d="M833 705.7C808.2 705.7 788.1 725.8 788.1 750.6C788.1 775.4 808.2 795.5 833 795.5C857.8 795.5 877.9 775.4 877.9 750.6C877.9 725.7 857.8 705.7 833 705.7Z" fill="#242424"/>
<path d="M170.6 850.9H86.8999C60.5999 850.9 39.3999 872.2 39.3999 898.4V967.8C39.3999 970.1 41.2999 972 43.5999 972H214C216.3 972 218.2 970.1 218.2 967.8V898.4C218.1 872.2 196.9 850.9 170.6 850.9Z" fill="#242424"/>
<path d="M274.6 804.2C252.8 804.2 235.1 821.9 235.1 843.7V967.9C235.1 970.2 237 972.1 239.3 972.1H310C312.3 972.1 314.2 970.2 314.2 967.9V843.7C314.1 821.8 296.4 804.2 274.6 804.2Z" fill="#242424"/>
<path d="M274.6 791.7C300.005 791.7 320.6 771.105 320.6 745.7C320.6 720.295 300.005 699.7 274.6 699.7C249.195 699.7 228.6 720.295 228.6 745.7C228.6 771.105 249.195 791.7 274.6 791.7Z" fill="#242424"/>
<path d="M129.6 838.9C158.816 838.9 182.5 815.216 182.5 786C182.5 756.784 158.816 733.1 129.6 733.1C100.384 733.1 76.7 756.784 76.7 786C76.7 815.216 100.384 838.9 129.6 838.9Z" fill="#242424"/>
</svg>
