<svg viewBox="0 0 1000 1000" fill="none" xmlns="http://www.w3.org/2000/svg"><path d="M825.26 788.61a41.32 41.32 0 00-41.32 41.32v129.92a4.349 4.349 0 004.35 4.35h73.94a4.349 4.349 0 004.35-4.35V829.93a41.32 41.32 0 00-41.32-41.32zM966.59 685.46h-73.94a4.35 4.35 0 00-4.35 4.35V846.8a4.35 4.35 0 004.35 4.35h73.94a4.35 4.35 0 004.35-4.35V689.81a4.35 4.35 0 00-4.35-4.35zM929.89 874.58a48.116 48.116 0 00-44.448 29.699 48.116 48.116 0 00-2.738 27.797 48.118 48.118 0 0037.8 37.8 48.116 48.116 0 0049.388-20.457 48.112 48.112 0 00-40.002-74.839zm-209.8-85.97a41.327 41.327 0 00-29.218 12.102 41.322 41.322 0 00-12.102 29.218v129.92a4.349 4.349 0 004.35 4.35h73.94a4.349 4.349 0 004.35-4.35V829.93a41.32 41.32 0 00-41.32-41.32zm0-109.28a48.11 48.11 0 10.001 96.221 48.11 48.11 0 00-.001-96.221zm105.17 0a48.11 48.11 0 10.001 96.221 48.11 48.11 0 00-.001-96.221z" fill="#7D47FF"/><path d="M598.66 833.15a51 51 0 0151 51v74.45a4.46 4.46 0 01-4.45 4.46h-182.8a4.461 4.461 0 01-4.45-4.46v-74.47a51 51 0 0151-51l89.7.02zm-201.25-50.1a42.337 42.337 0 0129.952 12.4 42.349 42.349 0 0112.408 29.95v133.18a4.461 4.461 0 01-4.46 4.45h-75.79a4.46 4.46 0 01-4.46-4.45V825.4a42.35 42.35 0 0142.35-42.35zm0-13.38a49.316 49.316 0 0045.574-30.442 49.319 49.319 0 00-64.443-64.442A49.317 49.317 0 00348.1 720.36a49.32 49.32 0 0049.31 49.31zM553 820.31a56.707 56.707 0 0040.1-96.81 56.706 56.706 0 00-61.802-12.293 56.719 56.719 0 00-25.451 20.886 56.715 56.715 0 00-9.557 31.507A56.721 56.721 0 00553 820.31zm-374.25-33.19a41.34 41.34 0 0141.33 41.33v129.92a4.349 4.349 0 01-4.35 4.35h-73.95a4.349 4.349 0 01-4.35-4.35V828.45a41.327 41.327 0 0141.32-41.33zm-105.16 0a41.327 41.327 0 0141.32 41.33v129.92a4.349 4.349 0 01-4.35 4.35H36.61a4.349 4.349 0 01-4.35-4.35V828.45a41.339 41.339 0 0141.33-41.33zm0-13.05a48.114 48.114 0 0044.452-29.709 48.115 48.115 0 00-10.447-52.434 48.114 48.114 0 00-52.444-10.404A48.113 48.113 0 0025.48 726a48.112 48.112 0 0048.11 48.11v-.04zm105.16 0a48.107 48.107 0 0044.459-29.702 48.115 48.115 0 00-35.084-65.598A48.108 48.108 0 00130.65 726a48.101 48.101 0 0048.1 48.11v-.04zm104.95 80a41.322 41.322 0 0141.3 41.32v62.66a4.348 4.348 0 01-1.271 3.079 4.345 4.345 0 01-3.079 1.271h-73.92a4.363 4.363 0 01-4.019-2.686 4.356 4.356 0 01-.331-1.664v-62.66a41.32 41.32 0 0141.32-41.32zm0-13.07a48.12 48.12 0 10.02-96.239A48.12 48.12 0 00283.7 841M378.018 427.187l24.554-5.512c23.556-5.288 34.904-21.99 29.728-45.047-5.109-22.757-22.23-33.172-45.985-27.839l-24.654 5.534 16.357 72.864zm7.987-11.124l-12.369-55.097 15.072-3.384c17.268-3.876 29.268 3.81 33.189 21.277 3.966 17.667-3.552 29.944-20.82 33.82l-15.072 3.384zm66.678-5.638l9.981-2.24-16.357-72.864-9.981 2.241 16.357 72.863zm25.733-5.777l52.601-11.808-1.994-8.883-42.62 9.567-5.423-24.154 37.53-8.425-1.904-8.485-37.53 8.426-5.042-22.458 41.722-9.367-1.994-8.883-51.703 11.607 16.357 72.863zM444.137 543.795l50.798 8.064 1.421-8.952-40.739-6.467 10.235-64.479-10.059-1.597-11.656 73.431zm89.811-69.996l9.858 1.565 2.028-12.775-9.858-1.565-2.028 12.775zm18.81 2.986l9.858 1.565 2.028-12.775-9.858-1.565-2.028 12.775zm-17.811 82.973c21.124 3.353 39.069-10.299 42.582-32.428 3.481-21.929-9.524-40.7-30.447-44.021-21.023-3.338-39.202 10.483-42.683 32.412-3.512 22.13 9.323 40.667 30.548 44.037zm1.437-9.054c-15.29-2.427-24.169-16.005-21.423-33.307 2.731-17.201 15.495-27.446 30.684-25.035 15.189 2.411 24.153 16.106 21.422 33.307-2.746 17.301-15.394 27.463-30.683 25.035zm75.361 21.245c16.597 2.634 29.168-4.445 31.276-17.723 1.661-10.461-4.247-18.721-17.146-23.863l-10.851-4.403c-9.692-3.911-13.305-7.784-12.395-13.518 1.086-6.84 7.776-10.006 17.231-8.505 9.053 1.437 16.091 6.473 19.669 14.466l9.445-4.276c-4.852-10.361-14.531-16.95-26.401-18.835-16.094-2.555-28.167 3.985-30.131 16.358-1.549 9.757 4.036 17.45 16.062 22.247l10.851 4.403c10.767 4.288 14.432 8.479 13.411 14.917-1.23 7.745-8.651 11.62-18.912 9.992-11.065-1.757-18.519-8.715-20.946-19.413l-9.71 4.646c3.395 12.398 13.961 21.191 28.547 23.507zm69.958 11.105c18.61 2.954 30.62-5.142 33.51-23.349l7.457-46.976-10.059-1.597-7.425 46.775c-2.044 12.875-9.472 18.09-22.046 16.094-12.573-1.996-18.122-9.271-16.078-22.146l7.425-46.775-10.059-1.597-7.457 46.976c-2.89 18.207 6.023 29.625 24.732 32.595zm44.755 5.558l9.959 1.58 7.201-45.366c.655-4.124 1.437-9.053 2.055-13.596l.302.048c1.844 4.624 3.308 7.744 7.325 16.22l22.95 49.018 11.367 1.804 11.657-73.431-9.959-1.581-7.233 45.568c-1.086 6.84-1.517 9.556-2.023 13.394l-.302-.048c-1.961-4.539-3.921-9.078-7.156-15.986l-23.12-49.251-11.366-1.804-11.657 73.431zm112.91-20.955l-1.389 8.751 27.461 4.36-.176 1.106c-1.788 11.266-14.068 19.114-27.246 17.022-15.088-2.395-24.523-16.371-21.776-33.673 2.73-17.201 16.198-27.335 30.985-24.987 12.473 1.98 18.863 9.8 21.609 18.486l10.403-3.814c-4.666-12.188-13.776-21.059-29.971-23.63-21.426-3.401-40.059 10.038-43.636 32.571-3.529 22.23 9.27 40.349 30.192 43.671 10.764 1.708 20.737-1.349 27.053-7.359l-1.565 9.858 9.053 1.437 6.02-37.923-37.017-5.876z" fill="#242424"/><path d="M812.8 144a4.8 4.8 0 00-5.72 3.64L767.3 326.89a4.786 4.786 0 001.927 4.966 4.779 4.779 0 001.713.754l79.61 17.67a4.803 4.803 0 005.72-3.65l39.78-179.28a4.79 4.79 0 00-3.64-5.72L812.8 144zm-30.35 326.33A53.062 53.062 0 00847 419.7a53.065 53.065 0 00-62.258-53.423 53.06 53.06 0 00-42.592 40.773 53.005 53.005 0 0021.345 54.952 53.01 53.01 0 0018.955 8.328z" fill="#00F2A0"/><path d="M704.82 32.34l-34.3 34.3a130.241 130.241 0 00-92.26-38.24c-65 0-119 47.63-129.1 109.81h66a66.398 66.398 0 0147.658-43.685 66.4 66.4 0 0162.222 17.555l-34.64 34.68a2.758 2.758 0 002 4.72h114.37a2.771 2.771 0 002.76-2.77V34.29a2.765 2.765 0 00-1.704-2.547 2.762 2.762 0 00-3.006.597zM578.25 225.66a66.225 66.225 0 01-47.1-19.66L565 172.15a2.77 2.77 0 00-2-4.72h-50.68v-.29h-64.6c0 .31.06.62.08.93a2.744 2.744 0 00-1 2.13v113.5a2.772 2.772 0 001.689 2.583 2.764 2.764 0 003.031-.583l34.2-34.2a130.308 130.308 0 0092.53 38.5c64.06 0 117.48-46.3 128.63-107.18h-66.5a66.592 66.592 0 01-62.13 42.84z" fill="#7D47FF"/><path d="M266.59 555.24c42.235-42.235 42.235-110.712 0-152.947-42.235-42.236-110.712-42.236-152.947 0-42.235 42.235-42.235 110.712 0 152.947s110.712 42.235 152.947 0zM168.98 317.74h42.64v41.07h-42.64v-41.07zm0 280.78h42.64v41.07h-42.64v-41.07zm141.17-141.18h41.07v42.64h-41.07v-42.64zm-280.78 0h41.07v42.64H29.37v-42.64zM259.976 578.482l30.158-30.158 29.041 29.041-30.158 30.158-29.041-29.041zM61.448 379.913l30.158-30.158 29.041 29.041-30.158 30.158-29.041-29.041zM61.456 577.325l29.041-29.041 30.159 30.158-29.041 29.041-30.158-30.158zM259.983 378.834l29.041-29.041 30.158 30.158-29.041 29.041-30.158-30.158z" fill="#FFE440"/></svg>