<svg id="Ebene_1" data-name="Ebene 1" xmlns="http://www.w3.org/2000/svg" viewBox="0 0 1000 1000"><defs><style>.cls-1{fill:#7d47ff}.cls-2{fill:#00f2a0}.cls-3{fill:#1d1d1b}</style></defs><path class="cls-1" d="M830.26 844.61a41.32 41.32 0 00-41.32 41.32v73.92a4.35 4.35 0 004.35 4.35h73.94a4.35 4.35 0 004.35-4.35v-73.92a41.32 41.32 0 00-41.32-41.32zM720.09 788.61a41.32 41.32 0 00-41.32 41.32v129.92a4.35 4.35 0 004.35 4.35h73.94a4.35 4.35 0 004.35-4.35V829.93a41.32 41.32 0 00-41.32-41.32zM720.09 679.33a48.11 48.11 0 1048.11 48.11 48.11 48.11 0 00-48.11-48.11zM935.09 788.61a41.32 41.32 0 00-41.32 41.32v129.92a4.35 4.35 0 004.35 4.35h73.94a4.35 4.35 0 004.35-4.35V829.93a41.32 41.32 0 00-41.32-41.32zM935.09 679.33a48.11 48.11 0 1048.11 48.11 48.11 48.11 0 00-48.11-48.11z"/><path class="cls-2" d="M289.07 784.84a42.26 42.26 0 0142.25 42.25v132a5.3 5.3 0 01-5.3 5.3h-73.9a5.3 5.3 0 01-5.3-5.3v-132a42.26 42.26 0 0142.25-42.25M74.31 771a49.06 49.06 0 10-49.06-49 49.06 49.06 0 0049.06 49M182.56 820.39a49.06 49.06 0 10-49.06-49.06 49.07 49.07 0 0049.06 49.06M73.75 784.84A42.25 42.25 0 01116 827.09v132a5.3 5.3 0 01-5.3 5.3H36.8a5.3 5.3 0 01-5.3-5.3v-132a42.26 42.26 0 0142.25-42.25M182.22 832.15a42.25 42.25 0 0142.25 42.24v84.69a5.3 5.3 0 01-5.3 5.3h-73.9a5.3 5.3 0 01-5.3-5.3v-84.69a42.25 42.25 0 0142.25-42.24M291.91 654.7l15.25 38.3a3.08 3.08 0 002.61 1.94l40.39 3a3.1 3.1 0 012.83 3.34 3.14 3.14 0 01-1.08 2.16l-31 26.64a3.17 3.17 0 00-1 3.14l9.7 40.13a3.13 3.13 0 01-2.24 3.78 3 3 0 01-2.34-.38l-34.34-21.85a3 3 0 00-3.23 0l-34.39 21.82a3 3 0 01-4.22-1 3.2 3.2 0 01-.37-2.4l9.71-40.13a3.17 3.17 0 00-1-3.14l-31-26.64a3.17 3.17 0 01-.37-4.4 3.07 3.07 0 012.12-1.1l40.39-3A3.08 3.08 0 00271 693l15.26-38.29a3 3 0 014-1.72 3.13 3.13 0 011.65 1.71z"/><path class="cls-3" d="M405.07 833.15a51 51 0 00-51 51v74.45a4.46 4.46 0 004.46 4.46h182.79a4.46 4.46 0 004.46-4.46v-74.47a51 51 0 00-51-51zM606.32 783.05A42.36 42.36 0 00564 825.4v133.18a4.46 4.46 0 004.46 4.45h75.8a4.46 4.46 0 004.46-4.45V825.4a42.36 42.36 0 00-42.36-42.35M450.79 820.31a56.71 56.71 0 1156.71-56.71 56.71 56.71 0 01-56.71 56.71M608.68 657.1l15.26 38.29a3.08 3.08 0 002.61 1.94l40.39 3a3.11 3.11 0 012.83 3.34 3.18 3.18 0 01-1.08 2.17l-31 26.64a3.17 3.17 0 00-1 3.14l9.71 40.13a3.14 3.14 0 01-2.24 3.78 3 3 0 01-2.35-.38l-34.39-21.83a3 3 0 00-3.23 0l-34.38 21.83a3 3 0 01-4.22-1 3.18 3.18 0 01-.37-2.39l9.7-40.13a3.16 3.16 0 00-1-3.14l-31-26.64a3.17 3.17 0 01-.37-4.4 3 3 0 012.12-1.11l40.39-3a3.08 3.08 0 002.61-1.94L603 657.1a3 3 0 014-1.72 3.08 3.08 0 011.68 1.72z"/><path class="cls-1" d="M832.68 716.1l15.26 38.29a3.08 3.08 0 002.61 1.94l40.39 3a3.11 3.11 0 012.83 3.34 3.18 3.18 0 01-1.08 2.17l-31 26.64a3.17 3.17 0 00-1 3.14l9.71 40.13a3.14 3.14 0 01-2.24 3.78 3 3 0 01-2.35-.38l-34.39-21.83a3 3 0 00-3.23 0l-34.38 21.83a3 3 0 01-4.22-1 3.18 3.18 0 01-.37-2.39l9.7-40.13a3.16 3.16 0 00-1-3.14l-31-26.64a3.17 3.17 0 01-.37-4.4 3 3 0 012.12-1.11l40.39-3a3.08 3.08 0 002.61-1.94L827 716.1a3 3 0 014-1.72 3.08 3.08 0 011.68 1.72z"/></svg>