<svg width="1000" height="1000" viewBox="0 0 1000 1000" fill="none" xmlns="http://www.w3.org/2000/svg">
  <path d="M318 178.8v-1.4V44.9004H182.6C110.7 46.4004 52.8 105.1 52.8 177.4c0 28.7 9.1 55.2 24.6 76.9L34 297.7l33.5 33.5 43.9-43.9c21.1 14.3 46.6 22.6 74.1 22.6 71.6 0 129.9-56.7 132.5-127.7h.1v-3.4h-.1zM617.5 43.2002l-35 35c-24.2-24.1-57.5-39-94.2-39-66.3 0-121.5 48.6-131.8 112.0998h67.4c9-27 34.4-46.4 64.4-46.4 18.6 0 35.5 7.6 47.8 19.8l-35.4 35.4c-1.8 1.8-.5 4.8 2 4.8h116.8c1.6 0 2.8-1.3 2.8-2.8V45.2002c0-2.5-3.1-3.8-4.8-2zM488.2 240.6c-18.8 0-35.8-7.7-48.1-20.1l34.6-34.6c1.8-1.8.5-4.8-2-4.8h-51.8v-.3H355c0 .3.1.6.1.9-.6.5-1 1.3-1 2.2v115.9c0 2.5 3 3.8 4.8 2l34.9-34.9c24.2 24.3 57.6 39.3 94.5 39.3 65.4 0 119.9-47.3 131.3-109.4h-67.9c-9.8 25.6-34.5 43.8-63.5 43.8zM812.4 133.3c-22.8 0-41.3 18.5-41.3 41.3v129.9c0 2.4 1.9 4.3 4.4 4.3h73.9c2.4 0 4.4-1.9 4.4-4.3V174.6c-.1-22.8-18.6-41.3-41.4-41.3zM879.7 195.8h73.9c2.4 0 4.4-2 4.4-4.3V34.5002c0-2.4-1.9-4.3-4.4-4.3h-73.9c-2.4 0-4.4 1.9-4.4 4.3V191.5c.1 2.4 2 4.3 4.4 4.3zM917 219.3c-26.6 0-48.1 21.5-48.1 48.1s21.5 48.1 48.1 48.1 48.1-21.5 48.1-48.1-21.5-48.1-48.1-48.1zM707.2 133.3c-22.8 0-41.3 18.5-41.3 41.3v129.9c0 2.4 1.9 4.3 4.3 4.3h73.9c2.4 0 4.3-1.9 4.3-4.3V174.6c.1-22.8-18.4-41.3-41.2-41.3zM707.2 24c-26.6 0-48.1 21.5-48.1 48.1s21.5 48.1 48.1 48.1 48.1-21.5 48.1-48.1c0-26.5-21.5-48.1-48.1-48.1zM812.4 24c-26.6 0-48.1 21.5-48.1 48.1s21.5 48.1 48.1 48.1 48.1-21.5 48.1-48.1c0-26.5-21.6-48.1-48.1-48.1z" fill="#242424"/>
</svg>
