<svg viewBox="0 0 1000 1000" fill="none" xmlns="http://www.w3.org/2000/svg"><path d="M373.58 401.2l-36.17 24.86-84.89-123.52a3.607 3.607 0 00-5-.93l-1.5 1a4.09 4.09 0 00-.9.43L177 349.87l-59.61-86.73a3.607 3.607 0 00-5-.93l-67.54 46.43a3.61 3.61 0 00-.93 5l108.37 157.7a3.62 3.62 0 005 .93l67.55-46.43c.537-.37.959-.883 1.22-1.48l1.33-.91 36.51 53.12-33.46 23c-1.64 1.13-1.38 2.34.58 2.71l118.66 22a3.602 3.602 0 004.2-2.89l22-118.66c.38-1.98-.66-2.66-2.3-1.53z" fill="#744DFA"/><path d="M747.78 303c1 1.5 3.76 2.2 3.76 2.2l72.8 19.47a5.086 5.086 0 004.1-.21c1.34-.84 2.32-5.89 2.88-7.27 6.34-15.65 19.54-8.53 67.43-22.41 29.91-8.65 51.21-18.3 60.59-53.41 13.36-50-21-105.71-103.39-127.74-75.48-20.18-127.75-.41-164.76 41.8-2 2.25-3.4 4.43-3.08 7.12.32 2.69 4.25 5.18 4.25 5.18l50.39 38.76s4 2.87 6.5 2.36c2.5-.51 3.06-1.53 4.76-3.37 23-24.89 47.25-32.23 80.75-23.27 29.31 7.84 43.19 23.58 39.62 36.92-4.8 18-20 15.38-46.51 22.09-41.87 10.64-67.41 8.78-78.45 50.09l-1.85 6.9s-.83 3.25.21 4.74v.05zM760 418.38a47.467 47.467 0 0049.937-16.984 47.469 47.469 0 00-68.997-64.548A47.472 47.472 0 00760 418.38" fill="#FF523D"/><path d="M598.66 833.15a51 51 0 0151 51v74.45a4.46 4.46 0 01-4.45 4.46h-182.8a4.461 4.461 0 01-4.45-4.46v-74.47a51 51 0 0151-51l89.7.02zm-201.25-50.1a42.337 42.337 0 0129.952 12.4 42.349 42.349 0 0112.408 29.95v133.18a4.461 4.461 0 01-4.46 4.45h-75.79a4.46 4.46 0 01-4.46-4.45V825.4a42.35 42.35 0 0142.35-42.35zm0-13.38a49.316 49.316 0 0045.574-30.442 49.319 49.319 0 00-64.443-64.442A49.317 49.317 0 00348.1 720.36a49.32 49.32 0 0049.31 49.31zM553 820.31a56.707 56.707 0 0040.1-96.81 56.706 56.706 0 00-61.802-12.293 56.719 56.719 0 00-25.451 20.886 56.715 56.715 0 00-9.557 31.507A56.721 56.721 0 00553 820.31zm-374.25-33.19a41.34 41.34 0 0141.33 41.33v129.92a4.349 4.349 0 01-4.35 4.35h-73.95a4.349 4.349 0 01-4.35-4.35V828.45a41.327 41.327 0 0141.32-41.33zm-105.16 0a41.327 41.327 0 0141.32 41.33v129.92a4.349 4.349 0 01-4.35 4.35H36.61a4.349 4.349 0 01-4.35-4.35V828.45a41.339 41.339 0 0141.33-41.33zm0-13.05a48.114 48.114 0 0044.452-29.709 48.115 48.115 0 00-10.447-52.434 48.114 48.114 0 00-52.444-10.404A48.113 48.113 0 0025.48 726a48.112 48.112 0 0048.11 48.11v-.04zm105.16 0a48.107 48.107 0 0044.459-29.702 48.115 48.115 0 00-35.084-65.598A48.108 48.108 0 00130.65 726a48.101 48.101 0 0048.1 48.11v-.04zm104.95 80a41.322 41.322 0 0141.3 41.32v62.66a4.348 4.348 0 01-1.271 3.079 4.345 4.345 0 01-3.079 1.271h-73.92a4.363 4.363 0 01-4.019-2.686 4.356 4.356 0 01-.331-1.664v-62.66a41.32 41.32 0 0141.32-41.32zm0-13.07a48.12 48.12 0 10.02-96.239A48.12 48.12 0 00283.7 841zm541.05-53.88a41.34 41.34 0 0141.33 41.33v129.92a4.337 4.337 0 01-1.274 3.076 4.363 4.363 0 01-3.076 1.274h-74a4.349 4.349 0 01-4.35-4.35V828.45a41.327 41.327 0 0141.32-41.33h.05zm-105.16 0a41.327 41.327 0 0141.32 41.33v129.92a4.349 4.349 0 01-4.35 4.35h-73.95a4.349 4.349 0 01-4.35-4.35V828.45a41.342 41.342 0 0141.33-41.33zm0-13.05a48.114 48.114 0 0044.452-29.709 48.115 48.115 0 00-10.447-52.434 48.115 48.115 0 00-52.444-10.404A48.115 48.115 0 00671.48 726a48.114 48.114 0 0048.11 48.11v-.04zm105.16 0a48.107 48.107 0 0044.459-29.702 48.115 48.115 0 00-35.084-65.598A48.108 48.108 0 00776.65 726a48.101 48.101 0 0048.1 48.11v-.04zm104.95 80a41.322 41.322 0 0141.3 41.32v62.66a4.348 4.348 0 01-1.271 3.079 4.345 4.345 0 01-3.079 1.271h-73.92a4.363 4.363 0 01-4.019-2.686 4.356 4.356 0 01-.331-1.664v-62.66a41.32 41.32 0 0141.32-41.32zm0-13.07a48.12 48.12 0 10.02-96.239A48.12 48.12 0 00929.7 841M100.018 127.187l24.554-5.512c23.556-5.288 34.904-21.99 29.728-45.047-5.109-22.757-22.23-33.172-45.985-27.84l-24.654 5.535 16.357 72.864zm7.987-11.124L95.636 60.966l15.072-3.384c17.268-3.876 29.268 3.81 33.189 21.277 3.966 17.667-3.552 29.944-20.82 33.82l-15.072 3.384zm66.678-5.638l9.981-2.24-16.357-72.864-9.981 2.24 16.357 72.864zm25.733-5.777l52.601-11.808-1.994-8.883-42.62 9.567-5.423-24.154 37.53-8.425-1.904-8.484-37.53 8.425-5.042-22.458 41.722-9.366-1.994-8.884-51.703 11.607 16.357 72.863zM282.247 187.166l-5.109 32.189-41.544-6.595 5.11-32.189-10.06-1.596-11.656 73.431 10.059 1.596 5.126-32.289 41.543 6.595-5.125 32.289 10.059 1.597 11.656-73.431-10.059-1.597zm14.345 77.559l53.011 8.415 1.421-8.953-42.952-6.818 3.864-24.343 37.822 6.004 1.358-8.55-37.822-6.004 3.592-22.633 42.047 6.675 1.421-8.953-52.106-8.271-11.656 73.431zm125.638-3.981c-.137-6.931-3.824-11.642-10.637-13.548 9.727-.209 16.197-5.885 17.714-15.441 2.108-13.278-5.663-22.143-21.255-24.618l-33.496-5.318-11.657 73.431 10.059 1.597 4.87-30.68 21.527 3.417c8.248 1.31 12.787 5.846 12.671 12.427-.123 7.922-.827 14.307-.24 21l11.467 1.82.048-.302c-1.831-7.303-1.063-14.09-1.071-23.785zm-20.512-19.55l-22.532-3.577 4.039-25.449 23.438 3.72c9.053 1.437 13.316 7.064 12.103 14.709-1.326 8.349-7.593 12.098-17.048 10.597zm82.173 53.263l10.764 1.709-14.799-77.631-13.479-2.14-38.213 69.216 10.562 1.676 10.166-19.217 31.284 4.966 3.715 21.421zm-30.724-34.474l18.683-35.191 6.766 39.231-25.449-4.04zm79.027 43.689c18.609 2.954 30.619-5.143 33.51-23.35l7.457-46.976-10.059-1.596-7.426 46.774c-2.043 12.876-9.471 18.09-22.045 16.094-12.574-1.996-18.122-9.27-16.078-22.146l7.425-46.774-10.059-1.597-7.457 46.976c-2.891 18.207 6.022 29.625 24.732 32.595zm72.479 11.505c16.598 2.635 29.168-4.445 31.276-17.723 1.661-10.461-4.247-18.721-17.146-23.862l-10.851-4.404c-9.692-3.91-13.305-7.784-12.395-13.518 1.086-6.84 7.776-10.006 17.231-8.505 9.053 1.437 16.092 6.473 19.67 14.466l9.444-4.276c-4.852-10.36-14.531-16.95-26.401-18.834-16.094-2.555-28.167 3.985-30.131 16.357-1.549 9.758 4.036 17.45 16.062 22.247l10.851 4.404c10.767 4.287 14.433 8.478 13.411 14.916-1.23 7.746-8.651 11.621-18.912 9.992-11.064-1.757-18.519-8.715-20.946-19.413l-9.71 4.646c3.395 12.399 13.962 21.192 28.547 23.507zm41.343-19.115l29.272 4.646 1.325-8.349-29.271-4.646-1.326 8.349zM349.014 558.193l-1.807-8.883-50.801 10.336 14.823 72.858 9.981-2.031-6.193-30.441 36.828-7.492-1.726-8.484-36.828 7.493-5.097-25.051 40.82-8.305zm55.1 56.972c20.959-4.264 32.981-23.34 28.513-45.297-4.426-21.758-23.186-34.779-43.945-30.555-20.859 4.244-33.04 23.56-28.613 45.317 4.467 21.957 22.986 34.819 44.045 30.535zm-1.827-8.983c-15.171 3.087-28.246-6.517-31.739-23.684-3.472-17.067 4.891-31.136 19.961-34.203 15.071-3.066 28.266 6.618 31.739 23.685 3.492 17.166-4.791 31.116-19.961 34.202zm100.457-36.756c-2.558-6.443-7.662-9.562-14.711-8.96 9.037-3.605 13.106-11.189 11.177-20.67-2.68-13.175-13.065-18.753-28.535-15.606l-33.235 6.762 14.823 72.858 9.98-2.031-6.193-30.44 21.358-4.346c8.184-1.665 14.026.993 16.224 7.197 2.661 7.462 4.24 13.689 7.136 19.751l11.378-2.314-.061-.3c-4.275-6.198-5.935-12.824-9.341-21.901zm-26.064-11.119l-22.356 4.548-5.137-25.25 23.254-4.732c8.983-1.827 14.948 1.948 16.491 9.533 1.685 8.284-2.87 13.992-12.252 15.901zm47.025 30.968l24.553-4.995c23.554-4.793 35.184-21.19 30.494-44.245-4.63-22.756-21.464-33.466-45.218-28.634l-24.652 5.016 14.823 72.858zm8.174-10.913l-11.209-55.093 15.071-3.066c17.266-3.513 29.057 4.378 32.611 21.844 3.594 17.665-4.136 29.736-21.403 33.248l-15.07 3.067zm66.485-4.277l52.598-10.701-1.807-8.882-42.617 8.67-4.914-24.153 37.527-7.635-1.726-8.483-37.527 7.635-4.569-22.457 41.719-8.487-1.807-8.883-51.7 10.518 14.823 72.858zm116.272-47.769c-2.559-6.443-7.662-9.562-14.711-8.959 9.036-3.606 13.106-11.19 11.177-20.671-2.681-13.174-13.066-18.753-28.536-15.605l-33.235 6.761 14.823 72.858 9.981-2.03-6.194-30.441 21.359-4.345c8.184-1.665 14.025.992 16.223 7.197 2.661 7.461 4.24 13.688 7.137 19.751l11.377-2.315-.061-.3c-4.275-6.198-5.935-12.824-9.34-21.901zm-26.064-11.119l-22.357 4.549-5.137-25.251 23.255-4.731c8.982-1.828 14.947 1.947 16.49 9.533 1.686 8.284-2.869 13.991-12.251 15.9zm75.774 26.678c18.464-3.757 26.874-15.549 23.199-33.614l-9.483-46.609-9.981 2.03 9.443 46.41c2.599 12.775-2.53 20.262-15.006 22.801-12.475 2.538-20.222-2.33-22.821-15.105l-9.442-46.41-9.98 2.031 9.482 46.609c3.676 18.065 16.025 25.634 34.589 21.857zm43.863-10.483l9.881-2.01-9.158-45.013c-.833-4.092-1.828-8.982-2.841-13.453l.299-.061c3.348 3.684 5.813 6.093 12.546 12.622l38.677 37.864 11.278-2.295-14.823-72.858-9.881 2.01 9.198 45.212c1.381 6.787 1.929 9.482 2.801 13.254l-.3.061c-3.427-3.564-6.855-7.128-12.305-12.463l-38.917-38.023-11.278 2.295 14.823 72.858zm98.401-59.204l1.766 8.683 27.247-5.543.223 1.097c2.275 11.179-6.476 22.833-19.55 25.493-14.971 3.046-28.706-6.736-32.198-23.903-3.473-17.066 5.589-31.278 20.26-34.263 12.376-2.518 21.102 2.566 26.718 9.739l8.406-7.219c-8.642-9.779-20.284-14.894-36.353-11.625-21.258 4.326-33.999 23.443-29.45 45.8 4.487 22.057 22.826 34.54 43.585 30.316 10.679-2.172 18.948-8.532 22.757-16.374l1.99 9.781 8.982-1.828-7.655-37.626-36.728 7.472z" fill="#242424"/></svg>