<svg width="1000" height="1000" viewBox="0 0 1000 1000" fill="none" xmlns="http://www.w3.org/2000/svg">
<path d="M825.3 788.6C802.5 788.6 784 807.1 784 829.9V959.8C784 962.2 785.9 964.1 788.4 964.1H862.3C864.7 964.1 866.7 962.2 866.7 959.8V829.9C866.6 807.1 848.1 788.6 825.3 788.6Z" fill="#7D47FF"/>
<path d="M892.6 851.1H966.5C968.9 851.1 970.9 849.1 970.9 846.8V689.8C970.9 687.4 969 685.5 966.5 685.5H892.6C890.2 685.5 888.2 687.4 888.2 689.8V846.8C888.3 849.2 890.2 851.1 892.6 851.1Z" fill="#7D47FF"/>
<path d="M929.9 874.6C903.3 874.6 881.8 896.1 881.8 922.7C881.8 949.3 903.3 970.8 929.9 970.8C956.5 970.8 978 949.3 978 922.7C978 896.1 956.5 874.6 929.9 874.6Z" fill="#7D47FF"/>
<path d="M720.1 788.6C697.3 788.6 678.8 807.1 678.8 829.9V959.8C678.8 962.2 680.7 964.1 683.1 964.1H757C759.4 964.1 761.3 962.2 761.3 959.8V829.9C761.4 807.1 742.9 788.6 720.1 788.6Z" fill="#7D47FF"/>
<path d="M720.1 679.3C693.5 679.3 672 700.8 672 727.4C672 754 693.5 775.5 720.1 775.5C746.7 775.5 768.2 754 768.2 727.4C768.2 700.9 746.7 679.3 720.1 679.3Z" fill="#7D47FF"/>
<path d="M825.3 679.3C798.7 679.3 777.2 700.8 777.2 727.4C777.2 754 798.7 775.5 825.3 775.5C851.9 775.5 873.4 754 873.4 727.4C873.4 700.9 851.8 679.3 825.3 679.3Z" fill="#7D47FF"/>
<path d="M598.7 833.1C626.9 833.1 649.7 855.9 649.7 884.1V958.5C649.7 961 647.7 963 645.2 963H462.4C459.9 963 457.9 961 457.9 958.5V884.1C457.9 855.9 480.7 833.1 508.9 833.1H598.7Z" fill="#242424"/>
<path d="M397.4 783C420.8 783 439.8 802 439.8 825.4V958.6C439.8 961.1 437.8 963.1 435.3 963.1H359.5C357 963.1 355 961.1 355 958.6V825.4C355.1 802 374 783 397.4 783Z" fill="#242424"/>
<path d="M397.4 769.7C424.6 769.7 446.7 747.6 446.7 720.4C446.7 693.2 424.6 671.1 397.4 671.1C370.2 671.1 348.1 693.2 348.1 720.4C348.1 747.6 370.2 769.7 397.4 769.7Z" fill="#242424"/>
<path d="M552.9 820.3C584.2 820.3 609.6 794.9 609.6 763.6C609.6 732.3 584.2 706.9 552.9 706.9C521.6 706.9 496.2 732.3 496.2 763.6C496.2 794.9 521.6 820.3 552.9 820.3Z" fill="#242424"/>
<path d="M178.8 787.1C201.6 787.1 220.1 805.6 220.1 828.4V958.3C220.1 960.7 218.2 962.6 215.8 962.6H141.9C139.5 962.6 137.6 960.7 137.6 958.3V828.4C137.4 805.6 155.9 787.1 178.8 787.1Z" fill="#00F2A0"/>
<path d="M73.6 787.1C96.4 787.1 114.9 805.6 114.9 828.4V958.3C114.9 960.7 113 962.6 110.6 962.6H36.6C34.2 962.6 32.3 960.7 32.3 958.3V828.4C32.3 805.6 50.8 787.1 73.6 787.1Z" fill="#00F2A0"/>
<path d="M73.6 774.1C100.2 774.1 121.7 752.6 121.7 726C121.7 699.4 100.2 677.9 73.6 677.9C47 677.9 25.5 699.4 25.5 726C25.5 752.5 47 774.1 73.6 774.1Z" fill="#00F2A0"/>
<path d="M178.8 774.1C205.4 774.1 226.9 752.6 226.9 726C226.9 699.4 205.4 677.9 178.8 677.9C152.2 677.9 130.7 699.4 130.7 726C130.6 752.5 152.2 774.1 178.8 774.1Z" fill="#00F2A0"/>
<path d="M283.7 854.1C306.5 854.1 325 872.6 325 895.4V958.1C325 960.5 323.1 962.4 320.7 962.4H246.8C244.4 962.4 242.5 960.5 242.5 958.1V895.4C242.4 872.6 260.9 854.1 283.7 854.1Z" fill="#00F2A0"/>
<path d="M283.7 841C310.3 841 331.8 819.5 331.8 792.9C331.8 766.3 310.3 744.8 283.7 744.8C257.1 744.8 235.6 766.3 235.6 792.9C235.6 819.5 257.1 841 283.7 841Z" fill="#00F2A0"/>
</svg>
