<svg width="1000" height="1000" viewBox="0 0 1000 1000" fill="none" xmlns="http://www.w3.org/2000/svg">
  <path d="M825.3 141.5c-22.8 0-41.3 18.5-41.3 41.3v129.9c0 2.4 1.9 4.3 4.4 4.3h73.9c2.4 0 4.4-1.9 4.4-4.3V182.8c-.1-22.8-18.6-41.3-41.4-41.3zM892.6 204h73.9c2.4 0 4.4-2 4.4-4.3V42.6999c0-2.4-1.9-4.3-4.4-4.3h-73.9c-2.4 0-4.4 1.9-4.4 4.3V199.7c.1 2.4 2 4.3 4.4 4.3zM929.9 227.5c-26.6 0-48.1 21.5-48.1 48.1s21.5 48.1 48.1 48.1 48.1-21.5 48.1-48.1-21.5-48.1-48.1-48.1zM720.1 141.5c-22.8 0-41.3 18.5-41.3 41.3v129.9c0 2.4 1.9 4.3 4.3 4.3H757c2.4 0 4.3-1.9 4.3-4.3V182.8c.1-22.8-18.4-41.3-41.2-41.3zM720.1 32.1997c-26.6 0-48.1 21.5-48.1 48.1C672 106.9 693.5 128.4 720.1 128.4s48.1-21.5 48.1-48.1003c0-26.5-21.5-48.1-48.1-48.1zM825.3 32.1997c-26.6 0-48.1 21.5-48.1 48.1 0 26.6003 21.5 48.1003 48.1 48.1003s48.1-21.5 48.1-48.1003c0-26.5-21.6-48.1-48.1-48.1z" fill="#7D47FF"/>
  <path d="M598.7 186c28.2 0 51 22.8 51 51v74.4c0 2.5-2 4.5-4.5 4.5H462.4c-2.5 0-4.5-2-4.5-4.5V237c0-28.2 22.8-51 51-51h89.8zM397.4 135.9c23.4 0 42.4 19 42.4 42.4v133.2c0 2.5-2 4.5-4.5 4.5h-75.8c-2.5 0-4.5-2-4.5-4.5V178.3c.1-23.4 19-42.4 42.4-42.4zM397.4 122.6c27.2 0 49.3-22.1 49.3-49.3 0-27.2-22.1-49.3-49.3-49.3-27.2 0-49.3 22.1-49.3 49.3 0 27.2 22.1 49.3 49.3 49.3zM552.9 173.2c31.3 0 56.7-25.4 56.7-56.7 0-31.3002-25.4-56.7002-56.7-56.7002-31.3 0-56.7 25.4-56.7 56.7002 0 31.3 25.4 56.7 56.7 56.7z" fill="#242424"/>
  <path d="M178.8 140c22.8 0 41.3 18.5 41.3 41.3v129.9c0 2.4-1.9 4.3-4.3 4.3h-73.9c-2.4 0-4.3-1.9-4.3-4.3V181.3c-.2-22.8 18.3-41.3 41.2-41.3zM73.6 140c22.8 0 41.3 18.5 41.3 41.3v129.9c0 2.4-1.9 4.3-4.3 4.3h-74c-2.4 0-4.3-1.9-4.3-4.3V181.3c0-22.8 18.5-41.3 41.3-41.3zM73.6 127c26.6 0 48.1-21.5 48.1-48.1002 0-26.6-21.5-48.1-48.1-48.1s-48.1 21.5-48.1 48.1C25.5 105.4 47 127 73.6 127zM178.8 127c26.6 0 48.1-21.5 48.1-48.1002 0-26.6-21.5-48.1-48.1-48.1s-48.1 21.5-48.1 48.1C130.6 105.4 152.2 127 178.8 127zM283.7 207c22.8 0 41.3 18.5 41.3 41.3V311c0 2.4-1.9 4.3-4.3 4.3h-73.9c-2.4 0-4.3-1.9-4.3-4.3v-62.7c-.1-22.8 18.4-41.3 41.2-41.3zM283.7 193.9c26.6 0 48.1-21.5 48.1-48.1s-21.5-48.1003-48.1-48.1003S235.6 119.2 235.6 145.8c0 26.6 21.5 48.1 48.1 48.1z" fill="#00F2A0"/>
</svg>
