<svg width="1000" height="1000" viewBox="0 0 1000 1000" fill="none" xmlns="http://www.w3.org/2000/svg">
<path d="M954.6 413.8L920.1 448.3C896.3 424.6 863.5 409.8 827.3 409.8C761.9 409.8 707.6 457.7 697.5 520.3H763.9C772.8 493.7 797.8 474.5 827.3 474.5C845.7 474.5 862.3 481.9 874.4 494L839.5 528.9C837.8 530.6 839 533.6 841.5 533.6H956.6C958.1 533.6 959.4 532.4 959.4 530.8V415.8C959.4 413.3 956.4 412.1 954.6 413.8Z" fill="#7D47FF"/>
<path d="M827.3 608.3C808.8 608.3 792 600.7 779.9 588.5L814 554.4C815.7 552.7 814.5 549.7 812 549.7H761C761 549.6 761 549.5 761 549.4H696C696 549.7 696.1 550 696.1 550.3C695.5 550.8 695.1 551.6 695.1 552.4V666.6C695.1 669.1 698.1 670.3 699.8 668.6L734.2 634.2C758 658.1 790.9 673 827.3 673C891.7 673 945.5 626.4 956.7 565.2H889.8C880.2 590.3 855.8 608.3 827.3 608.3Z" fill="#7D47FF"/>
<path d="M546 818.7L609.5 761.7L539.5 683.8L429.2 783L461.4 818.7H546Z" fill="#7D47FF"/>
<path d="M645.8 834.4H364.8V971.5H645.8V834.4Z" fill="#7D47FF"/>
<path d="M833 807.6C811.7 807.6 794.5 824.9 794.5 846.1V967.2C794.5 969.4 796.3 971.3 798.6 971.3H867.5C869.7 971.3 871.6 969.5 871.6 967.2V846.1C871.6 824.8 854.3 807.6 833 807.6Z" fill="#242424"/>
<path d="M895.9 865.9H964.8C967 865.9 968.9 864.1 968.9 861.8V715.4C968.9 713.2 967.1 711.3 964.8 711.3H895.9C893.7 711.3 891.8 713.1 891.8 715.4V861.8C891.8 864 893.6 865.9 895.9 865.9Z" fill="#242424"/>
<path d="M930.6 887.7C905.8 887.7 885.7 907.8 885.7 932.6C885.7 957.4 905.8 977.5 930.6 977.5C955.4 977.5 975.5 957.4 975.5 932.6C975.5 907.8 955.4 887.7 930.6 887.7Z" fill="#242424"/>
<path d="M735 807.6C713.7 807.6 696.5 824.9 696.5 846.1V967.2C696.5 969.4 698.3 971.3 700.6 971.3H769.5C771.7 971.3 773.6 969.5 773.6 967.2V846.1C773.5 824.8 756.3 807.6 735 807.6Z" fill="#242424"/>
<path d="M735 705.7C710.2 705.7 690.1 725.8 690.1 750.6C690.1 775.4 710.2 795.5 735 795.5C759.8 795.5 779.9 775.4 779.9 750.6C779.8 725.7 759.8 705.7 735 705.7Z" fill="#242424"/>
<path d="M833 705.7C808.2 705.7 788.1 725.8 788.1 750.6C788.1 775.4 808.2 795.5 833 795.5C857.8 795.5 877.9 775.4 877.9 750.6C877.9 725.7 857.8 705.7 833 705.7Z" fill="#242424"/>
<path d="M170.6 850.9H86.9C60.6 850.9 39.4 872.2 39.4 898.4V967.8C39.4 970.1 41.3 972 43.6 972H214C216.3 972 218.2 970.1 218.2 967.8V898.4C218.1 872.2 196.9 850.9 170.6 850.9Z" fill="#242424"/>
<path d="M274.6 804.2C252.8 804.2 235.1 821.9 235.1 843.7V967.9C235.1 970.2 237 972.1 239.3 972.1H310C312.3 972.1 314.2 970.2 314.2 967.9V843.7C314.1 821.8 296.4 804.2 274.6 804.2Z" fill="#242424"/>
<path d="M274.6 791.7C300.005 791.7 320.6 771.105 320.6 745.7C320.6 720.295 300.005 699.7 274.6 699.7C249.195 699.7 228.6 720.295 228.6 745.7C228.6 771.105 249.195 791.7 274.6 791.7Z" fill="#242424"/>
<path d="M129.6 838.9C158.816 838.9 182.5 815.216 182.5 786C182.5 756.784 158.816 733.1 129.6 733.1C100.384 733.1 76.7001 756.784 76.7001 786C76.7001 815.216 100.384 838.9 129.6 838.9Z" fill="#242424"/>
</svg>
