<svg width="1000" height="1000" viewBox="0 0 1000 1000" fill="none" xmlns="http://www.w3.org/2000/svg">
<path d="M895.3 694.5C893.1 694.5 891.3 696.3 891.3 698.5V853.2C891.3 855.4 893.1 857.2 895.3 857.2H964C966.2 857.2 968 855.4 968 853.2V698.5C968 696.3 966.2 694.5 964 694.5H895.3Z" fill="#00F2A0"/>
<path d="M929.9 968.3C954.6 968.3 974.6 948.3 974.6 923.6C974.6 898.9 954.6 878.9 929.9 878.9C905.2 878.9 885.2 898.9 885.2 923.6C885.2 948.3 905.2 968.3 929.9 968.3Z" fill="#00F2A0"/>
<path d="M797.2 694.5C795 694.5 793.2 696.3 793.2 698.5V853.2C793.2 855.4 795 857.2 797.2 857.2H865.9C868.1 857.2 869.9 855.4 869.9 853.2V698.5C869.9 696.3 868.1 694.5 865.9 694.5H797.2Z" fill="#00F2A0"/>
<path d="M831.8 968.3C856.5 968.3 876.5 948.3 876.5 923.6C876.5 898.9 856.5 878.9 831.8 878.9C807.1 878.9 787.1 898.9 787.1 923.6C787.1 948.3 807.1 968.3 831.8 968.3Z" fill="#00F2A0"/>
<path d="M700.4 694.5C698.2 694.5 696.4 696.3 696.4 698.5V853.2C696.4 855.4 698.2 857.2 700.4 857.2H769.1C771.3 857.2 773.1 855.4 773.1 853.2V698.5C773.1 696.3 771.3 694.5 769.1 694.5H700.4Z" fill="#00F2A0"/>
<path d="M735 968.3C759.7 968.3 779.7 948.3 779.7 923.6C779.7 898.9 759.7 878.9 735 878.9C710.3 878.9 690.3 898.9 690.3 923.6C690.3 948.3 710.3 968.3 735 968.3Z" fill="#00F2A0"/>
<path d="M45.2998 420.2H79.8998C113.2 420.2 132.9 439.2 132.9 471.1C132.9 503.4 112.7 522.3 79.6998 522.3H45.2998V420.2ZM80.3998 509.9C104.6 509.9 118.3 495.8 118.3 471C118.3 446.5 104.6 432.7 80.3998 432.7H59.2998V510H80.3998V509.9Z" fill="#242424"/>
<path d="M151.4 420.2H165.4V522.4H151.4V420.2Z" fill="#242424"/>
<path d="M188.9 420.2H261.4V432.7H202.9V464.2H255.5V476.1H202.9V510H262.7V522.5H188.9V420.2V420.2Z" fill="#242424"/>
<path d="M359.2 723.3H373.2V813H429.9V825.5H359.2V723.3Z" fill="#242424"/>
<path d="M442 774.4C442 743.9 463.7 721.2 492.9 721.2C522 721.2 543.7 743.9 543.7 774.4C543.7 805.2 522.3 827.6 492.9 827.6C463.4 827.6 442 805.2 442 774.4ZM529.2 774.4C529.2 750.5 514.1 733.8 493 733.8C471.9 733.8 456.8 750.5 456.8 774.4C456.8 798.5 471.8 815 493 815C514.2 815 529.2 798.5 529.2 774.4ZM473.1 693.3H486.8V711.1H473.1V693.3ZM499.2 693.3H513V711.1H499.3V693.3H499.2Z" fill="#242424"/>
<path d="M562.9 801.8L575.1 793.4C580.7 807.4 592.3 815.2 607.7 815.2C622 815.2 631.2 808.3 631.2 797.6C631.2 788.6 625.3 783.7 609.8 780.2L594.1 776.6C576.7 772.7 567.5 763.4 567.5 749.9C567.5 732.7 582.5 721.2 604.9 721.2C621.4 721.2 636 728.1 644.8 741.1L632.9 748.9C626.3 738.8 615.7 733.5 603.1 733.5C589.9 733.5 581.5 739.2 581.5 748.8C581.5 756.8 587.2 761.3 601.2 764.5L616.9 768.1C635.5 772.3 645.3 782.2 645.3 796.8C645.3 815.3 629.8 827.6 606.7 827.6C586.4 827.6 570.2 817.9 562.9 801.8Z" fill="#242424"/>
<path d="M358.5 924.4V859H372.5V924.1C372.5 942 381.6 950.7 399.1 950.7C416.6 950.7 425.6 942 425.6 924.1V859H439.6V924.4C439.6 949.7 425 963.3 399.2 963.3C373 963.3 358.5 949.7 358.5 924.4Z" fill="#242424"/>
<path d="M457 859H472.8L514.8 920.9C520.7 929.6 524.3 935.3 528 941.1H528.4C528.3 935.8 528.3 932 528.3 922.5V859H542.2V961.2H526.4L484.7 899.6C477.4 889 474.8 885 471.3 879.2H470.9C471 885.5 471 892.4 471 898.1V961.2H457V859Z" fill="#242424"/>
<path d="M653.2 908.4V961.2H640.6V947.5C633.3 957 620.4 963.3 605.5 963.3C576.4 963.3 555.1 941.5 555.1 910.5C555.1 879.2 577.5 856.9 607.3 856.9C629.8 856.9 644.1 867 653.1 882.5L639.8 889.9C634.2 878.7 623.8 869.5 606.5 869.5C585.9 869.5 569.8 886.2 569.8 910.1C569.8 934.2 585.6 951.1 606.6 951.1C624.9 951.1 639.9 937.8 639.9 922.1V920.6H601.7V908.4H653.2V908.4Z" fill="#242424"/>
<path d="M633.5 403.2L599.2 437.5C575.5 413.9 542.9 399.3 506.9 399.3C441.9 399.3 387.9 446.9 377.8 509.1H443.8C452.6 482.7 477.5 463.6 506.9 463.6C525.2 463.6 541.7 471 553.7 483L519 517.7C517.3 519.4 518.5 522.4 521 522.4H635.4C636.9 522.4 638.2 521.2 638.2 519.6V405.2C638.3 402.7 635.3 401.5 633.5 403.2Z" fill="#7D47FF"/>
<path d="M507 596.6C488.6 596.6 471.9 589.1 459.9 576.9L493.8 543C495.5 541.3 494.3 538.3 491.8 538.3H441C441 538.2 441 538.1 441 538H376.4C376.4 538.3 376.5 538.6 376.5 538.9C375.9 539.4 375.5 540.2 375.5 541V654.5C375.5 657 378.5 658.2 380.2 656.5L414.4 622.3C438.1 646.1 470.8 660.8 507 660.8C571.1 660.8 624.5 614.5 635.6 553.6H569.1C559.6 578.7 535.3 596.6 507 596.6Z" fill="#7D47FF"/>
<path d="M822.7 537.9H739.5C713.4 537.9 692.2 559.1 692.2 585.2V654.2C692.2 656.5 694.1 658.3 696.3 658.3H865.7C868 658.3 869.8 656.4 869.8 654.2V585.2C869.9 559.1 848.8 537.9 822.7 537.9Z" fill="#242424"/>
<path d="M926.1 491.5C904.4 491.5 886.8 509.1 886.8 530.8V654.3C886.8 656.6 888.7 658.4 890.9 658.4H961.2C963.5 658.4 965.3 656.5 965.3 654.3V530.7C965.3 509 947.7 491.5 926.1 491.5Z" fill="#242424"/>
<path d="M937.833 477.431C962.227 470.952 976.75 445.924 970.271 421.53C963.792 397.136 938.765 382.614 914.371 389.093C889.977 395.572 875.454 420.599 881.933 444.993C888.412 469.387 913.439 483.91 937.833 477.431Z" fill="#242424"/>
<path d="M781.9 526C810.95 526 834.5 502.45 834.5 473.4C834.5 444.35 810.95 420.8 781.9 420.8C752.85 420.8 729.3 444.35 729.3 473.4C729.3 502.45 752.85 526 781.9 526Z" fill="#242424"/>
<path d="M173.5 800.7C152.3 800.7 135.2 817.9 135.2 839V959.4C135.2 961.6 137 963.4 139.2 963.4H207.7C209.9 963.4 211.7 961.6 211.7 959.4V839C211.8 817.8 194.7 800.7 173.5 800.7Z" fill="#242424"/>
<path d="M271 800.7C249.8 800.7 232.7 817.9 232.7 839V959.4C232.7 961.6 234.5 963.4 236.7 963.4H305.2C307.4 963.4 309.2 961.6 309.2 959.4V839C309.3 817.8 292.1 800.7 271 800.7Z" fill="#242424"/>
<path d="M271 788.6C295.6 788.6 315.6 768.6 315.6 744C315.6 719.4 295.6 699.4 271 699.4C246.4 699.4 226.4 719.4 226.4 744C226.4 768.6 246.4 788.6 271 788.6Z" fill="#242424"/>
<path d="M173.5 699.4C148.9 699.4 128.9 719.4 128.9 744C128.9 768.6 148.9 788.6 173.5 788.6C198.1 788.6 218.1 768.6 218.1 744C218.1 719.4 198.1 699.4 173.5 699.4Z" fill="#242424"/>
<path d="M76.1999 862.7C54.9999 862.7 37.8999 879.9 37.8999 901V959.1C37.8999 961.3 39.6999 963.1 41.8999 963.1H110.4C112.6 963.1 114.4 961.3 114.4 959.1V901C114.5 879.9 97.3999 862.7 76.1999 862.7Z" fill="#242424"/>
<path d="M76.2001 761.4C51.6001 761.4 31.6001 781.4 31.6001 806C31.6001 830.6 51.6001 850.6 76.2001 850.6C100.8 850.6 120.8 830.6 120.8 806C120.8 781.4 100.8 761.4 76.2001 761.4Z" fill="#242424"/>
</svg>
