<svg width="1000" height="1000" viewBox="0 0 1000 1000" fill="none" xmlns="http://www.w3.org/2000/svg">
  <path d="M949.84 366.31l-35 35c-24.2-24.1-57.5-39-94.2-39-66.3 0-121.5 48.6-131.8 112.1h67.4c9-27 34.4-46.4 64.4-46.4 18.6 0 35.5 7.6 47.8 19.8l-35.4 35.4c-1.8 1.8-.5 4.8 2 4.8h116.8c1.6 0 2.8-1.3 2.8-2.8v-116.9c0-2.5-3.1-3.8-4.8-2zm-129.3 197.4c-18.8 0-35.8-7.7-48.1-20.1l34.6-34.6c1.8-1.8.5-4.8-2-4.8h-51.8v-.3h-65.9c0 .3.1.6.1.9-.6.5-1 1.3-1 2.2v115.9c0 2.5 3 3.8 4.8 2l34.9-34.9c24.2 24.3 57.6 39.3 94.5 39.3 65.4 0 119.9-47.3 131.3-109.4h-67.9c-9.8 25.6-34.5 43.8-63.5 43.8zM144.75 148.96v.32H124.6L81.9299 92.17l-16.5 16.81v40.29h-15.86V33.47h15.86v56l56.3101-56h19.51v.32L93.0399 81.54l51.7101 67.42zm84.71-31.73h-49.33l-10.95 32.04h-16.66l41.88-115.8h21.26l41.72 115.8H240.4l-10.94-32.04zm-4.6-13.48l-19.99-58.69-20.15 58.69h40.14zm50.92-70.28h17.92l47.59 70.11c6.66 9.83 10.79 16.34 14.91 22.84h.48c-.16-6.03-.16-10.31-.16-21.1V33.47h15.71v115.8H354.3l-47.27-69.8c-8.25-12.06-11.26-16.5-15.23-23.16h-.48c.16 7.14.16 14.91.16 21.42v71.54h-15.7V33.47zm125.47 0h39.18c37.75 0 60.12 21.57 60.12 57.74 0 36.64-22.84 58.06-60.28 58.06h-39.02V33.47zm39.82 101.69c27.44 0 42.99-16.02 42.99-44.1 0-27.76-15.55-43.46-42.99-43.46h-23.95v87.56h23.95zm82.8-101.69h15.86v115.8h-15.86V33.47zm44.89 0h39.18c37.75 0 60.12 21.57 60.12 57.74 0 36.64-22.84 58.06-60.28 58.06h-39.02V33.47zm39.81 101.69c27.44 0 42.99-16.02 42.99-44.1 0-27.76-15.55-43.46-42.99-43.46h-23.95v87.56h23.95zM115.88 259.23H66.5499l-10.95 32.04h-16.66l41.88-115.8H102.08l41.72 115.8h-16.97l-10.95-32.04zm-4.6-13.48l-19.9901-58.69-20.15 58.69H111.28zm79.31-56h-39.02v-14.28h94.07v14.28h-39.18v101.52H190.6V189.75h-.01zm97.24 37.12l.79-9.04-7.14 5.23-15.71 10.95-6.66-11.42 17.13-8.25 8.41-3.65-8.41-3.65-17.13-8.25 6.66-11.42 15.71 10.95 7.14 5.23-.79-9.04-1.43-19.04h13.33l-1.43 19.04-.95 9.04 7.14-5.23 15.7-10.95 6.66 11.42-17.29 8.25-8.25 3.65 8.25 3.65 17.29 8.25-6.66 11.42-15.7-10.95-7.14-5.23.95 9.04 1.43 19.04H286.4l1.43-19.04zm63.13-51.4h15.86v115.8h-15.86v-115.8zm44.9 0h17.92l47.59 70.11c6.66 9.83 10.79 16.34 14.91 22.84h.48c-.16-6.03-.16-10.31-.16-21.1v-71.86h15.71v115.8h-17.93l-47.27-69.8c-8.25-12.06-11.26-16.5-15.23-23.16h-.48c.16 7.14.16 14.91.16 21.42v71.54h-15.7V175.47zm125.47 0h17.92l47.59 70.11c6.66 9.83 10.79 16.34 14.91 22.84h.48c-.16-6.03-.16-10.31-.16-21.1v-71.86h15.71v115.8h-17.93l-47.27-69.8c-8.25-12.06-11.26-16.5-15.23-23.16h-.48c.16 7.14.16 14.91.16 21.42v71.54h-15.7V175.47zm125.47 0h82.17v14.12h-66.31v35.69h59.65v13.48h-59.65v38.39h67.74v14.12h-83.6v-115.8zm108.51 0h17.92l47.59 70.11c6.66 9.83 10.79 16.34 14.91 22.84h.48c-.16-6.03-.16-10.31-.16-21.1v-71.86h15.71v115.8h-17.93l-47.27-69.8c-8.25-12.06-11.26-16.5-15.23-23.16h-.48c.16 7.14.16 14.91.16 21.42v71.54h-15.7V175.47z" fill="#242424"/>
  <path d="M505.4 467.41c21.04 0 38.1 17.06 38.1 38.1v119.02c0 2.64-2.14 4.78-4.78 4.78h-66.64c-2.64 0-4.78-2.14-4.78-4.78V505.51c0-21.04 17.06-38.1 38.1-38.1zm62.8-95.09c-2.58 0-4.68 2.1-4.68 4.68v143.39c0 2.59 2.1 4.68 4.68 4.68h66.83c2.58 0 4.68-2.09 4.68-4.68V377c0-2.58-2.1-4.68-4.68-4.68H568.2zm33.66 263.08c24.5 0 44.36-19.86 44.36-44.36s-19.86-44.36-44.36-44.36-44.36 19.86-44.36 44.36 19.86 44.36 44.36 44.36zM408.43 467.41c21.04 0 38.1 17.06 38.1 38.1v119.02c0 2.64-2.14 4.78-4.78 4.78h-66.64c-2.64 0-4.78-2.14-4.78-4.78V505.51c.01-21.04 17.06-38.1 38.1-38.1zm0-12.03c24.5 0 44.36-19.86 44.36-44.36s-19.86-44.36-44.36-44.36-44.36 19.86-44.36 44.36 19.87 44.36 44.36 44.36zm96.97 0c24.5 0 44.36-19.86 44.36-44.36s-19.86-44.36-44.36-44.36-44.36 19.86-44.36 44.36 19.86 44.36 44.36 44.36z" fill="#FFE440"/>
  <path d="M282.22 790.57c21.04 0 38.1 17.06 38.1 38.1v119.02c0 2.64-2.14 4.78-4.78 4.78H248.9c-2.64 0-4.78-2.14-4.78-4.78V828.67c0-21.04 17.06-38.1 38.1-38.1zM88.5601 778.09c24.4299 0 44.2399-19.81 44.2399-44.24 0-24.43-19.81-44.24-44.2399-44.24-24.43 0-44.24 19.81-44.24 44.24 0 24.44 19.8 44.24 44.24 44.24zm97.6099 44.53c24.43 0 44.24-19.81 44.24-44.24 0-24.43-19.81-44.24-44.24-44.24-24.43 0-44.24 19.81-44.24 44.24 0 24.44 19.81 44.24 44.24 44.24zm96.05-44.53c24.43 0 44.24-19.81 44.24-44.24 0-24.43-19.81-44.24-44.24-44.24-24.43 0-44.24 19.81-44.24 44.24 0 24.44 19.81 44.24 44.24 44.24zM88.0601 790.57c21.0399 0 38.0999 17.06 38.0999 38.1v119.02c0 2.64-2.14 4.78-4.78 4.78H54.7401c-2.64 0-4.78-2.14-4.78-4.78V828.67c0-21.04 17.06-38.1 38.1-38.1zm97.8099 42.65c21.04 0 38.1 17.06 38.1 38.1v76.37c0 2.64-2.14 4.78-4.78 4.78h-66.64c-2.64 0-4.78-2.14-4.78-4.78v-76.37c0-21.04 17.06-38.1 38.1-38.1z" fill="#7D47FF"/>
  <path d="M885.44 847.34h70.1c2.3 0 4.1-1.8 4.1-4.1v-157.9c0-2.3-1.8-4.1-4.1-4.1h-70.1c-2.3 0-4.1 1.8-4.1 4.1v157.9c-.1 2.3 1.8 4.1 4.1 4.1zm35.3 22.3c-25.2 0-45.6 20.4-45.6 45.6 0 25.2 20.4 45.6 45.6 45.6 25.2 0 45.6-20.4 45.6-45.6 0-25.2-20.4-45.6-45.6-45.6zm-135.5-22.3h70.1c2.3 0 4.1-1.8 4.1-4.1v-157.9c0-2.3-1.8-4.1-4.1-4.1h-70.1c-2.3 0-4.1 1.8-4.1 4.1v157.9c0 2.3 1.9 4.1 4.1 4.1zm35.3 22.3c-25.2 0-45.6 20.4-45.6 45.6 0 25.2 20.4 45.6 45.6 45.6 25.2 0 45.6-20.4 45.6-45.6.1-25.2-20.4-45.6-45.6-45.6zm-134.1-22.3h70.1c2.3 0 4.1-1.8 4.1-4.1v-157.9c0-2.3-1.8-4.1-4.1-4.1h-70.1c-2.3 0-4.1 1.8-4.1 4.1v157.9c0 2.3 1.8 4.1 4.1 4.1zm35.3 22.3c-25.2 0-45.6 20.4-45.6 45.6 0 25.2 20.4 45.6 45.6 45.6 25.2 0 45.6-20.4 45.6-45.6 0-25.2-20.4-45.6-45.6-45.6z" fill="#FF523D"/>
  <path d="M315.17 358.51l-35 35c-24.2-24.1-57.5-39-94.2-39-66.3 0-121.5 48.6-131.8 112.1h67.4c9-27 34.4-46.4 64.4-46.4 18.6 0 35.5 7.6 47.8 19.8l-35.4 35.4c-1.8 1.8-.5 4.8 2 4.8h116.8c1.6 0 2.8-1.3 2.8-2.8v-116.9c0-2.5-3.1-3.8-4.8-2zm-129.3 197.4c-18.8 0-35.8-7.7-48.1-20.1l34.6-34.6c1.8-1.8.5-4.8-2-4.8h-51.8v-.3h-65.9c0 .3.1.6.1.9-.6.5-1 1.3-1 2.2v115.9c0 2.5 3 3.8 4.8 2l34.9-34.9c24.2 24.3 57.6 39.3 94.5 39.3 65.4 0 119.9-47.3 131.3-109.4h-67.9c-9.8 25.6-34.5 43.8-63.5 43.8zM634.7 693.12l-35 35c-24.2-24.1-57.5-39-94.2-39-66.3 0-121.5 48.6-131.8 112.1h67.4c9-27 34.4-46.4 64.4-46.4 18.6 0 35.5 7.6 47.8 19.8l-35.4 35.4c-1.8 1.8-.5 4.8 2 4.8h116.8c1.6 0 2.8-1.3 2.8-2.8v-116.9c0-2.5-3.1-3.8-4.8-2zm-129.3 197.4c-18.8 0-35.8-7.7-48.1-20.1l34.6-34.6c1.8-1.8.5-4.8-2-4.8h-51.8v-.3h-65.9c0 .3.1.6.1.9-.6.5-1 1.3-1 2.2v115.9c0 2.5 3 3.8 4.8 2l34.9-34.9c24.2 24.3 57.6 39.3 94.5 39.3 65.4 0 119.9-47.3 131.3-109.4h-67.9c-9.8 25.6-34.5 43.8-63.5 43.8z" fill="#242424"/>
</svg>
