<svg width="1000" height="1000" viewBox="0 0 1000 1000" fill="none" xmlns="http://www.w3.org/2000/svg">
  <path d="M966.9 157.9v-1.4V24H831.5c-71.9 1.5-129.8 60.2-129.8 132.5 0 28.7 9.1 55.2 24.6 76.9l-43.4 43.4 33.5 33.5 43.9-43.9c21.1 14.3 46.6 22.6 74.1 22.6 71.6 0 129.9-56.7 132.5-127.7h.1v-3.4h-.1zM633.4 357.3l-35 35c-24.2-24.1-57.5-39-94.2-39-66.3 0-121.5 48.6-131.8 112.1h67.4c9-27 34.4-46.4 64.4-46.4 18.6 0 35.5 7.6 47.8 19.8l-35.4 35.4c-1.8 1.8-.5 4.8 2 4.8h116.8c1.6 0 2.8-1.3 2.8-2.8V359.3c0-2.5-3.1-3.8-4.8-2zM504.1 554.7c-18.8 0-35.8-7.7-48.1-20.1l34.6-34.6c1.8-1.8.5-4.8-2-4.8h-51.8v-.3h-65.9c0 .3.1.6.1.9-.6.5-1 1.3-1 2.2v115.9c0 2.5 3 3.8 4.8 2l34.9-34.9c24.2 24.3 57.6 39.3 94.5 39.3 65.4 0 119.9-47.3 131.3-109.4h-67.9c-9.8 25.6-34.5 43.8-63.5 43.8zM825.3 447.399c-22.8 0-41.3 18.5-41.3 41.3v129.9c0 2.4 1.9 4.3 4.4 4.3h73.9c2.4 0 4.4-1.9 4.4-4.3v-129.9c-.1-22.8-18.6-41.3-41.4-41.3zM892.6 509.9h73.9c2.4 0 4.4-2 4.4-4.3v-157c0-2.4-1.9-4.3-4.4-4.3h-73.9c-2.4 0-4.4 1.9-4.4 4.3v157c.1 2.4 2 4.3 4.4 4.3zM929.9 533.399c-26.6 0-48.1 21.5-48.1 48.1s21.5 48.1 48.1 48.1 48.1-21.5 48.1-48.1-21.5-48.1-48.1-48.1zM720.1 447.399c-22.8 0-41.3 18.5-41.3 41.3v129.9c0 2.4 1.9 4.3 4.3 4.3H757c2.4 0 4.3-1.9 4.3-4.3v-129.9c.1-22.8-18.4-41.3-41.2-41.3zM720.1 338.1c-26.6 0-48.1 21.5-48.1 48.1s21.5 48.1 48.1 48.1 48.1-21.5 48.1-48.1c0-26.5-21.5-48.1-48.1-48.1zM825.3 338.1c-26.6 0-48.1 21.5-48.1 48.1s21.5 48.1 48.1 48.1 48.1-21.5 48.1-48.1c0-26.5-21.6-48.1-48.1-48.1z" fill="#242424"/>
</svg>
