<svg width="1000" height="1000" viewBox="0 0 1000 1000" fill="none" xmlns="http://www.w3.org/2000/svg">
<path d="M966.9 499.1C966.9 498.6 966.9 498.2 966.9 497.7C966.9 497.2 966.9 496.8 966.9 496.3V365.2H836.5C835.8 365.2 835.1 365.2 834.3 365.2C833.6 365.2 832.9 365.2 832.1 365.2H831.5C759.6 366.7 701.7 425.4 701.7 497.7C701.7 526.4 710.8 552.9 726.3 574.6L682.9 618L716.4 651.5L760.3 607.6C781.4 621.9 806.9 630.2 834.4 630.2C906 630.2 964.3 573.5 966.9 502.5H967V499.1H966.9Z" fill="#242424"/>
<path d="M633.4 698.5L598.4 733.5C574.2 709.4 540.9 694.5 504.2 694.5C437.9 694.5 382.7 743.1 372.4 806.6H439.8C448.8 779.6 474.2 760.2 504.2 760.2C522.8 760.2 539.7 767.8 552 780L516.6 815.4C514.8 817.2 516.1 820.2 518.6 820.2H635.4C637 820.2 638.2 818.9 638.2 817.4V700.5C638.2 698 635.1 696.7 633.4 698.5Z" fill="#242424"/>
<path d="M504.1 895.9C485.3 895.9 468.3 888.2 456 875.8L490.6 841.2C492.4 839.4 491.1 836.4 488.6 836.4H436.8C436.8 836.3 436.8 836.2 436.8 836.1H370.9C370.9 836.4 371 836.7 371 837C370.4 837.5 370 838.3 370 839.2V955.1C370 957.6 373 958.9 374.8 957.1L409.7 922.2C433.9 946.5 467.3 961.5 504.2 961.5C569.6 961.5 624.1 914.2 635.5 852.1H567.6C557.8 877.7 533.1 895.9 504.1 895.9Z" fill="#242424"/>
<path d="M825.3 788.6C802.5 788.6 784 807.1 784 829.9V959.8C784 962.2 785.9 964.1 788.4 964.1H862.3C864.7 964.1 866.7 962.2 866.7 959.8V829.9C866.6 807.1 848.1 788.6 825.3 788.6Z" fill="#242424"/>
<path d="M892.6 851.1H966.5C968.9 851.1 970.9 849.1 970.9 846.8V689.8C970.9 687.4 969 685.5 966.5 685.5H892.6C890.2 685.5 888.2 687.4 888.2 689.8V846.8C888.3 849.2 890.2 851.1 892.6 851.1Z" fill="#242424"/>
<path d="M929.9 874.6C903.3 874.6 881.8 896.1 881.8 922.7C881.8 949.3 903.3 970.8 929.9 970.8C956.5 970.8 978 949.3 978 922.7C978 896.1 956.5 874.6 929.9 874.6Z" fill="#242424"/>
<path d="M720.1 788.6C697.3 788.6 678.8 807.1 678.8 829.9V959.8C678.8 962.2 680.7 964.1 683.1 964.1H757C759.4 964.1 761.3 962.2 761.3 959.8V829.9C761.4 807.1 742.9 788.6 720.1 788.6Z" fill="#242424"/>
<path d="M720.1 679.3C693.5 679.3 672 700.8 672 727.4C672 754 693.5 775.5 720.1 775.5C746.7 775.5 768.2 754 768.2 727.4C768.2 700.9 746.7 679.3 720.1 679.3Z" fill="#242424"/>
<path d="M825.3 679.3C798.7 679.3 777.2 700.8 777.2 727.4C777.2 754 798.7 775.5 825.3 775.5C851.9 775.5 873.4 754 873.4 727.4C873.4 700.9 851.8 679.3 825.3 679.3Z" fill="#242424"/>
</svg>
