<svg width="1000" height="1000" viewBox="0 0 1000 1000" fill="none" xmlns="http://www.w3.org/2000/svg">
<path d="M825.3 788.6C802.5 788.6 784 807.1 784 829.9V959.8C784 962.2 785.9 964.1 788.4 964.1H862.3C864.7 964.1 866.7 962.2 866.7 959.8V829.9C866.6 807.1 848.1 788.6 825.3 788.6Z" fill="#242424"/>
<path d="M892.6 851.1H966.5C968.9 851.1 970.9 849.1 970.9 846.8V689.8C970.9 687.4 969 685.5 966.5 685.5H892.6C890.2 685.5 888.2 687.4 888.2 689.8V846.8C888.3 849.2 890.2 851.1 892.6 851.1Z" fill="#242424"/>
<path d="M929.9 874.6C903.3 874.6 881.8 896.1 881.8 922.7C881.8 949.3 903.3 970.8 929.9 970.8C956.5 970.8 978 949.3 978 922.7C978 896.1 956.5 874.6 929.9 874.6Z" fill="#242424"/>
<path d="M720.1 788.6C697.3 788.6 678.8 807.1 678.8 829.9V959.8C678.8 962.2 680.7 964.1 683.1 964.1H757C759.4 964.1 761.3 962.2 761.3 959.8V829.9C761.4 807.1 742.9 788.6 720.1 788.6Z" fill="#242424"/>
<path d="M720.1 679.3C693.5 679.3 672 700.8 672 727.4C672 754 693.5 775.5 720.1 775.5C746.7 775.5 768.2 754 768.2 727.4C768.2 700.9 746.7 679.3 720.1 679.3Z" fill="#242424"/>
<path d="M825.3 679.3C798.7 679.3 777.2 700.8 777.2 727.4C777.2 754 798.7 775.5 825.3 775.5C851.9 775.5 873.4 754 873.4 727.4C873.4 700.9 851.8 679.3 825.3 679.3Z" fill="#242424"/>
</svg>
