<svg width="1000" height="1000" viewBox="0 0 1000 1000" fill="none" xmlns="http://www.w3.org/2000/svg">
  <path d="M825.3 133.3c-22.8 0-41.3 18.5-41.3 41.3v129.9c0 2.4 1.9 4.3 4.4 4.3h73.9c2.4 0 4.4-1.9 4.4-4.3V174.6c-.1-22.8-18.6-41.3-41.4-41.3zM892.6 195.8h73.9c2.4 0 4.4-2 4.4-4.3V34.5002c0-2.4-1.9-4.3-4.4-4.3h-73.9c-2.4 0-4.4 1.9-4.4 4.3V191.5c.1 2.4 2 4.3 4.4 4.3zM929.9 219.3c-26.6 0-48.1 21.5-48.1 48.1s21.5 48.1 48.1 48.1S978 294 978 267.4s-21.5-48.1-48.1-48.1zM720.1 133.3c-22.8 0-41.3 18.5-41.3 41.3v129.9c0 2.4 1.9 4.3 4.3 4.3H757c2.4 0 4.3-1.9 4.3-4.3V174.6c.1-22.8-18.4-41.3-41.2-41.3zM720.1 24C693.5 24 672 45.5 672 72.1s21.5 48.1 48.1 48.1 48.1-21.5 48.1-48.1c0-26.5-21.5-48.1-48.1-48.1zM825.3 24c-26.6 0-48.1 21.5-48.1 48.1s21.5 48.1 48.1 48.1 48.1-21.5 48.1-48.1c0-26.5-21.6-48.1-48.1-48.1z" fill="#242424"/>
</svg>
