<svg width="1000" height="1000" viewBox="0 0 1000 1000" fill="none" xmlns="http://www.w3.org/2000/svg">
<path d="M150.4 865.8C151.8 867 154.6 867 154.6 867H230C230 867 232.5 867.3 233.9 865.7C235 864.5 234.6 859.4 234.8 857.9C236.9 841.1 251.5 844.6 294.2 818.8C320.9 802.7 338.9 787.9 338.9 751.5C338.9 699.8 291.3 654.8 206 654.8C127.9 654.8 82.4999 687.4 57.5999 737.7C56.2999 740.4 55.4999 742.9 56.4999 745.4C57.4999 747.9 61.8999 749.3 61.8999 749.3L120.6 773.7C120.6 773.7 125.2 775.4 127.5 774.3C129.8 773.2 130.1 772 131.2 769.8C147 739.8 168.5 726.5 203.2 726.5C233.5 726.5 251 738.1 251 751.9C251 770.5 235.7 771.9 211.8 785.2C174.1 806.4 149 811.1 149 853.9V861C149 861.3 149 864.7 150.4 865.8ZM192 974.2C218.2 974.2 239.5 952.9 239.5 926.7C239.5 900.5 218.2 879.2 192 879.2C165.8 879.2 144.5 900.5 144.5 926.7C144.5 953 165.8 974.2 192 974.2Z" fill="#FF523D"/>
<path d="M38.5 367.2H73.1C106.4 367.2 126.2 386.2 126.2 418.2C126.2 450.5 106 469.4 73 469.4H38.5V367.2ZM73.6 457C97.8 457 111.5 442.9 111.5 418.1C111.5 393.6 97.8 379.7 73.6 379.7H52.5V457H73.6Z" fill="#242424"/>
<path d="M144.6 367.2H158.6V469.4H144.6V367.2Z" fill="#242424"/>
<path d="M182.1 367.2H254.6V379.7H196.1V411.2H248.7V423.1H196.1V457H255.9V469.5H182.1V367.2V367.2Z" fill="#242424"/>
<path d="M124.3 503V605.2H110.3V560.3H52.5V605.2H38.5V503H52.5V547.8H110.3V503H124.3Z" fill="#242424"/>
<path d="M147.7 503H220.2V515.5H161.7V547H214.3V558.9H161.7V592.8H221.5V605.3H147.7V503Z" fill="#242424"/>
<path d="M325.2 604.8V605.2H309.2C307 596.2 306.5 587.4 305 576.6C303.7 567.6 296.6 562.5 285.1 562.5H255.1V605.2H241.1V503H287.7C309.4 503 321.9 513.4 321.9 531.8C321.9 545.1 314.3 554.2 301.2 556.6C310.9 557.7 316.9 563.3 318.6 572.7C320.8 585.9 321.2 595.3 325.2 604.8ZM307.5 532.6C307.5 522 300.5 515.2 287.9 515.2H255.3V550.6H286.7C299.8 550.6 307.5 544.2 307.5 532.6Z" fill="#242424"/>
<path d="M650.5 509.1L613.4 534.6L526.4 408C525.2 406.3 522.9 405.9 521.3 407L519.8 408.1C519.5 408.2 519.2 408.3 518.9 408.5L449.1 456.5L388 367.6C386.8 365.9 384.5 365.5 382.9 366.6L313.7 414.2C312 415.4 311.6 417.7 312.8 419.3L423.7 581C424.9 582.7 427.2 583.1 428.8 582L498 534.4C498.6 534 499 533.5 499.3 532.9L500.7 532L538.1 586.5L503.8 610.1C502.1 611.3 502.4 612.5 504.4 612.9L626 635.3C628 635.7 629.9 634.4 630.3 632.3L652.8 510.7C653.3 508.7 652.2 508 650.5 509.1Z" fill="#7D47FF"/>
<path d="M834.4 451.3C812.6 451.3 794.9 469 794.9 490.8V614.9C794.9 617.2 796.8 619.1 799.1 619.1H869.7C872 619.1 873.9 617.2 873.9 614.9V490.8C873.8 469 856.2 451.3 834.4 451.3Z" fill="#242424"/>
<path d="M934.8 451.3C913 451.3 895.3 469 895.3 490.8V614.9C895.3 617.2 897.2 619.1 899.5 619.1H970.1C972.4 619.1 974.3 617.2 974.3 614.9V490.8C974.3 469 956.6 451.3 934.8 451.3Z" fill="#242424"/>
<path d="M934.8 438.8C960.2 438.8 980.7 418.2 980.7 392.9C980.7 367.5 960.1 347 934.8 347C909.5 347 888.9 367.6 888.9 392.9C888.9 418.3 909.4 438.8 934.8 438.8Z" fill="#242424"/>
<path d="M834.4 347C809 347 788.5 367.6 788.5 392.9C788.5 418.3 809.1 438.8 834.4 438.8C859.8 438.8 880.3 418.2 880.3 392.9C880.3 367.5 859.7 347 834.4 347Z" fill="#242424"/>
<path d="M734.2 515.2C712.4 515.2 694.7 532.9 694.7 554.7V614.5C694.7 616.8 696.6 618.6 698.9 618.6H769.5C771.8 618.6 773.7 616.7 773.7 614.5V554.7C773.6 532.9 755.9 515.2 734.2 515.2Z" fill="#242424"/>
<path d="M734.2 410.9C708.8 410.9 688.3 431.5 688.3 456.8C688.3 482.2 708.9 502.7 734.2 502.7C759.6 502.7 780.1 482.1 780.1 456.8C780.1 431.5 759.5 410.9 734.2 410.9Z" fill="#242424"/>
<path d="M391.4 770.5H434.5L444.1 797.9H458.9L422.5 698.7H403.9L367.3 797.9H381.8L391.4 770.5ZM413 708.7L430.5 759H395.5L413 708.7Z" fill="#242424"/>
<path d="M541.3 761.9C541.3 779.3 532.4 787.7 515.1 787.7C497.8 787.7 488.8 779.3 488.8 761.9V698.7H474.9V762.1C474.9 786.7 489.3 799.9 515.1 799.9C540.7 799.9 555.1 786.7 555.1 762.1V698.7H541.3V761.9Z" fill="#242424"/>
<path d="M629.1 742.2L613.6 738.7C599.7 735.6 594.1 731.2 594.1 723.5C594.1 714.3 602.4 708.7 615.4 708.7C627.9 708.7 638.4 713.9 644.9 723.6L656.7 716C648 703.4 633.6 696.7 617.2 696.7C595 696.7 580.2 707.8 580.2 724.5C580.2 737.7 589.3 746.6 606.5 750.4L622 754C637.4 757.4 643.2 762.1 643.2 770.8C643.2 781.3 634.1 787.9 619.9 787.9C604.7 787.9 593.2 780.3 587.6 766.7L575.6 774.9C582.8 790.5 598.9 799.9 618.9 799.9C641.8 799.9 657.1 787.9 657.1 770C657.2 755.9 647.5 746.3 629.1 742.2Z" fill="#242424"/>
<path d="M685.5 797.9H699.3V756.5H750.4V744.9H699.3V710.8H756V698.7H685.5V797.9Z" fill="#242424"/>
<path d="M818.2 696.7C789.3 696.7 767.8 718.7 767.8 748.3C767.8 778.2 789 799.9 818.2 799.9C847.3 799.9 868.5 778.2 868.5 748.3C868.4 718.7 847 696.7 818.2 696.7ZM818.2 787.7C797.1 787.7 782.3 771.7 782.3 748.3C782.3 725.1 797.3 708.9 818.2 708.9C839.1 708.9 854.1 725.1 854.1 748.3C854 771.7 839.2 787.7 818.2 787.7Z" fill="#242424"/>
<path d="M903.4 756.5H933C944.4 756.5 951.4 761.5 952.7 770.2C954.2 780.7 954.6 789.2 956.9 797.9H972.7V797.5C968.7 788.3 968.3 779.2 966.2 766.4C964.5 757.3 958.6 751.9 949 750.8C962 748.5 969.5 739.7 969.5 726.8C969.5 708.9 957.2 698.8 935.7 698.8H889.6V798H903.5V756.5H903.4ZM903.4 710.6H935.7C948.2 710.6 955.1 717.1 955.1 727.4C955.1 738.7 947.5 744.9 934.5 744.9H903.5V710.6H903.4Z" fill="#242424"/>
<path d="M409.9 830.4H376.3V929.6H409.7C441.8 929.6 461.3 911.3 461.3 879.9C461.4 848.9 442.2 830.4 409.9 830.4ZM410.4 917.5H389.9V842.5H410.4C433.9 842.5 447.2 855.9 447.2 879.7C447.3 903.8 433.9 917.5 410.4 917.5Z" fill="#242424"/>
<path d="M495.6 884.6H546.7V873.1H495.6V842.5H552.4V830.4H482V929.6H553.6V917.5H495.6V884.6Z" fill="#242424"/>
<path d="M633.7 882.5C646.5 880.2 653.8 871.4 653.8 858.5C653.8 840.6 641.7 830.5 620.7 830.5H575.5V929.7H589V888.3H618.1C629.2 888.3 636.2 893.3 637.4 902C638.9 912.5 639.3 921 641.5 929.7H657V929.3C653.1 920.1 652.7 911 650.6 898.2C648.9 889 643.1 883.5 633.7 882.5ZM619.5 876.6H589V842.2H620.7C632.9 842.2 639.7 848.7 639.7 859C639.7 870.4 632.2 876.6 619.5 876.6Z" fill="#242424"/>
<path d="M741.1 893.6C741.1 911 732.4 919.4 715.4 919.4C698.4 919.4 689.6 911 689.6 893.6V830.4H676V893.8C676 918.4 690.1 931.6 715.4 931.6C740.5 931.6 754.7 918.4 754.7 893.8V830.4H741.1V893.6V893.6Z" fill="#242424"/>
<path d="M848.7 892C848.7 901.2 848.7 904.9 848.8 910.1H848.4C844.9 904.5 841.3 899 835.6 890.5L794.9 830.5H779.5V929.7H793V868.4C793 862.8 793 856.2 792.9 850.1H793.3C796.7 855.8 799.3 859.6 806.3 869.9L846.8 929.7H862.1V830.5H848.7V892V892Z" fill="#242424"/>
<path d="M928 878.4V890.2H965.1V891.7C965.1 906.9 950.6 919.8 932.8 919.8C912.4 919.8 897.1 903.4 897.1 880C897.1 856.8 912.7 840.6 932.7 840.6C949.5 840.6 959.6 849.6 965 860.4L977.9 853.2C969.2 838.1 955.4 828.3 933.5 828.3C904.6 828.3 882.8 849.9 882.8 880.3C882.8 910.3 903.4 931.5 931.7 931.5C946.2 931.5 958.7 925.4 965.8 916.1V929.4H978V878.2H928V878.4Z" fill="#242424"/>
</svg>
