<svg width="1000" height="1000" viewBox="0 0 1000 1000" fill="none" xmlns="http://www.w3.org/2000/svg">
  <path d="M49.5699 33.47H131.74v14.12H65.4299v35.69H125.08v13.48H65.4299v38.39H133.17v14.12H49.5699V33.47zm205.7401 0v115.8h-15.86V98.35h-65.51v50.92h-15.86V33.47h15.86v50.76h65.51V33.47h15.86zM379.52 148.8v.48h-18.08c-2.54-10.15-3.01-20.15-4.76-32.36-1.43-10.15-9.52-16.02-22.53-16.02H300.2v48.38h-15.86V33.47h52.82c24.59 0 38.71 11.74 38.71 32.68 0 15.07-8.57 25.38-23.48 28.08 10.95 1.27 17.77 7.61 19.67 18.24 2.38 14.91 2.86 25.54 7.46 36.33zm-20.15-81.86c0-12.06-7.93-19.67-22.21-19.67H300.2V87.4h35.53c14.92.01 23.64-7.29 23.64-20.46zm42.51-33.47h82.17v14.12h-66.31v35.69h59.65v13.48h-59.65v38.39h67.74v14.12h-83.6V33.47zm108.5 0h17.92l47.59 70.11c6.66 9.83 10.79 16.34 14.91 22.84h.48c-.16-6.03-.16-10.31-.16-21.1V33.47h15.71v115.8H588.9l-47.27-69.8c-8.25-12.06-11.26-16.5-15.23-23.16h-.48c.16 7.14.16 14.91.16 21.42v71.54h-15.7V33.47zm-394.5 225.76H66.5399l-10.94 32.04h-16.66l41.88-115.8H102.08l41.72 115.8h-16.97l-10.95-32.04zm-4.6-13.48l-19.9901-58.69-20.15 58.69H111.28zm50.92-70.28h23.48l33.63 81.22c2.38 6.03 4.44 11.9 6.19 17.45h.48c1.75-5.55 3.81-11.42 6.19-17.45l33.63-81.22h23.48v115.8h-15.39v-99.46h-.48c-1.59 5.08-3.49 10.31-5.55 15.86l-34.74 83.6h-15.39l-34.11-83.6c-2.06-5.55-4.28-11.9-5.55-15.86h-.48v99.46H162.2v-115.8zm184.48 14.28h-39.02v-14.28h94.07v14.28h-39.18v101.52h-15.86V189.75h-.01z" fill="#242424"/>
  <path d="M408.43 467.41c21.04 0 38.1 17.06 38.1 38.1v119.02c0 2.64-2.14 4.78-4.78 4.78h-66.64c-2.64 0-4.78-2.14-4.78-4.78V505.51c.01-21.04 17.06-38.1 38.1-38.1zm0-12.03c24.5 0 44.36-19.86 44.36-44.36s-19.86-44.36-44.36-44.36-44.36 19.86-44.36 44.36 19.87 44.36 44.36 44.36zM505.08 467.41c21.04 0 38.1 17.06 38.1 38.1v119.02c0 2.64-2.14 4.78-4.78 4.78h-66.64c-2.64 0-4.78-2.14-4.78-4.78V505.51c0-21.04 17.06-38.1 38.1-38.1zm0-12.03c24.5 0 44.36-19.86 44.36-44.36s-19.86-44.36-44.36-44.36-44.36 19.86-44.36 44.36 19.86 44.36 44.36 44.36" fill="#FFE440"/>
  <path d="M278.9 788.96c21.04 0 38.1 17.06 38.1 38.1v119.02c0 2.64-2.14 4.78-4.78 4.78h-66.64c-2.64 0-4.78-2.14-4.78-4.78V827.06c0-21.04 17.06-38.1 38.1-38.1zM85.24 776.48c24.43 0 44.24-19.81 44.24-44.24 0-24.43-19.81-44.24-44.24-44.24C60.81 688 41 707.81 41 732.24c0 24.44 19.8 44.24 44.24 44.24zm97.61 44.53c24.43 0 44.24-19.81 44.24-44.24 0-24.43-19.81-44.24-44.24-44.24-24.43 0-44.24 19.81-44.24 44.24 0 24.44 19.81 44.24 44.24 44.24zm96.05-44.53c24.43 0 44.24-19.81 44.24-44.24 0-24.43-19.81-44.24-44.24-44.24-24.43 0-44.24 19.81-44.24 44.24 0 24.44 19.81 44.24 44.24 44.24zM84.74 788.96c21.04 0 38.1 17.06 38.1 38.1v119.02c0 2.64-2.14 4.78-4.78 4.78H51.42c-2.64 0-4.78-2.14-4.78-4.78V827.06c0-21.04 17.06-38.1 38.1-38.1zm97.81 42.65c21.04 0 38.1 17.06 38.1 38.1v76.37c0 2.64-2.14 4.78-4.78 4.78h-66.64c-2.64 0-4.78-2.14-4.78-4.78v-76.37c0-21.04 17.06-38.1 38.1-38.1z" fill="#7D47FF"/>
  <path d="M778.52 144.37c28.13 0 50.93-22.47 50.93-50.2 0-27.72-22.8-50.2-50.93-50.2s-50.93 22.47-50.93 50.2c0 27.73 22.8 50.2 50.93 50.2zm143.37-26.07c24.51 0 44.38-19.59 44.38-43.75s-19.87-43.74-44.38-43.74-44.38 19.59-44.38 43.74c0 24.16 19.87 43.75 44.38 43.75zm0 11.36c20.93 0 37.9 16.97 37.9 37.9v118.39c0 2.64-2.14 4.78-4.78 4.78h-66.25c-2.64 0-4.78-2.14-4.78-4.78V167.56c0-20.93 16.97-37.9 37.91-37.9zm-95.98 41.5c21.11 0 38.22 17.11 38.22 38.22v76.57c0 2.64-2.14 4.78-4.78 4.78H697.68c-2.64 0-4.78-2.14-4.78-4.78v-76.57c0-21.11 17.11-38.22 38.22-38.22h94.79z" fill="#00F2A0"/>
  <path d="M923.75 462.92H867.7v-56.05c0-1.19-.96-2.15-2.15-2.15h-71.92c-1.19 0-2.15.96-2.15 2.15v56.05h-56.05c-1.19 0-2.15.96-2.15 2.15v71.92c0 1.19.96 2.15 2.15 2.15h56.05v56.05c0 1.19.96 2.15 2.15 2.15h71.92c1.19 0 2.15-.96 2.15-2.15v-56.05h56.05c1.19 0 2.15-.96 2.15-2.15v-71.92c.01-1.19-.96-2.15-2.15-2.15zm-664.65-1.03h-56.05v-56.05c0-1.19-.96-2.15-2.15-2.15h-71.92c-1.19 0-2.15.96-2.15 2.15v56.05H70.7701c-1.19 0-2.15.96-2.15 2.15v71.92c0 1.19.96 2.15 2.15 2.15H126.82v56.05c0 1.19.96 2.15 2.15 2.15h71.92c1.19 0 2.15-.96 2.15-2.15v-56.05h56.05c1.19 0 2.15-.96 2.15-2.15v-71.92c.02-1.19-.95-2.15-2.14-2.15zm340.47 322.62h-56.05v-56.05c0-1.19-.96-2.15-2.15-2.15h-71.92c-1.19 0-2.15.96-2.15 2.15v56.05h-56.05c-1.19 0-2.15.96-2.15 2.15v71.92c0 1.19.96 2.15 2.15 2.15h56.05v56.05c0 1.19.96 2.15 2.15 2.15h71.92c1.19 0 2.15-.96 2.15-2.15v-56.05h56.05c1.19 0 2.15-.96 2.15-2.15v-71.92c0-1.19-.97-2.15-2.15-2.15z" fill="#242424"/>
  <path d="M818.97 789c21.04 0 38.1 17.06 38.1 38.1v119.02c0 2.64-2.14 4.78-4.78 4.78h-66.64c-2.64 0-4.78-2.14-4.78-4.78V827.1c0-21.04 17.06-38.1 38.1-38.1zm62.8-95.09c-2.58 0-4.68 2.1-4.68 4.68v143.39c0 2.59 2.1 4.68 4.68 4.68h66.83c2.58 0 4.68-2.09 4.68-4.68V698.59c0-2.58-2.1-4.68-4.68-4.68h-66.83zm33.66 263.08c24.5 0 44.36-19.86 44.36-44.36s-19.86-44.36-44.36-44.36-44.36 19.86-44.36 44.36 19.86 44.36 44.36 44.36zM722.01 789c21.04 0 38.1 17.06 38.1 38.1v119.02c0 2.64-2.14 4.78-4.78 4.78h-66.64c-2.64 0-4.78-2.14-4.78-4.78V827.1c0-21.04 17.05-38.1 38.1-38.1zm0-12.03c24.5 0 44.36-19.86 44.36-44.36s-19.86-44.36-44.36-44.36-44.36 19.86-44.36 44.36 19.86 44.36 44.36 44.36zm96.96 0c24.5 0 44.36-19.86 44.36-44.36s-19.86-44.36-44.36-44.36-44.36 19.86-44.36 44.36 19.86 44.36 44.36 44.36z" fill="#00F2A0"/>
  <path d="M601.72 467.41c21.04 0 38.1 17.06 38.1 38.1v119.02c0 2.64-2.14 4.78-4.78 4.78H568.4c-2.64 0-4.78-2.14-4.78-4.78V505.51c0-21.04 17.06-38.1 38.1-38.1zm0-12.03c24.5 0 44.36-19.86 44.36-44.36s-19.86-44.36-44.36-44.36-44.36 19.86-44.36 44.36 19.86 44.36 44.36 44.36z" fill="#FFE440"/>
</svg>
