<svg id="Ebene_1" data-name="Ebene 1" xmlns="http://www.w3.org/2000/svg" viewBox="0 0 1000 1000"><defs><style>.cls-1{fill:#7d47ff}.cls-2{fill:#1d1d1b}.cls-6{fill:#00f2a0}.cls-7{fill:#ffe000}</style></defs><path class="cls-1" d="M825.26 788.61a41.32 41.32 0 00-41.32 41.32v129.92a4.35 4.35 0 004.35 4.35h73.94a4.35 4.35 0 004.35-4.35V829.93a41.32 41.32 0 00-41.32-41.32z"/><rect class="cls-1" x="888.3" y="685.46" width="82.64" height="165.69" rx="4.35"/><path class="cls-1" d="M929.89 874.58A48.11 48.11 0 10978 922.69a48.11 48.11 0 00-48.11-48.11zM720.09 788.61a41.32 41.32 0 00-41.32 41.32v129.92a4.35 4.35 0 004.35 4.35h73.94a4.35 4.35 0 004.35-4.35V829.93a41.32 41.32 0 00-41.32-41.32zM720.09 679.33a48.11 48.11 0 1048.11 48.11 48.11 48.11 0 00-48.11-48.11zM825.26 679.33a48.11 48.11 0 1048.11 48.11 48.11 48.11 0 00-48.11-48.11z"/><path class="cls-2" d="M598.66 833.15a51 51 0 0151 51v74.45a4.46 4.46 0 01-4.45 4.46h-182.8a4.46 4.46 0 01-4.45-4.46v-74.47a51 51 0 0151-51zM397.41 783.05a42.35 42.35 0 0142.36 42.35v133.18a4.46 4.46 0 01-4.46 4.45h-75.79a4.46 4.46 0 01-4.46-4.45V825.4a42.35 42.35 0 0142.35-42.35M397.41 769.67a49.32 49.32 0 10-49.31-49.31 49.32 49.32 0 0049.31 49.31M553 820.31a56.71 56.71 0 10-56.71-56.71A56.72 56.72 0 00553 820.31M178.75 787.12a41.34 41.34 0 0141.33 41.33v129.92a4.35 4.35 0 01-4.35 4.35h-73.95a4.35 4.35 0 01-4.35-4.35V828.45a41.33 41.33 0 0141.32-41.33M73.59 787.12a41.33 41.33 0 0141.32 41.33v129.92a4.35 4.35 0 01-4.35 4.35H36.61a4.35 4.35 0 01-4.35-4.35V828.45a41.34 41.34 0 0141.33-41.33M73.59 774.07A48.11 48.11 0 1025.48 726a48.11 48.11 0 0048.11 48.11M178.75 774.07a48.11 48.11 0 10-48.1-48.07 48.1 48.1 0 0048.1 48.11M283.7 854.07a41.32 41.32 0 0141.3 41.32v62.66a4.34 4.34 0 01-4.35 4.35h-73.92a4.35 4.35 0 01-4.35-4.35v-62.66a41.32 41.32 0 0141.32-41.32M283.7 841a48.12 48.12 0 10-48.11-48.11A48.12 48.12 0 00283.7 841"/><text transform="matrix(.98 -.22 .22 .98 372.52 439.59)" letter-spacing=".01em" font-size="101.85" font-family="Alpha-Regular,Alpha">DIE</text><text transform="rotate(9.02 -3224.335 3101.26)" letter-spacing="-.02em" font-size="101.85" font-family="Alpha-Regular,Alpha">L<tspan x="59.89" y="0" letter-spacing=".01em">ÖSUNG</tspan></text><path class="cls-6" d="M812.8 144a4.8 4.8 0 00-5.72 3.64L767.3 326.89a4.79 4.79 0 003.64 5.72l79.61 17.67a4.8 4.8 0 005.72-3.65l39.78-179.28a4.79 4.79 0 00-3.64-5.72zM782.45 470.33a53.06 53.06 0 10-40.3-63.28 53 53 0 0040.3 63.28"/><path class="cls-1" d="M704.82 32.34l-34.3 34.3a130.25 130.25 0 00-92.26-38.24c-65 0-119 47.63-129.1 109.81h66a66.4 66.4 0 01109.88-26.13l-34.64 34.68a2.76 2.76 0 002 4.72h114.37a2.77 2.77 0 002.76-2.77V34.29a2.76 2.76 0 00-4.71-1.95zM578.25 225.66a66.21 66.21 0 01-47.1-19.66L565 172.15a2.77 2.77 0 00-2-4.72h-50.68v-.29h-64.6c0 .31.06.62.08.93a2.75 2.75 0 00-1 2.13v113.5a2.77 2.77 0 004.72 2l34.2-34.2a130.32 130.32 0 0092.53 38.5c64.06 0 117.48-46.3 128.63-107.18h-66.5a66.59 66.59 0 01-62.13 42.84z"/><circle class="cls-7" cx="190.12" cy="478.77" r="108.15" transform="rotate(-45 190.114 478.772)"/><path class="cls-7" d="M168.98 317.74h42.64v41.07h-42.64zM168.98 598.52h42.64v41.07h-42.64zM310.15 457.34h41.07v42.64h-41.07zM29.37 457.34h41.07v42.64H29.37z"/><path class="cls-7" transform="rotate(-45 289.574 577.924)" d="M268.25 557.39h42.65v41.07h-42.65z"/><path class="cls-7" transform="rotate(-45 91.004 379.355)" d="M69.71 358.85h42.65v41.07H69.71z"/><path class="cls-7" transform="rotate(-45 90.995 577.879)" d="M70.5 556.6h41.07v42.65H70.5z"/><path class="cls-7" transform="rotate(-45 289.576 379.384)" d="M269.04 358.07h41.07v42.65h-41.07z"/></svg>