<svg id="Ebene_1" data-name="Ebene 1" xmlns="http://www.w3.org/2000/svg" viewBox="0 0 1000 1000"><defs><style>.cls-2{fill:#1d1d1b}.cls-3{fill:#744dfa}.cls-4{fill:#ffe000}</style></defs><path d="M649.92 518.14v-1.38V384.21H514.59a132.57 132.57 0 00-105.25 209.42l-43.43 43.43 33.54 33.54 43.86-43.86a132.58 132.58 0 00206.52-105.09h.09z" fill="#00f2a0"/><path d="M954.63 402.81l-34.49 34.49a131.05 131.05 0 00-92.81-38.46c-65.35 0-119.71 47.91-129.84 110.45h66.42A66.79 66.79 0 01874.43 483l-34.88 34.88a2.78 2.78 0 002 4.75H956.6a2.79 2.79 0 002.78-2.78V404.77a2.78 2.78 0 00-4.75-1.96zM827.33 597.26A66.61 66.61 0 01780 577.49l34-34.06a2.78 2.78 0 00-2-4.75h-51v-.29h-65c0 .31.06.62.08.94a2.74 2.74 0 00-1 2.13v114.18a2.78 2.78 0 004.75 2l34.4-34.4a131 131 0 0093.1 38.76c64.44 0 118.16-46.57 129.38-107.81h-66.89a67 67 0 01-62.49 43.07z"/><path class="cls-2" d="M546.03 818.74l63.47-57.05-69.96-77.85-110.29 99.13 32.14 35.77h84.64zM364.77 834.45h280.99v137.08H364.77z"/><path class="cls-3" d="M833 807.55a38.53 38.53 0 00-38.53 38.53v121.15a4 4 0 004 4h69a4.05 4.05 0 004.06-4V846.08A38.53 38.53 0 00833 807.55z"/><rect class="cls-3" x="891.82" y="711.37" width="77.06" height="154.49" rx="4.06"/><path class="cls-3" d="M930.6 887.72a44.86 44.86 0 1044.85 44.86 44.85 44.85 0 00-44.85-44.86zM735 807.55a38.53 38.53 0 00-38.53 38.53v121.15a4 4 0 004 4h69a4 4 0 004-4V846.08A38.53 38.53 0 00735 807.55zM735 705.66a44.86 44.86 0 1044.85 44.86A44.86 44.86 0 00735 705.66zM833 705.66a44.86 44.86 0 1044.86 44.86A44.86 44.86 0 00833 705.66z"/><path class="cls-2" d="M170.61 532.88H86.94a47.53 47.53 0 00-47.53 47.53v69.42a4.16 4.16 0 004.16 4.17H214a4.16 4.16 0 004.16-4.16v-69.43a47.53 47.53 0 00-47.55-47.53zM274.59 486.16a39.5 39.5 0 00-39.49 39.5v124.17a4.15 4.15 0 004.15 4.16h70.68a4.15 4.15 0 004.15-4.16V525.66a39.5 39.5 0 00-39.49-39.5z"/><circle class="cls-2" cx="274.59" cy="427.71" r="45.98"/><circle class="cls-2" cx="129.57" cy="468.02" r="52.88"/><circle class="cls-4" cx="181.53" cy="824.37" r="96.99" transform="rotate(-45 181.525 824.37)"/><path class="cls-4" d="M162.57 679.96h38.24v36.83h-38.24zM162.57 931.75h38.24v36.83h-38.24zM289.17 805.15H326v38.24h-36.83zM37.37 805.15H74.2v38.24H37.37z"/><path class="cls-4" transform="rotate(-45 270.715 913.286)" d="M251.59 894.88h38.24v36.83h-38.24z"/><path class="cls-4" transform="rotate(-45 92.632 735.18)" d="M73.54 716.83h38.24v36.83H73.54z"/><path class="cls-4" transform="rotate(-45 92.625 913.213)" d="M74.25 894.17h36.83v38.24H74.25z"/><path class="cls-4" transform="rotate(-45 270.715 735.236)" d="M252.3 716.12h36.83v38.24H252.3z"/></svg>