<svg version="1.1" id="Ebene_1" xmlns="http://www.w3.org/2000/svg" x="0" y="0" viewBox="0 0 1000 1000" xml:space="preserve">
  <style>
    .st0{fill:#242424}.st1{fill:#7d47ff}.st2{fill:#ff4633}.st4{fill:#00f2a0}.st5{fill:#fff}.st6{fill:#1d1d1b;stroke:#242424;stroke-miterlimit:10}
  </style>
  <path class="st0" d="M44.02 122.47l13.8-9.52c6.35 15.86 19.51 24.75 36.96 24.75 16.18 0 26.65-7.77 26.65-19.99 0-10.15-6.66-15.7-24.27-19.67L79.4 93.91C59.73 89.47 49.26 79 49.26 63.61c0-19.51 16.97-32.52 42.35-32.52 18.72 0 35.22 7.77 45.21 22.53l-13.48 8.88c-7.46-11.42-19.51-17.45-33.79-17.45-14.91 0-24.43 6.5-24.43 17.29 0 9.04 6.5 14.12 22.37 17.77l17.77 4.12c21.1 4.76 32.2 16.02 32.2 32.52 0 20.94-17.61 34.9-43.78 34.9-23.01 0-41.41-10.94-49.66-29.18zM256.27 68.69c0 27.6-22.53 35.06-43.62 35.06h-34.11v45.53h-15.86V33.47h53.78c23.47 0 39.81 10.95 39.81 35.22zm-16.5.16c0-14.59-8.25-21.57-25.7-21.57h-35.53v42.67h33c16.96 0 28.23-5.24 28.23-21.1zM275.93 33.47h82.17v14.12h-66.3v35.69h59.65v13.48H291.8v38.39h67.74v14.12h-83.6V33.47zM384.44 33.47h17.92l47.59 70.11c6.66 9.83 10.79 16.34 14.91 22.84h.48c-.16-6.03-.16-10.31-.16-21.1V33.47h15.71v115.8h-17.93l-47.27-69.8c-8.25-12.06-11.26-16.5-15.23-23.16h-.48c.16 7.14.16 14.91.16 21.42v71.54h-15.7V33.47zM49.57 175.47h39.18c37.75 0 60.12 21.57 60.12 57.74 0 36.64-22.84 58.06-60.28 58.06H49.57v-115.8zm39.82 101.69c27.44 0 42.99-16.02 42.99-44.1 0-27.76-15.54-43.46-42.99-43.46H65.44v87.56h23.95zM172.19 175.47h82.17v14.12h-66.31v35.69h59.65v13.48h-59.65v38.39h67.74v14.12h-83.6v-115.8zM280.69 175.47h17.93l47.59 70.11c6.66 9.83 10.79 16.34 14.91 22.84h.48c-.16-6.03-.16-10.31-.16-21.1v-71.86h15.71v115.8h-17.93l-47.27-69.8c-8.25-12.06-11.26-16.5-15.23-23.16h-.48c.16 7.14.16 14.91.16 21.42v71.54h-15.71V175.47z"/>
  <path class="st1" d="M282.22 790.57c21.04 0 38.1 17.06 38.1 38.1v119.02c0 2.64-2.14 4.78-4.78 4.78H248.9c-2.64 0-4.78-2.14-4.78-4.78V828.67c0-21.04 17.06-38.1 38.1-38.1M88.56 778.09c24.43 0 44.24-19.81 44.24-44.24 0-24.43-19.81-44.24-44.24-44.24s-44.24 19.81-44.24 44.24c0 24.44 19.8 44.24 44.24 44.24M186.17 822.62c24.43 0 44.24-19.81 44.24-44.24 0-24.43-19.81-44.24-44.24-44.24-24.43 0-44.24 19.81-44.24 44.24 0 24.44 19.81 44.24 44.24 44.24M282.22 778.09c24.43 0 44.24-19.81 44.24-44.24 0-24.43-19.81-44.24-44.24-44.24-24.43 0-44.24 19.81-44.24 44.24 0 24.44 19.81 44.24 44.24 44.24M88.06 790.57c21.04 0 38.1 17.06 38.1 38.1v119.02c0 2.64-2.14 4.78-4.78 4.78H54.74c-2.64 0-4.78-2.14-4.78-4.78V828.67c0-21.04 17.06-38.1 38.1-38.1M185.87 833.22c21.04 0 38.1 17.06 38.1 38.1v76.37c0 2.64-2.14 4.78-4.78 4.78h-66.64c-2.64 0-4.78-2.14-4.78-4.78v-76.37c0-21.04 17.06-38.1 38.1-38.1"/>
  <path class="st2" d="M885.44 847.34h70.1c2.3 0 4.1-1.8 4.1-4.1v-157.9c0-2.3-1.8-4.1-4.1-4.1h-70.1c-2.3 0-4.1 1.8-4.1 4.1v157.9c-.1 2.3 1.8 4.1 4.1 4.1zM920.74 869.64c-25.2 0-45.6 20.4-45.6 45.6 0 25.2 20.4 45.6 45.6 45.6 25.2 0 45.6-20.4 45.6-45.6s-20.4-45.6-45.6-45.6zM785.24 847.34h70.1c2.3 0 4.1-1.8 4.1-4.1v-157.9c0-2.3-1.8-4.1-4.1-4.1h-70.1c-2.3 0-4.1 1.8-4.1 4.1v157.9c0 2.3 1.9 4.1 4.1 4.1zM820.54 869.64c-25.2 0-45.6 20.4-45.6 45.6 0 25.2 20.4 45.6 45.6 45.6s45.6-20.4 45.6-45.6c.1-25.2-20.4-45.6-45.6-45.6zM686.44 847.34h70.1c2.3 0 4.1-1.8 4.1-4.1v-157.9c0-2.3-1.8-4.1-4.1-4.1h-70.1c-2.3 0-4.1 1.8-4.1 4.1v157.9c0 2.3 1.8 4.1 4.1 4.1zM721.74 869.64c-25.2 0-45.6 20.4-45.6 45.6 0 25.2 20.4 45.6 45.6 45.6s45.6-20.4 45.6-45.6-20.4-45.6-45.6-45.6z"/>
  <g>
    <path class="st0" d="M682.34 503.39h268.82v131.14H682.34zM878.16 495.02c9.13-12.53 14.52-27.95 14.52-44.64 0-41.94-34-75.94-75.94-75.94s-75.94 34-75.94 75.94c0 16.69 5.4 32.11 14.52 44.64h122.84z"/>
    <path class="st5" d="M726.84 544.52c-1.99 8.27-7.14 13.26-14.77 13.26-7.79 0-12.99-5.8-14.5-14.77h-5.53l1.66-3.87h3.49c-.05-.54-.05-1.13-.05-1.72v-1.02h-5.1l1.66-3.87h3.76c1.29-9.83 6.66-15.57 14.77-15.57 7.84 0 11.6 5.1 13.32 10.63l-5.15 1.88c-1.07-4.78-3.97-7.52-8.16-7.52-4.94 0-8.32 3.76-9.34 10.58h15.03l-1.66 3.87h-13.69v.91c0 .64 0 1.23.05 1.83h12.19l-1.66 3.87H703.1c1.23 6.01 4.56 9.77 9.07 9.77 5.05 0 8.32-3.71 9.18-9.88l5.49 1.62z"/>
  </g>
  <g>
    <path class="st4" d="M639.07 371.53l-35 35c-24.2-24.1-57.5-39-94.2-39-66.3 0-121.5 48.6-131.8 112.1h67.4c9-27 34.4-46.4 64.4-46.4 18.6 0 35.5 7.6 47.8 19.8l-35.4 35.4c-1.8 1.8-.5 4.8 2 4.8h116.8c1.6 0 2.8-1.3 2.8-2.8v-116.9c0-2.5-3.1-3.8-4.8-2zM509.77 568.93c-18.8 0-35.8-7.7-48.1-20.1l34.6-34.6c1.8-1.8.5-4.8-2-4.8h-51.8v-.3h-65.9c0 .3.1.6.1.9-.6.5-1 1.3-1 2.2v115.9c0 2.5 3 3.8 4.8 2l34.9-34.9c24.2 24.3 57.6 39.3 94.5 39.3 65.4 0 119.9-47.3 131.3-109.4h-67.9c-9.8 25.6-34.5 43.8-63.5 43.8z"/>
  </g>
  <g>
    <path class="st0" d="M51.76 503.39h268.82v131.14H51.76zM247.59 495.02c9.13-12.53 14.52-27.95 14.52-44.64 0-41.94-34-75.94-75.94-75.94s-75.94 34-75.94 75.94c0 16.69 5.4 32.11 14.52 44.64h122.84z"/>
    <path class="st5" d="M96.26 544.52c-1.99 8.27-7.14 13.26-14.77 13.26-7.79 0-12.99-5.8-14.5-14.77h-5.53l1.66-3.87h3.49c-.05-.54-.05-1.13-.05-1.72v-1.02h-5.1l1.66-3.87h3.76c1.29-9.83 6.66-15.57 14.77-15.57 7.84 0 11.6 5.1 13.32 10.63l-5.15 1.88c-1.07-4.78-3.97-7.52-8.16-7.52-4.94 0-8.32 3.76-9.34 10.58h15.03l-1.66 3.87h-13.7v.91c0 .64 0 1.23.05 1.83h12.19l-1.66 3.87H72.53c1.23 6.01 4.56 9.77 9.07 9.77 5.05 0 8.32-3.71 9.18-9.88l5.48 1.62z"/>
  </g>
  <path transform="rotate(-45 728.52384204 256.09522463)" class="st4" d="M685.65 233.64h85.74v44.89h-85.74z"/>
  <g>
    <path class="st4" d="M951.16 156.67c0 69.3-56.18 125.48-125.48 125.48-69.3 0-125.48-56.18-125.48-125.48S756.38 31.19 825.68 31.19c69.3 0 125.48 56.18 125.48 125.48"/>
  </g>
  <path class="st4" d="M823.06 31.22h128.08V161.3H823.06z"/>
  <g>
    <path transform="rotate(-45 509.76339666 820.2110011)" class="st6" d="M469.15 674.43h81.24v291.54h-81.24z"/>
    <path transform="rotate(-45 509.76298452 820.21097181)" class="st6" d="M364 779.58h291.54v81.24H364z"/>
  </g>
</svg>
