<svg width="1000" height="1000" viewBox="0 0 1000 1000" fill="none" xmlns="http://www.w3.org/2000/svg">
<g clip-path="url(#clip0)">
<path d="M67.1998 31.7002H31.2998V137.5H66.9998C101.2 137.5 122.1 117.9 122.1 84.4002C122.1 51.4002 101.7 31.7002 67.1998 31.7002ZM67.6998 124.6H45.7998V44.6002H67.6998C92.7998 44.6002 107 59.0002 107 84.3002C107 110 92.7998 124.6 67.6998 124.6Z" fill="#242424"/>
<path d="M155.7 31.7002H141.2V137.5H155.7V31.7002Z" fill="#242424"/>
<path d="M194.5 89.5002H249V77.2002H194.5V44.6002H255.1V31.7002H180V137.5H256.4V124.6H194.5V89.5002Z" fill="#242424"/>
<path d="M434.7 463.7H376V370.8H361.5V476.6H434.7V463.7Z" fill="#242424"/>
<path d="M493.7 339.8H479.5V358.2H493.7V339.8Z" fill="#242424"/>
<path d="M500.1 368.6C469.8 368.6 447.3 392.1 447.3 423.7C447.3 455.6 469.5 478.8 500.1 478.8C530.5 478.8 552.7 455.6 552.7 423.7C552.7 392.1 530.2 368.6 500.1 368.6ZM500.1 465.8C478.1 465.8 462.6 448.7 462.6 423.8C462.6 399 478.3 381.8 500.1 381.8C522 381.8 537.6 399.1 537.6 423.8C537.6 448.7 522.1 465.8 500.1 465.8Z" fill="#242424"/>
<path d="M520.8 339.8H506.6V358.2H520.8V339.8Z" fill="#242424"/>
<path d="M618.9 466.1C603 466.1 590.9 458 585.1 443.5L572.5 452.2C580 468.9 596.9 478.9 617.9 478.9C641.8 478.9 657.9 466.1 657.9 447C657.9 431.9 647.8 421.6 628.5 417.3L612.3 413.5C597.8 410.2 591.9 405.5 591.9 397.3C591.9 387.4 600.6 381.5 614.2 381.5C627.2 381.5 638.3 387 645.1 397.4L657.4 389.3C648.3 375.8 633.2 368.7 616.1 368.7C592.9 368.7 577.4 380.6 577.4 398.4C577.4 412.5 587 422 604.9 426.1L621.1 429.9C637.2 433.5 643.3 438.6 643.3 447.9C643.2 458.9 633.7 466.1 618.9 466.1Z" fill="#242424"/>
<path d="M430.2 578.8C430.2 597.4 420.9 606.3 402.8 606.3C384.7 606.3 375.3 597.3 375.3 578.8V511.4H360.8V579.1C360.8 605.3 375.9 619.4 402.8 619.4C429.6 619.4 444.7 605.3 444.7 579.1V511.4H430.2V578.8Z" fill="#242424"/>
<path d="M536.6 577C536.6 586.9 536.6 590.8 536.7 596.3H536.3C532.5 590.4 528.8 584.4 522.7 575.4L479.2 511.3H462.8V617.1H477.2V551.7C477.2 545.8 477.2 538.7 477.1 532.1H477.5C481.1 538.2 483.9 542.2 491.4 553.3L534.6 617.1H551V511.4H536.7V577H536.6Z" fill="#242424"/>
<path d="M612.7 562.6V575.2H652.3V576.8C652.3 593 636.8 606.8 617.8 606.8C596.1 606.8 579.7 589.3 579.7 564.3C579.7 539.5 596.4 522.3 617.7 522.3C635.7 522.3 646.4 531.9 652.2 543.5L666 535.8C656.7 519.7 641.9 509.3 618.6 509.3C587.7 509.3 564.5 532.3 564.5 564.8C564.5 596.8 586.5 619.5 616.7 619.5C632.2 619.5 645.5 613 653.1 603.1V617.3H666.1V562.7H612.7V562.6Z" fill="#242424"/>
<path d="M571.9 860.5H642C644.3 860.5 646.1 858.7 646.1 856.4V698.5C646.1 696.2 644.3 694.4 642 694.4H571.9C569.6 694.4 567.8 696.2 567.8 698.5V856.4C567.7 858.7 569.6 860.5 571.9 860.5Z" fill="#00F2A0"/>
<path d="M607.2 882.8C582 882.8 561.6 903.2 561.6 928.4C561.6 953.6 582 974 607.2 974C632.4 974 652.8 953.6 652.8 928.4C652.8 903.2 632.4 882.8 607.2 882.8Z" fill="#00F2A0"/>
<path d="M471.7 860.5H541.8C544.1 860.5 545.9 858.7 545.9 856.4V698.5C545.9 696.2 544.1 694.4 541.8 694.4H471.7C469.4 694.4 467.6 696.2 467.6 698.5V856.4C467.6 858.7 469.5 860.5 471.7 860.5Z" fill="#00F2A0"/>
<path d="M507 882.8C481.8 882.8 461.4 903.2 461.4 928.4C461.4 953.6 481.8 974 507 974C532.2 974 552.6 953.6 552.6 928.4C552.7 903.2 532.2 882.8 507 882.8Z" fill="#00F2A0"/>
<path d="M372.9 860.5H443C445.3 860.5 447.1 858.7 447.1 856.4V698.5C447.1 696.2 445.3 694.4 443 694.4H372.9C370.6 694.4 368.8 696.2 368.8 698.5V856.4C368.8 858.7 370.6 860.5 372.9 860.5Z" fill="#00F2A0"/>
<path d="M408.2 882.8C383 882.8 362.6 903.2 362.6 928.4C362.6 953.6 383 974 408.2 974C433.4 974 453.8 953.6 453.8 928.4C453.8 903.2 433.4 882.8 408.2 882.8Z" fill="#00F2A0"/>
<path d="M390.8 158.1C389.1 156.9 388.7 154.6 389.8 152.9L438 82.7002C439.2 81.0002 441.5 80.6002 443.2 81.7002L587 180.5C588.7 181.7 589.1 184 588 185.7L539.8 255.9C538.6 257.6 536.3 258 534.6 256.9L390.8 158.1Z" fill="#7D47FF"/>
<path d="M670.4 153.4L647.5 30.0001C647.1 28.0001 645.2 26.6001 643.1 27.0001L519.8 49.9001C517.8 50.3001 517.5 51.5001 519.2 52.7001L554 76.6001L514.8 133.6C515.3 132 514.8 130.3 513.4 129.3L443.2 81.1001C441.5 79.9001 439.2 80.4001 438 82.1001L325.4 245.9C324.2 247.6 324.7 249.9 326.4 251.1L396.6 299.3C398.3 300.5 400.6 300 401.8 298.3L465.4 205.8C464.9 207.3 465.4 209.1 466.8 210.1L537 258.3C538.7 259.5 541 259 542.2 257.3L630.4 129L668 154.8C669.7 156.1 670.7 155.4 670.4 153.4Z" fill="#7D47FF"/>
<path d="M980.9 495.1C980.9 494.6 980.9 494.2 980.9 493.7C980.9 493.2 980.9 492.8 980.9 492.3V361.2H850.5C849.8 361.2 849.1 361.2 848.3 361.2C847.6 361.2 846.9 361.2 846.1 361.2H845.5C773.6 362.7 715.7 421.4 715.7 493.7C715.7 522.4 724.8 548.9 740.3 570.6L696.9 614L730.4 647.5L774.3 603.6C795.4 617.9 820.9 626.2 848.4 626.2C920 626.2 978.3 569.5 980.9 498.5H981V495.1H980.9Z" fill="#242424"/>
<path d="M243.139 552.625C285.354 510.41 285.354 441.965 243.139 399.75C200.923 357.535 132.479 357.535 90.2637 399.75C48.0484 441.965 48.0484 510.41 90.2637 552.625C132.479 594.84 200.923 594.84 243.139 552.625Z" fill="#FFE440"/>
<path d="M188.1 315.2H145.5V356.3H188.1V315.2Z" fill="#FFE440"/>
<path d="M188.1 595.9H145.5V637H188.1V595.9Z" fill="#FFE440"/>
<path d="M327.8 454.8H286.7V497.4H327.8V454.8Z" fill="#FFE440"/>
<path d="M46.9999 454.8H5.8999V497.4H46.9999V454.8Z" fill="#FFE440"/>
<path d="M266.64 545.784L236.518 575.906L265.579 604.968L295.702 574.846L266.64 545.784Z" fill="#FFE440"/>
<path d="M68.1848 347.256L38.0581 377.378L67.1199 406.444L97.2466 376.322L68.1848 347.256Z" fill="#FFE440"/>
<path d="M67.1045 545.706L38.0386 574.768L68.161 604.895L97.2269 575.833L67.1045 545.706Z" fill="#FFE440"/>
<path d="M265.609 347.203L236.547 376.265L266.669 406.388L295.731 377.326L265.609 347.203Z" fill="#FFE440"/>
<path d="M172.3 802.8C150.7 802.8 133.2 820.3 133.2 841.9V964.9C133.2 967.2 135 969 137.3 969H207.3C209.6 969 211.4 967.2 211.4 964.9V841.9C211.4 820.3 193.9 802.8 172.3 802.8Z" fill="#242424"/>
<path d="M271.8 802.8C250.2 802.8 232.7 820.3 232.7 841.9V964.9C232.7 967.2 234.5 969 236.8 969H306.8C309.1 969 310.9 967.2 310.9 964.9V841.9C310.9 820.3 293.4 802.8 271.8 802.8Z" fill="#242424"/>
<path d="M271.8 790.5C297 790.5 317.3 770.1 317.3 745C317.3 719.9 296.9 699.5 271.8 699.5C246.6 699.5 226.3 719.9 226.3 745C226.3 770.1 246.7 790.5 271.8 790.5Z" fill="#242424"/>
<path d="M172.3 699.4C147.1 699.4 126.8 719.8 126.8 744.9C126.8 770.1 147.2 790.4 172.3 790.4C197.5 790.4 217.8 770 217.8 744.9C217.8 719.8 197.4 699.4 172.3 699.4Z" fill="#242424"/>
<path d="M72.8998 866.2C51.2998 866.2 33.7998 883.7 33.7998 905.3V964.6C33.7998 966.9 35.5998 968.7 37.8998 968.7H107.9C110.2 968.7 112 966.9 112 964.6V905.3C112 883.7 94.4998 866.2 72.8998 866.2Z" fill="#242424"/>
<path d="M72.8999 762.7C47.6999 762.7 27.3999 783.1 27.3999 808.2C27.3999 833.3 47.7999 853.7 72.8999 853.7C97.9999 853.7 118.4 833.3 118.4 808.2C118.5 783.1 98.0999 762.7 72.8999 762.7Z" fill="#242424"/>
<path d="M834.1 176.7H749.2C722.6 176.7 701 198.3 701 225V295.5C701 297.8 702.9 299.7 705.2 299.7H878.2C880.5 299.7 882.4 297.8 882.4 295.5V225C882.4 198.3 860.8 176.7 834.1 176.7Z" fill="#242424"/>
<path d="M939.7 129.3C917.6 129.3 899.6 147.3 899.6 169.4V295.5C899.6 297.8 901.5 299.7 903.8 299.7H975.5C977.8 299.7 979.7 297.8 979.7 295.5V169.4C979.8 147.2 961.8 129.3 939.7 129.3Z" fill="#242424"/>
<path d="M982.821 87.7328C992.691 63.9038 981.376 36.5851 957.547 26.7146C933.718 16.8441 906.399 28.1597 896.528 51.9886C886.658 75.8176 897.973 103.136 921.802 113.007C945.631 122.877 972.95 111.562 982.821 87.7328Z" fill="#242424"/>
<path d="M792.4 164.5C822.058 164.5 846.1 140.458 846.1 110.8C846.1 81.1424 822.058 57.1001 792.4 57.1001C762.743 57.1001 738.7 81.1424 738.7 110.8C738.7 140.458 762.743 164.5 792.4 164.5Z" fill="#242424"/>
<path d="M959.4 698.5L924.4 733.5C900.2 709.4 866.9 694.5 830.2 694.5C763.9 694.5 708.7 743.1 698.4 806.6H765.8C774.8 779.6 800.2 760.2 830.2 760.2C848.8 760.2 865.7 767.8 878 780L842.6 815.4C840.8 817.2 842.1 820.2 844.6 820.2H961.4C963 820.2 964.2 818.9 964.2 817.4V700.5C964.2 698 961.1 696.7 959.4 698.5Z" fill="#242424"/>
<path d="M830.1 895.9C811.3 895.9 794.3 888.2 782 875.8L816.6 841.2C818.4 839.4 817.1 836.4 814.6 836.4H762.8C762.8 836.3 762.8 836.2 762.8 836.1H696.9C696.9 836.4 697 836.7 697 837C696.4 837.5 696 838.3 696 839.2V955.1C696 957.6 699 958.9 700.8 957.1L735.7 922.2C759.9 946.5 793.3 961.5 830.2 961.5C895.6 961.5 950.1 914.2 961.5 852.1H893.6C883.8 877.7 859.1 895.9 830.1 895.9Z" fill="#242424"/>
</g>
<defs>
<clipPath id="clip0">
<rect width="1000" height="1000" fill="white"/>
</clipPath>
</defs>
</svg>
