<svg width="1000" height="1000" viewBox="0 0 1000 1000" fill="none" xmlns="http://www.w3.org/2000/svg">
  <path d="M895.3 341.139c-2.2 0-4 1.8-4 4v154.7c0 2.2 1.8 4 4 4H964c2.2 0 4-1.8 4-4v-154.7c0-2.2-1.8-4-4-4h-68.7zM929.9 614.939c24.7 0 44.7-20 44.7-44.7 0-24.7-20-44.7-44.7-44.7-24.7 0-44.7 20-44.7 44.7 0 24.7 20 44.7 44.7 44.7zM797.2 341.139c-2.2 0-4 1.8-4 4v154.7c0 2.2 1.8 4 4 4h68.7c2.2 0 4-1.8 4-4v-154.7c0-2.2-1.8-4-4-4h-68.7zM831.8 614.939c24.7 0 44.7-20 44.7-44.7 0-24.7-20-44.7-44.7-44.7-24.7 0-44.7 20-44.7 44.7 0 24.7 20 44.7 44.7 44.7zM700.4 341.139c-2.2 0-4 1.8-4 4v154.7c0 2.2 1.8 4 4 4h68.7c2.2 0 4-1.8 4-4v-154.7c0-2.2-1.8-4-4-4h-68.7zM735 614.939c24.7 0 44.7-20 44.7-44.7 0-24.7-20-44.7-44.7-44.7-24.7 0-44.7 20-44.7 44.7 0 24.7 20 44.7 44.7 44.7z" fill="#00F2A0"/>
  <path d="M45.2998 66.8389h34.6c33.3002 0 53.0002 19 53.0002 50.9001 0 32.3-20.2 51.2-53.2002 51.2h-34.4V66.8389zm35.1 89.7001c24.2002 0 37.9002-14.1 37.9002-38.9 0-24.5001-13.7-38.3001-37.9002-38.3001h-21.1v77.3001h21.1v-.1zM151.4 66.8389h14V169.039h-14V66.8389zM188.9 66.8389h72.5v12.5h-58.5v31.5001h52.6v11.9h-52.6v33.9h59.8v12.5h-73.8V66.8389zM359.2 369.938h14v89.7h56.7v12.5h-70.7v-102.2zM442 421.039c0-30.5 21.7-53.2 50.9-53.2 29.1 0 50.8 22.7 50.8 53.2 0 30.8-21.4 53.199-50.8 53.199-29.5 0-50.9-22.399-50.9-53.199zm87.2 0c0-23.9-15.1-40.601-36.2-40.601s-36.2 16.701-36.2 40.601c0 24.1 15 40.599 36.2 40.599 21.2 0 36.2-16.499 36.2-40.599zm-56.1-81.101h13.7v17.8h-13.7v-17.8zm26.1 0H513v17.8h-13.7v-17.8h-.1zM562.9 448.438l12.2-8.4c5.6 14 17.2 21.8 32.6 21.8 14.3 0 23.5-6.9 23.5-17.6 0-9-5.9-13.9-21.4-17.4l-15.7-3.6c-17.4-3.9-26.6-13.2-26.6-26.7 0-17.2 15-28.7 37.4-28.7 16.5 0 31.1 6.9 39.9 19.9l-11.9 7.8c-6.6-10.1-17.2-15.4-29.8-15.4-13.2 0-21.6 5.7-21.6 15.3 0 8 5.7 12.5 19.7 15.7l15.7 3.6c18.6 4.2 28.4 14.1 28.4 28.7 0 18.5-15.5 30.8-38.6 30.8-20.3 0-36.5-9.7-43.8-25.8zM358.5 571.039v-65.4h14v65.1c0 17.9 9.1 26.6 26.6 26.6s26.5-8.7 26.5-26.6v-65.1h14v65.4c0 25.3-14.6 38.9-40.4 38.9-26.2 0-40.7-13.6-40.7-38.9zM457 505.639h15.8l42 61.9c5.9 8.7 9.5 14.4 13.2 20.2h.4c-.1-5.3-.1-9.1-.1-18.6v-63.5h13.9v102.2h-15.8l-41.7-61.6c-7.3-10.6-9.9-14.6-13.4-20.4h-.4c.1 6.3.1 13.2.1 18.9v63.1h-14v-102.2zM653.2 555.039v52.8h-12.6v-13.7c-7.3 9.5-20.2 15.8-35.1 15.8-29.1 0-50.4-21.8-50.4-52.8 0-31.3 22.4-53.6 52.2-53.6 22.5 0 36.8 10.1 45.8 25.6l-13.3 7.4c-5.6-11.2-16-20.4-33.3-20.4-20.6 0-36.7 16.7-36.7 40.6 0 24.1 15.8 41 36.8 41 18.3 0 33.3-13.3 33.3-29v-1.5h-38.2v-12.2h51.5z" fill="#242424"/>
  <path d="M633.5 49.8385l-34.3 34.3c-23.7-23.6-56.3-38.2-92.3-38.2-65 0-119 47.6-129.1 109.7995h66c8.8-26.4 33.7-45.5 63.1-45.5 18.3 0 34.8 7.4 46.8 19.4L519 164.339c-1.7 1.7-.5 4.7 2 4.7h114.4c1.5 0 2.8-1.201 2.8-2.801V51.8385c.1-2.5-2.9-3.7-4.7-2zM507 243.239c-18.4 0-35.1-7.5-47.1-19.7l33.9-33.9c1.7-1.7.5-4.7-2-4.7H441v-.3h-64.6c0 .3.1.6.1.9-.6.5-1 1.3-1 2.1v113.5c0 2.5 3 3.7 4.7 2l34.2-34.2c23.7 23.8 56.4 38.5 92.6 38.5 64.1 0 117.5-46.3 128.6-107.2h-66.5c-9.5 25.1-33.8 43-62.1 43z" fill="#7D47FF"/>
  <path d="M822.7 184.539h-83.2c-26.1 0-47.3 21.2-47.3 47.3v69c0 2.3 1.9 4.1 4.1 4.1h169.4c2.3 0 4.1-1.9 4.1-4.1v-69c.1-26.1-21-47.3-47.1-47.3zM926.1 138.139c-21.7 0-39.3 17.6-39.3 39.3v123.5c0 2.3 1.9 4.1 4.1 4.1h70.3c2.3 0 4.1-1.9 4.1-4.1v-123.6c0-21.7-17.6-39.2-39.2-39.2zM937.833 124.069c24.394-6.479 38.917-31.506 32.438-55.8999-6.479-24.3939-31.506-38.9168-55.9-32.4379-24.394 6.479-38.917 31.5063-32.438 55.9002 6.479 24.3936 31.506 38.9166 55.9 32.4376zM781.9 172.638c29.05 0 52.6-23.549 52.6-52.6 0-29.0497-23.55-52.5995-52.6-52.5995s-52.6 23.5498-52.6 52.5995c0 29.051 23.55 52.6 52.6 52.6zM173.5 447.338c-21.2 0-38.3 17.2-38.3 38.3v120.4c0 2.2 1.8 4 4 4h68.5c2.2 0 4-1.8 4-4v-120.4c.1-21.2-17-38.3-38.2-38.3zM271 447.338c-21.2 0-38.3 17.2-38.3 38.3v120.4c0 2.2 1.8 4 4 4h68.5c2.2 0 4-1.8 4-4v-120.4c.1-21.2-17.1-38.3-38.2-38.3zM271 435.239c24.6 0 44.6-20 44.6-44.6s-20-44.6-44.6-44.6-44.6 20-44.6 44.6 20 44.6 44.6 44.6zM173.5 346.039c-24.6 0-44.6 20-44.6 44.6s20 44.6 44.6 44.6 44.6-20 44.6-44.6-20-44.6-44.6-44.6zM76.1999 509.338c-21.2 0-38.3 17.2-38.3 38.3v58.1c0 2.2 1.8 4 4 4H110.4c2.2 0 4-1.8 4-4v-58.1c.1-21.1-17.0001-38.3-38.2001-38.3zM76.2001 408.039c-24.6 0-44.6 20-44.6 44.6s20 44.6 44.6 44.6c24.5999 0 44.5999-20 44.5999-44.6s-20-44.6-44.5999-44.6z" fill="#242424"/>
</svg>
