<svg width="1000" height="1000" viewBox="0 0 1000 1000" fill="none" xmlns="http://www.w3.org/2000/svg">
  <path d="M150.4 542.8c1.4 1.2 4.2 1.2 4.2 1.2H230s2.5.3 3.9-1.3c1.1-1.2.7-6.3.9-7.8 2.1-16.8 16.7-13.3 59.4-39.1 26.7-16.1 44.7-30.9 44.7-67.3 0-51.7-47.6-96.7-132.9-96.7-78.1 0-123.5001 32.6-148.4001 82.9-1.3 2.7-2.1 5.2-1.1 7.7s5.4 3.9 5.4 3.9L120.6 450.7s4.6 1.7 6.9.6c2.3-1.1 2.6-2.3 3.7-4.5 15.8-30 37.3-43.3 72-43.3 30.3 0 47.8 11.6 47.8 25.4 0 18.6-15.3 20-39.2 33.3-37.7 21.2-62.8 25.9-62.8 68.7v7.1c0 .3 0 3.7 1.4 4.8zM192 651.2c26.2 0 47.5-21.3 47.5-47.5s-21.3-47.5-47.5-47.5-47.5 21.3-47.5 47.5c0 26.3 21.3 47.5 47.5 47.5z" fill="#FF523D"/>
  <path d="M38.5 44.2002h34.6c33.3 0 53.1 19 53.1 51C126.2 127.5 106 146.4 73 146.4H38.5V44.2002zM73.6 134c24.2 0 37.9-14.1 37.9-38.8998 0-24.5-13.7-38.4-37.9-38.4H52.5V134h21.1zM144.6 44.2002h14V146.4h-14V44.2002zM182.1 44.2002h72.5v12.5h-58.5v31.5h52.6V100.1h-52.6V134h59.8v12.5h-73.8V44.2002zM124.3 180v102.2h-14v-44.9H52.5v44.9h-14V180h14v44.8h57.8V180h14zM147.7 180h72.5v12.5h-58.5V224h52.6v11.9h-52.6v33.9h59.8v12.5h-73.8V180zM325.2 281.8v.4h-16c-2.2-9-2.7-17.8-4.2-28.6-1.3-9-8.4-14.1-19.9-14.1h-30v42.7h-14V180h46.6c21.7 0 34.2 10.4 34.2 28.8 0 13.3-7.6 22.4-20.7 24.8 9.7 1.1 15.7 6.7 17.4 16.1 2.2 13.2 2.6 22.6 6.6 32.1zm-17.7-72.2c0-10.6-7-17.4-19.6-17.4h-32.6v35.4h31.4c13.1 0 20.8-6.4 20.8-18z" fill="#242424"/>
  <path d="M650.5 186.1l-37.1 25.5-87-126.5999c-1.2-1.7-3.5-2.1-5.1-1l-1.5 1.1c-.3.1-.6.2-.9.4L449.1 133.5 388 44.6001c-1.2-1.7-3.5-2.1-5.1-1l-69.2 47.6c-1.7 1.2-2.1 3.5-.9 5.1L423.7 258c1.2 1.7 3.5 2.1 5.1 1l69.2-47.6c.6-.4 1-.9 1.3-1.5l1.4-.9 37.4 54.5-34.3 23.6c-1.7 1.2-1.4 2.4.6 2.8L626 312.3c2 .4 3.9-.9 4.3-3l22.5-121.6c.5-2-.6-2.7-2.3-1.6z" fill="#7D47FF"/>
  <path d="M834.4 128.3c-21.8 0-39.5 17.7-39.5 39.5v124.1c0 2.3 1.9 4.2 4.2 4.2h70.6c2.3 0 4.2-1.9 4.2-4.2V167.8c-.1-21.8-17.7-39.5-39.5-39.5zM934.8 128.3c-21.8 0-39.5 17.7-39.5 39.5v124.1c0 2.3 1.9 4.2 4.2 4.2h70.6c2.3 0 4.2-1.9 4.2-4.2V167.8c0-21.8-17.7-39.5-39.5-39.5zM934.8 115.8c25.4 0 45.9-20.6 45.9-45.9 0-25.4-20.6-45.9-45.9-45.9-25.3 0-45.9 20.6-45.9 45.9 0 25.4 20.5 45.9 45.9 45.9zM834.4 24c-25.4 0-45.9 20.6-45.9 45.9 0 25.4 20.6 45.9 45.9 45.9 25.4 0 45.9-20.6 45.9-45.9 0-25.4-20.6-45.9-45.9-45.9zM734.2 192.2c-21.8 0-39.5 17.7-39.5 39.5v59.8c0 2.3 1.9 4.1 4.2 4.1h70.6c2.3 0 4.2-1.9 4.2-4.1v-59.8c-.1-21.8-17.8-39.5-39.5-39.5zM734.2 87.8999c-25.4 0-45.9 20.6001-45.9 45.9001 0 25.4 20.6 45.9 45.9 45.9 25.4 0 45.9-20.6 45.9-45.9 0-25.3-20.6-45.9001-45.9-45.9001zM391.4 447.5h43.1l9.6 27.4h14.8l-36.4-99.2h-18.6l-36.6 99.2h14.5l9.6-27.4zm21.6-61.8l17.5 50.3h-35l17.5-50.3zM541.3 438.9c0 17.4-8.9 25.8-26.2 25.8-17.3 0-26.3-8.4-26.3-25.8v-63.2h-13.9v63.4c0 24.6 14.4 37.8 40.2 37.8 25.6 0 40-13.2 40-37.8v-63.4h-13.8v63.2zM629.1 419.2l-15.5-3.5c-13.9-3.1-19.5-7.5-19.5-15.2 0-9.2 8.3-14.8 21.3-14.8 12.5 0 23 5.2 29.5 14.9l11.8-7.6c-8.7-12.6-23.1-19.3-39.5-19.3-22.2 0-37 11.1-37 27.8 0 13.2 9.1 22.1 26.3 25.9L622 431c15.4 3.4 21.2 8.1 21.2 16.8 0 10.5-9.1 17.1-23.3 17.1-15.2 0-26.7-7.6-32.3-21.2l-12 8.2c7.2 15.6 23.3 25 43.3 25 22.9 0 38.2-12 38.2-29.9.1-14.1-9.6-23.7-28-27.8zM685.5 474.9h13.8v-41.4h51.1v-11.6h-51.1v-34.1H756v-12.1h-70.5v99.2zM818.2 373.7c-28.9 0-50.4 22-50.4 51.6 0 29.9 21.2 51.6 50.4 51.6 29.1 0 50.3-21.7 50.3-51.6-.1-29.6-21.5-51.6-50.3-51.6zm0 91c-21.1 0-35.9-16-35.9-39.4 0-23.2 15-39.4 35.9-39.4s35.9 16.2 35.9 39.4c-.1 23.4-14.9 39.4-35.9 39.4zM903.4 433.5H933c11.4 0 18.4 5 19.7 13.7 1.5 10.5 1.9 19 4.2 27.7h15.8v-.4c-4-9.2-4.4-18.3-6.5-31.1-1.7-9.1-7.6-14.5-17.2-15.6 13-2.3 20.5-11.1 20.5-24 0-17.9-12.3-28-33.8-28h-46.1V475h13.9v-41.5h-.1zm0-45.9h32.3c12.5 0 19.4 6.5 19.4 16.8 0 11.3-7.6 17.5-20.6 17.5h-31v-34.3h-.1zM409.9 507.4h-33.6v99.2h33.4c32.1 0 51.6-18.3 51.6-49.7.1-31-19.1-49.5-51.4-49.5zm.5 87.1h-20.5v-75h20.5c23.5 0 36.8 13.4 36.8 37.2.1 24.1-13.3 37.8-36.8 37.8zM495.6 561.6h51.1v-11.5h-51.1v-30.6h56.8v-12.1H482v99.2h71.6v-12.1h-58v-32.9zM633.7 559.5c12.8-2.3 20.1-11.1 20.1-24 0-17.9-12.1-28-33.1-28h-45.2v99.2H589v-41.4h29.1c11.1 0 18.1 5 19.3 13.7 1.5 10.5 1.9 19 4.1 27.7H657v-.4c-3.9-9.2-4.3-18.3-6.4-31.1-1.7-9.2-7.5-14.7-16.9-15.7zm-14.2-5.9H589v-34.4h31.7c12.2 0 19 6.5 19 16.8 0 11.4-7.5 17.6-20.2 17.6zM741.1 570.6c0 17.4-8.7 25.8-25.7 25.8s-25.8-8.4-25.8-25.8v-63.2H676v63.4c0 24.6 14.1 37.8 39.4 37.8 25.1 0 39.3-13.2 39.3-37.8v-63.4h-13.6v63.2zM848.7 569c0 9.2 0 12.9.1 18.1h-.4c-3.5-5.6-7.1-11.1-12.8-19.6l-40.7-60h-15.4v99.2H793v-61.3c0-5.6 0-12.2-.1-18.3h.4c3.4 5.7 6 9.5 13 19.8l40.5 59.8h15.3v-99.2h-13.4V569zM928 555.4v11.8h37.1v1.5c0 15.2-14.5 28.1-32.3 28.1-20.4 0-35.7-16.4-35.7-39.8 0-23.2 15.6-39.4 35.6-39.4 16.8 0 26.9 9 32.3 19.8l12.9-7.2c-8.7-15.1-22.5-24.9-44.4-24.9-28.9 0-50.7 21.6-50.7 52 0 30 20.6 51.2 48.9 51.2 14.5 0 27-6.1 34.1-15.4v13.3H978v-51.2h-50v.2z" fill="#242424"/>
</svg>
