<svg id="Ebene_1" data-name="Ebene 1" xmlns="http://www.w3.org/2000/svg" viewBox="0 0 1000 1000"><defs><style>.cls-1{fill:#7d47ff}.cls-2{fill:#1d1d1b}.cls-3{fill:#00f2a0}</style></defs><path class="cls-1" d="M825.26 788.61a41.32 41.32 0 00-41.32 41.32v129.92a4.35 4.35 0 004.35 4.35h73.94a4.35 4.35 0 004.35-4.35V829.93a41.32 41.32 0 00-41.32-41.32z"/><rect class="cls-1" x="888.3" y="685.46" width="82.64" height="165.69" rx="4.35"/><path class="cls-1" d="M929.89 874.58A48.11 48.11 0 10978 922.69a48.11 48.11 0 00-48.11-48.11zM720.09 788.61a41.32 41.32 0 00-41.32 41.32v129.92a4.35 4.35 0 004.35 4.35h73.94a4.35 4.35 0 004.35-4.35V829.93a41.32 41.32 0 00-41.32-41.32zM720.09 679.33a48.11 48.11 0 1048.11 48.11 48.11 48.11 0 00-48.11-48.11zM825.26 679.33a48.11 48.11 0 1048.11 48.11 48.11 48.11 0 00-48.11-48.11z"/><path class="cls-2" d="M601.66 833.15a51 51 0 0151 51v74.45a4.46 4.46 0 01-4.45 4.46h-182.8a4.46 4.46 0 01-4.45-4.46v-74.47a51 51 0 0151-51zM400.41 783.05a42.35 42.35 0 0142.36 42.35v133.18a4.46 4.46 0 01-4.46 4.45h-75.79a4.46 4.46 0 01-4.46-4.45V825.4a42.35 42.35 0 0142.35-42.35M400.41 769.67a49.32 49.32 0 10-49.31-49.31 49.32 49.32 0 0049.31 49.31M556 820.31a56.71 56.71 0 10-56.71-56.71A56.72 56.72 0 00556 820.31"/><path class="cls-3" d="M178.75 787.12a41.34 41.34 0 0141.33 41.33v129.92a4.35 4.35 0 01-4.35 4.35h-73.95a4.35 4.35 0 01-4.35-4.35V828.45a41.33 41.33 0 0141.32-41.33M73.59 787.12a41.33 41.33 0 0141.32 41.33v129.92a4.35 4.35 0 01-4.35 4.35H36.61a4.35 4.35 0 01-4.35-4.35V828.45a41.34 41.34 0 0141.33-41.33M73.59 774.07A48.11 48.11 0 1025.48 726a48.11 48.11 0 0048.11 48.11M178.75 774.07a48.11 48.11 0 10-48.1-48.07 48.1 48.1 0 0048.1 48.11M283.7 854.07a41.32 41.32 0 0141.3 41.32v62.66a4.34 4.34 0 01-4.35 4.35h-73.92a4.35 4.35 0 01-4.35-4.35v-62.66a41.32 41.32 0 0141.32-41.32M283.7 841a48.12 48.12 0 10-48.11-48.11A48.12 48.12 0 00283.7 841"/></svg>