<svg viewbox="0 0 257 249" width="257" height="249" fill="none" xmlns="http://www.w3.org/2000/svg">
  <path fill-rule="evenodd" clip-rule="evenodd" d="M0 184.68L64.8217 249 129 185.32 64.1758 121 0 184.68z" fill="#7D47FF"/>
  <path fill-rule="evenodd" clip-rule="evenodd" d="M165.279 0L140 25.0609 230.721 115 256 89.9391 165.279 0z" fill="#00F2A0"/>
  <path fill-rule="evenodd" clip-rule="evenodd" d="M230.721 0L140 89.9391 165.279 115 256 25.0609 230.721 0z" fill="#00F2A0"/>
  <path fill-rule="evenodd" clip-rule="evenodd" d="M198 172.045c8.951 0 16.209 7.098 16.209 15.853v49.841c0 .923-.764 1.67-1.708 1.67h-29.002c-.944 0-1.708-.747-1.708-1.67v-49.841c0-8.755 7.258-15.853 16.209-15.853zM223.694 131.886c-.941 0-1.705.747-1.705 1.668v60.144c0 .919.764 1.666 1.705 1.666h29.007c.942 0 1.706-.747 1.706-1.666v-60.144c0-.921-.764-1.668-1.706-1.668h-29.007zM238.198 242c10.385 0 18.802-8.409 18.802-18.784 0-10.373-8.417-18.784-18.802-18.784s-18.802 8.411-18.802 18.784c0 10.375 8.417 18.784 18.802 18.784zM157.802 172.045c8.952 0 16.209 7.098 16.209 15.853v49.841c0 .923-.764 1.67-1.708 1.67h-29.002c-.944 0-1.708-.747-1.708-1.67v-49.841c0-8.755 7.258-15.853 16.209-15.853z" fill="#242424"/>
  <mask id="a" maskUnits="userSpaceOnUse" x="139" y="129" width="37" height="38">
    <path fill-rule="evenodd" clip-rule="evenodd" d="M139 129.048h36.921v37.283H139v-37.283z" fill="#fff"/>
  </mask>
  <g mask="url(#a)">
    <path fill-rule="evenodd" clip-rule="evenodd" d="M157.46 166.331c10.197 0 18.461-8.346 18.461-18.642 0-10.294-8.264-18.641-18.461-18.641-10.196 0-18.46 8.347-18.46 18.641 0 10.296 8.264 18.642 18.46 18.642z" fill="#242424"/>
  </g>
  <path fill-rule="evenodd" clip-rule="evenodd" d="M198 166.864c10.385 0 18.802-8.41 18.802-18.784 0-10.373-8.417-18.785-18.802-18.785s-18.802 8.412-18.802 18.785c0 10.374 8.417 18.784 18.802 18.784z" fill="#242424"/>
</svg>
