<svg width="60" height="60" fill="none" xmlns="http://www.w3.org/2000/svg">
  <path fill-rule="evenodd" clip-rule="evenodd" d="M30 0C13.4315 0 0 13.4315 0 30s13.4315 30 30 30 30-13.4315 30-30S46.5685 0 30 0zm-6.5959 14.0967C25.1108 14.019 25.6561 14 30.0015 14h-.005c4.3467 0 4.8901.019 6.5967.0967 1.7034.078 2.8667.3476 3.8867.7433 1.0534.4083 1.9434.955 2.8334 1.845.89.8894 1.4367 1.782 1.8467 2.8344.3933 1.0173.6633 2.18.7433 3.8834.0767 1.7066.0967 2.252.0967 6.5974 0 4.3453-.02 4.8893-.0967 6.596-.08 1.7027-.35 2.8657-.7433 3.8834-.41 1.052-.9567 1.9447-1.8467 2.834-.889.89-1.7803 1.4381-2.8324 1.8467-1.018.3957-2.182.6654-3.8853.7434-1.7067.0776-2.2504.0966-6.5961.0966-4.345 0-4.8901-.019-6.5967-.0966-1.7031-.078-2.8661-.3477-3.8841-.7434-1.0517-.4086-1.9443-.9567-2.8333-1.8467-.8897-.8893-1.4364-1.782-1.8454-2.8343-.3953-1.0174-.665-2.18-.7433-3.8834C14.0193 34.8892 14 34.3455 14 30.0002c0-4.3454.02-4.8911.0963-6.5978.0767-1.7027.3467-2.8657.7434-3.8833.41-1.0521.9567-1.9447 1.8467-2.8341.8893-.8896 1.782-1.4363 2.8343-1.845 1.0174-.3957 2.18-.6653 3.8834-.7433z" fill="#3E3948"/>
  <path fill-rule="evenodd" clip-rule="evenodd" d="M28.5662 16.8834c.2787-.0005.5785-.0003.9021-.0002l.5333.0002c4.272 0 4.7784.0153 6.4654.092 1.56.0713 2.4067.332 2.9707.551.7466.29 1.279.6366 1.8387 1.1966.56.5601.9066 1.0934 1.1973 1.8401.219.5633.48 1.41.551 2.97.0767 1.6867.0933 2.1934.0933 6.4634s-.0166 4.7767-.0933 6.4634c-.0713 1.56-.332 2.4067-.551 2.97-.29.7467-.6373 1.2784-1.1973 1.8381-.5601.56-1.0917.9066-1.8387 1.1966-.5634.22-1.4107.48-2.9707.5514-1.6867.0766-2.1934.0933-6.4654.0933-4.2724 0-4.7787-.0167-6.4654-.0933-1.56-.072-2.4067-.3327-2.9711-.5517-.7466-.29-1.28-.6367-1.84-1.1967s-.9067-1.092-1.1973-1.839c-.219-.5633-.48-1.41-.551-2.97-.0767-1.6867-.092-2.1934-.092-6.4661s.0153-4.7767.092-6.4634c.0713-1.56.332-2.4067.551-2.9707.29-.7467.6373-1.28 1.1973-1.84s1.0934-.9067 1.84-1.1974c.564-.22 1.4111-.48 2.9711-.5516 1.476-.0667 2.048-.0867 5.03-.09v.004zm9.9761 2.6567c-1.06 0-1.92.859-1.92 1.9193 0 1.06.86 1.92 1.92 1.92s1.92-.86 1.92-1.92-.86-1.92-1.92-1.92v.0007zM21.7848 30.0002c0-4.5377 3.6791-8.2168 8.2168-8.2168h-.0004c4.5377 0 8.2158 3.6791 8.2158 8.2168 0 4.5377-3.6777 8.2151-8.2154 8.2151-4.5377 0-8.2168-3.6774-8.2168-8.2151z" fill="#3E3948"/>
  <path fill-rule="evenodd" clip-rule="evenodd" d="M30.0014 24.6668c2.9453 0 5.3333 2.3877 5.3333 5.3334 0 2.9453-2.388 5.3334-5.3333 5.3334-2.9457 0-5.3334-2.3881-5.3334-5.3334 0-2.9457 2.3877-5.3334 5.3334-5.3334z" fill="#3E3948"/>
</svg>
