<svg width="27" height="27" fill="none" xmlns="http://www.w3.org/2000/svg" viewbox="0 0 27 27">
  <path fill-rule="evenodd" clip-rule="evenodd" d="M11.6815.00400004c.2787-.00043616.5785-.00030162.902-.00015644l.5333.00015644c4.272 0 4.7784.01533346 6.4654.09200096 1.56.071334 2.4067.332003 2.9707.551006.7467.290003 1.279.636673 1.8387 1.196683.56.56.9067 1.09334 1.1973 1.84002.219.56333.48 1.41001.551 2.97003.0767 1.68668.0934 2.19335.0934 6.46336 0 4.2701-.0167 4.7768-.0934 6.4634-.0713 1.5601-.332 2.4067-.551 2.9701-.29.7466-.6373 1.2783-1.1973 1.838-.56.56-1.0917.9067-1.8387 1.1967-.5633.22-1.4107.48-2.9707.5513-1.6867.0767-2.1934.0933-6.4654.0933-4.27237 0-4.77871-.0166-6.4654-.0933-1.56001-.072-2.40669-.3327-2.97103-.5517-.74667-.29-1.28001-.6366-1.84002-1.1966-.56-.5601-.906674-1.0921-1.197343-1.8391-.219003-.5633-.480005-1.41-.551006-2.97C.0153335 17.8925 0 17.3858 0 13.1131c0-4.27267.0153335-4.77668.092001-6.46336.071334-1.56002.332003-2.4067.551006-2.9707.290003-.74668.637343-1.28002 1.197343-1.84002C2.40036 1.27901 2.9337.932343 3.68037.641673 4.24438.421671 5.09139.161668 6.6514.0900009 8.12742.0233336 8.69942.00333337 11.6815 0v.00400004zM21.6576 2.66069c-1.0601 0-1.9201.85901-1.9201 1.91936 0 1.06001.86 1.92002 1.9201 1.92002 1.06 0 1.92-.86001 1.92-1.92002 0-1.06001-.86-1.92002-1.92-1.92002v.00066zM4.90005 13.1208c0-4.53771 3.67904-8.21675 8.21675-8.21675h-.0003c4.5377 0 8.2157 3.67904 8.2157 8.21675 0 4.5377-3.6777 8.2151-8.2154 8.2151-4.53771 0-8.21675-3.6774-8.21675-8.2151z" />
  <path fill-rule="evenodd" clip-rule="evenodd" d="M13.1166 7.78741c2.9454 0 5.3334 2.38769 5.3334 5.33339 0 2.9454-2.388 5.3334-5.3334 5.3334-2.9457 0-5.3334-2.388-5.3334-5.3334 0-2.9457 2.3877-5.33339 5.3334-5.33339z"/>
</svg>
