<svg width="30" height="30" xmlns="http://www.w3.org/2000/svg" viewbox="0 0 30 30">
  <path d="M15 0c8.2842712 0 15 6.71572875 15 15 0 8.2842712-6.7157288 15-15 15-8.28427125 0-15-6.7157288-15-15C0 6.71572875 6.71572875 0 15 0zm-3.044315 12.2962177H9.17533847v8.391136H11.955685v-8.391136zm6.6428853-.2015851c-.9066989.0264993-1.7433629.498676-2.2347 1.2611673L16.289 13.479l.0000179-1.1827823h-2.8053947l.0032622.0650005c.0425093 1.0274812.0009886 7.6652031-.0029658 8.2804428l-.0002964.0456927h2.8053947v-4.6840072l-.0047496-.1711403c.003156-.1709951.0299684-.3410116.0798941-.5051603.2175475-.6047897.7851691-1.0130789 1.4277455-1.0269748 1.0269749 0 1.4277456.7764932 1.4277456 1.9036607v4.4836219H22v-4.8092481l-.0042696-.2453789c-.0850802-2.4108997-1.432364-3.5368943-3.2018958-3.5368943zm-7.8701449-3.83376762l-.1503896.00259786C9.62620548 8.26346284 9 8.88966701 9 9.71625653c-.00053239.39868497.16280097.78006957.45172931 1.05478837.25281229.2403789.58234169.3806063.92750429.3980921l.1737541-.0000868.1592955-.0059442c.8825231-.066881 1.4187431-.6898382 1.4187431-1.44684947.0009562-.4033095-.1657811-.78886848-.4603073-1.06439303-.2945263-.27552454-.6903329-.41621633-1.0926832-.38840066z" fill-rule="evenodd"/>
</svg>
