<svg xmlns="http://www.w3.org/2000/svg" viewBox="0 0 202.75587 201.53313" height="201.53313mm" width="202.75587mm">
  <g transform="matrix(2.21815 0 0 2.27892 -245.7221859 -419.1764503)">
    <path d="M156.56019 217.65079a12.067646 12.067646 0 0112.06765 12.065v37.69783a1.5160625 1.5160625 0 01-1.51342 1.51342h-21.10846a1.5160625 1.5160625 0 01-1.51341-1.51342v-37.69783a12.067646 12.067646 0 0112.06764-12.065" class="cls-1" fill="#00f2a0" stroke-width=".264583"/>
    <rect rx="1.4816667" height="48.38171" width="24.132645" y="187.53061" x="174.96727" class="cls-1" fill="#00f2a0" stroke-width=".264583"/>
    <path d="M187.11427 270.85585a14.049375 14.049375 0 10-14.04937-14.04938 14.052021 14.052021 0 0014.04937 14.04938M125.85 217.65079a12.067646 12.067646 0 0112.065 12.065v37.69783a1.5134166 1.5134166 0 01-1.51341 1.51342h-21.10581a1.5134166 1.5134166 0 01-1.51342-1.51342v-37.69783a12.067646 12.067646 0 0112.06764-12.065m0-3.81265a14.049375 14.049375 0 10-14.04937-14.04937A14.049375 14.049375 0 00125.85 213.83814m30.71019 0a14.049375 14.049375 0 10-14.04937-14.04937 14.049375 14.049375 0 0014.04937 14.04937" class="cls-1" fill="#00f2a0" stroke-width=".264583"/>
  </g>
</svg>
