<svg version="1.1" id="Ebene_1" xmlns="http://www.w3.org/2000/svg" x="0" y="0" viewBox="0 0 600 600" xml:space="preserve">
  <style>
    .st0{fill:#7d47ff}
  </style>
  <path class="st0" d="M469.46 253.11c39.31 0 71.17 31.87 71.17 71.18v222.36c0 4.93-4 8.93-8.93 8.93H407.2c-4.93 0-8.93-4-8.93-8.93V324.29c.01-39.31 31.88-71.18 71.19-71.18M107.65 229.8c45.65 0 82.65-37 82.65-82.65 0-45.65-37-82.65-82.65-82.65S25 101.51 25 147.15c0 45.65 37 82.65 82.65 82.65M290.01 312.99c45.65 0 82.65-37 82.65-82.65s-37-82.65-82.65-82.65-82.65 37-82.65 82.65 37.01 82.65 82.65 82.65M106.72 253.11c39.31 0 71.17 31.87 71.17 71.18v222.36c0 4.93-4 8.93-8.93 8.93H44.47c-4.93 0-8.93-4-8.93-8.93V324.29c0-39.31 31.87-71.18 71.18-71.18M289.45 332.8c39.31 0 71.17 31.87 71.17 71.18v142.67c0 4.93-4 8.93-8.93 8.93H227.2c-4.93 0-8.93-3.99-8.93-8.93V403.98c0-39.31 31.87-71.18 71.18-71.18M474.13 47.65l25.19 63.21c.72 1.82 2.4 3.06 4.32 3.2l66.68 4.92c2.78.21 4.88 2.67 4.67 5.51-.1 1.39-.74 2.67-1.78 3.57l-51.11 43.99c-1.47 1.27-2.11 3.27-1.65 5.18l16.02 66.25c.67 2.76-.98 5.56-3.69 6.24-1.32.33-2.72.11-3.88-.63l-56.77-36.03c-1.63-1.04-3.7-1.04-5.33 0l-56.77 36.03c-2.37 1.5-5.48.76-6.96-1.66-.72-1.18-.94-2.61-.61-3.96l16.02-66.25c.46-1.91-.18-3.91-1.65-5.18l-51.11-43.99c-2.13-1.84-2.4-5.09-.61-7.27.88-1.06 2.14-1.72 3.5-1.82l66.68-4.92c1.92-.14 3.59-1.38 4.32-3.2l25.19-63.21c1.05-2.64 4-3.91 6.58-2.83 1.24.54 2.24 1.56 2.75 2.85z"/>
</svg>
