<svg width="32" height="32" xmlns="http://www.w3.org/2000/svg">
  <path d="M17.5043732 16.7609329c0-5.3177842 5.0029154-8.5364431 9.7609329-9.7609329L28 9.09912536c-3.5685131 1.53935864-5.9125364 3.21865894-5.9125364 6.22740524 0 3.0087464 2.3440233 4.1982507 4.7930029 4.6530612.5247813.0699709.9446064.5947522.9446064 1.4693878 0 1.9591837-1.8892128 2.9037901-3.1836735 2.9037901-3.2186589 0-7.1370262-2.8338193-7.1370262-7.5918368zM4 16.7609329C4 11.4431487 9.10787172 8.2244898 13.7609329 7l.7346939 2.09912536C10.8571429 10.638484 8.58309038 12.3177843 8.58309038 15.3265306c0 3.0087464 2.34402332 4.1982507 4.82798832 4.6530612.4198251.0699709.9446064.5947522.9446064 1.4693878 0 1.9591837-1.8892128 2.9037901-3.2186589 2.9037901C8.02332362 24.3527697 4 21.5189504 4 16.7609329z" fill-rule="evenodd"/>
</svg>
