<svg width="195" height="79" fill="none" xmlns="http://www.w3.org/2000/svg" viewbox="0 0 195 79">
  <mask id="a" maskUnits="userSpaceOnUse" x="0" y="0" width="195" height="79">
    <path fill-rule="evenodd" clip-rule="evenodd" d="M0 0h195v79H0V0z" fill="#fff"/>
  </mask>
  <g mask="url(#a)">
    <path fill-rule="evenodd" clip-rule="evenodd" d="M192.028 69.464v.3437c0 3.5017-3.347 6.4723-7.445 6.4723-4.692 0-8.226-3.7834-8.226-9.1613 0-5.3456 3.597-9.067 8.195-9.067 3.879 0 6.194 2.0636 7.445 4.5652l2.971-1.6566c-2.002-3.4707-5.192-5.7216-10.229-5.7216-6.661 0-11.667 4.9709-11.667 11.9743 0 6.9092 4.755 11.787 11.261 11.787 3.347 0 6.225-1.4071 7.851-3.5328v3.0638H195V66.744h-11.511v2.72h8.539zm-24.335 9.067h3.347l-8.227-22.8233h-4.192l-8.258 22.8233h3.285l2.158-6.316h9.728l2.159 6.316zm-3.067-8.974h-7.913l3.973-11.5673 3.94 11.5673zm-19.987-11.0362h7.727v-2.8131h-18.549v2.8131h7.695V78.531h3.127V58.5208zm-26.716 2.8763c0-2.1256 1.877-3.4074 4.817-3.4074 2.815 0 5.193 1.1887 6.663 3.4396l2.659-1.7508c-1.972-2.9086-5.224-4.4398-8.915-4.4398-5.005 0-8.351 2.5636-8.351 6.409 0 3.0327 2.064 5.0963 5.942 5.9711l3.504.8128c3.472.7817 4.786 1.8762 4.786 3.8776 0 2.4073-2.065 3.9386-5.255 3.9386-3.442 0-6.038-1.7509-7.289-4.8766l-2.721 1.8761C115.389 76.8422 119.018 79 123.554 79c5.161 0 8.633-2.7522 8.633-6.8781 0-3.2523-2.19-5.4722-6.35-6.4103l-3.503-.8128c-3.129-.7185-4.411-1.7186-4.411-3.5017zM111.167 11.38c0-7.12757-4.411-11.38-11.855-11.38h-7.7268v22.8233h7.6958c7.382 0 11.886-4.2202 11.886-11.4433zm-3.253-.031c0 5.5342-3.065 8.6922-8.4766 8.6922h-4.7238V2.78324h4.7238c5.4116 0 8.4766 3.09474 8.4766 8.56576zM89.8036 67.0877c0-7.1288-4.4109-11.38-11.8559-11.38h-7.7256V78.531h7.6946c7.3817 0 11.8869-4.2214 11.8869-11.4433zm-3.2538-.031c0 5.533-3.0652 8.691-8.4767 8.691h-4.7238v-17.258h4.7238c5.4115 0 8.4767 3.096 8.4767 8.567zm-3.753-44.2334h3.5345V0h-3.0975v14.1632c0 2.1257 0 2.9707.0323 4.1582h-.0943c-.8132-1.2818-1.6264-2.5637-2.9399-4.5019L70.8478 0h-3.5345v22.8233h3.0962V8.72328c0-1.28182 0-2.81427-.031-4.22141h.0931c.7821 1.31404 1.3768 2.18888 3.0031 4.56513l9.3221 13.7563zm-12.5747 5.0986l-3.8473 15.3818c-.2818 1.0944-.5314 2.0946-.7821 3.22h-.1254c-.3129-1.1254-.5935-2.1256-.9063-3.189l-4.5363-15.4128h-3.0962l-4.4109 15.4128c-.3129 1.0634-.5624 2.0636-.8753 3.189h-.1253c-.2508-1.1254-.4693-2.1256-.7511-3.189l-3.8473-15.4128h-3.3159l6.0061 22.8232h3.4402l4.5673-15.5393c.3439-1.0622.5313-1.9382.8131-3.189h.1254c.3129 1.2508.5003 2.1268.8132 3.189l4.6294 15.5393h3.3159l6.0372-22.8232h-3.1284zm-9.4153-5.0986h3.347L55.9267 0h-4.1912l-8.2582 22.8233h3.2849l2.1577-6.3148h9.728l2.1589 6.3148zm-3.0652-8.9728h-7.9142L53.8 2.28197l3.9416 11.56853zM38.067 22.8233h3.5654v-.0931c-.9074-2.1268-1.0006-4.2214-1.4699-7.1598-.3749-2.0946-1.7206-3.3454-3.8783-3.596 2.9398-.5311 4.6294-2.56367 4.6294-5.53309C40.9136 2.31419 38.129 0 33.2811 0H22.8652v22.8233h3.1273v-9.5361h6.694c2.5648 0 4.1601 1.1577 4.4419 3.158.3439 2.4073.4382 4.3778.9386 6.3781zm-5.0677-12.1928h-7.0068V2.71998h7.2886c2.8144 0 4.3787 1.50142 4.3787 3.87768 0 2.59466-1.7207 4.03284-4.6605 4.03284zm-7.1632 45.0772h-3.1273v14.6001c0 5.6595 3.2527 8.6922 9.0702 8.6922 5.7876 0 9.0403-3.0327 9.0403-8.6922V55.7077h-3.1285v14.538c0 4.0018-2.0012 5.94-5.9118 5.94-3.9094 0-5.9429-1.9382-5.9429-5.94v-14.538zm-9.8212-4.9626h3.5344V27.9219h-3.0962v14.162c0 2.1268 0 2.9706.031 4.1582h-.0943c-.8132-1.2818-1.6263-2.5637-2.9398-4.5019L4.06581 27.9219H.531361v22.8232H3.62758V36.644c0-1.2819 0-2.8131-.03104-4.2202h.09433c.78212 1.3128 1.37557 2.1876 3.00189 4.5639l9.32214 13.7574zm-2.0335-39.7709c1.9081-.469 3.9105-2.21989 3.9105-5.15829C17.8919 1.90721 15.0142 0 10.8219 0H0v22.8233h10.9162c4.5661 0 7.7256-2.251 7.7256-6.2838 0-2.8453-1.8138-5.0342-4.6604-5.5653zm-3.4091-1.2818H3.12727V2.68895h7.72563c2.1899 0 3.8163 1.18753 3.8163 3.43966 0 2.03133-1.4699 3.56379-4.0969 3.56379zm4.8169 6.5965c0 2.1578-1.3457 3.8454-4.5984 3.8454H3.12727v-7.8162h7.72563c3.2228 0 4.5363 1.9705 4.5363 3.9708zm-4.5673 39.4188H0V78.531h10.9162c4.5661 0 7.7256-2.251 7.7256-6.285 0-2.8441-1.8138-5.033-4.6604-5.5641 1.9081-.469 3.9105-2.2199 3.9105-5.1595 0-3.9075-2.8777-5.8147-7.07-5.8147zM3.12727 68.0258h7.72563c3.2228 0 4.5363 1.9693 4.5363 3.9708 0 2.1566-1.3457 3.8454-4.5984 3.8454H3.12727v-7.8162zm0-9.6292h7.72563c2.1899 0 3.8163 1.1876 3.8163 3.4385 0 2.0325-1.4699 3.5638-4.0969 3.5638H3.12727v-7.0023zM27.9317 47.9619v-7.5656h11.7616v-2.6579H27.9317v-7.0345h13.0751v-2.782H24.8044v22.8232h16.4842v-2.7832H27.9317zm21.5518 7.7458H45.949V78.531h3.0962V64.4298c0-1.2818 0-2.8131-.031-4.2202h.0943c.7821 1.3128 1.3756 2.1888 3.0031 4.5651l9.3209 13.7563h3.5345V55.7077h-3.0963v14.162c0 2.1269 0 2.9707.0311 4.1594h-.0943c-.8132-1.2818-1.6264-2.5648-2.9398-4.5031l-9.3842-13.8183zm60.6515 0H93.9315V78.531h16.4845v-2.7833H97.06v-7.5656h11.76v-2.6579H97.06v-7.0345h13.075v-2.782z"/>
  </g>
</svg>
