<svg xmlns="http://www.w3.org/2000/svg" width="258.216" height="283.46">
  <path d="M258.216 234.679l-65.514-65.514c12.829-17.597 20.61-39.05 20.61-62.5C213.313 47.707 165.571 0 106.718 0 47.741.001 0 47.708 0 106.666c0 58.889 47.741 106.631 106.718 106.631 20.226 0 38.96-5.96 55.084-15.775l66.794 66.776 29.62-29.619zM30.969 106.666c.053-41.817 33.862-75.679 75.749-75.714 41.799.036 75.609 33.897 75.645 75.714-.036 41.747-33.845 75.609-75.645 75.681-41.887-.072-75.697-33.934-75.749-75.681z"/>
</svg>
