<svg width="30" height="30" xmlns="http://www.w3.org/2000/svg" viewbox="0 0 30 30" >
  <path d="M11.9774194 11.6129032c-.9372952-.0045074-1.828139.407674-2.4314516 1.125L6.642742 10.7782258c.62388316-.92457857.72018095-2.1076657.25403226-3.12096777L9.9814517 5.55241931c.9351608.84505908 2.279885 1.06103488 3.4326365.55131483s1.8978698-1.6497759 1.9020409-2.91018581C15.3161291 1.42980028 13.8863288 0 12.1225807 0c-1.763748 0-3.19354833 1.42980028-3.19354836 3.19354833-.00085546.54552663.13647966 1.08238198.39919356 1.56048388L6.3161291 6.78629028c-.61641235-.61756079-1.45009351-.96927003-2.32258065-.97983871-1.14094497-2e-8-2.1952216.60868686-2.76569408 1.59677418-.57047249.98808732-.57047249 2.20546111 0 3.19354845.57047248.9880873 1.62474911 1.5967742 2.76569408 1.5967742.69469642-.0052218 1.36919505-.2342968 1.9233871-.6532258L9.001613 13.6451613c-.14501012.3699462-.21888408.7639406-.21774195 1.1612903C8.78387105 16.5701997 10.2136714 18 11.9774194 18c1.7637481 0 3.1935484-1.4298003 3.1935484-3.1935484 0-1.7637481-1.4298003-3.1935484-3.1935484-3.1935484z" fill="#06C" fill-rule="nonzero"/>
</svg>
