<svg width="30" height="24" fill="none" xmlns="http://www.w3.org/2000/svg">
  <path fill-rule="evenodd" clip-rule="evenodd" d="M14.1015 6.38438l.063 1.03806-1.0493-.12711C9.29608 6.80808 5.95956 5.15564 3.12667 2.3804L1.7417 1.00337l-.35673 1.01688C.629531 4.28706 1.11217 6.68097 2.686 8.29103c.83938.88977.65052 1.01688-.79741.48726-.50362-.16948-.944293-.29659-.986262-.23304-.14689.1483.356732 2.07615.755442 2.83875.54559 1.0593 1.65776 2.0974 2.87486 2.7117l1.02823.4873-1.21709.0212c-1.17513 0-1.2171.0212-1.09119.466.41969 1.3771 2.07745 2.8388 3.92408 3.4744l1.30103.4449-1.13316.6779c-1.67875.9745-3.65128 1.5253-5.62381 1.5677C.776422 21.2563 0 21.341 0 21.4046c0 .2118 2.56009 1.3982 4.04999 1.8643 4.46967 1.377 9.77871.7838 13.76571-1.5677 2.8329-1.6737 5.6658-4.9997 6.9878-8.2198.7135-1.716 1.427-4.85141 1.427-6.35555 0-.97451.0629-1.10162 1.2381-2.2668.6924-.67792 1.343-1.4194 1.4689-1.63125.2098-.40251.1888-.40251-.8814-.04237-1.7837.63555-2.0355.55081-1.1541-.40251.6505-.67793 1.4269-1.906658 1.4269-2.266804 0-.063556-.3148.04237-.6715.233035-.3777.211851-1.2171.529629-1.8466.720289l-1.1332.36015-1.0282-.69911c-.5666-.381329-1.364-.80503-1.7837-.93214-1.0702-.296591-2.707-.2542209-3.6722.08474-2.6231.95333-4.2809 3.41079-4.092 6.1013z"/>
</svg>
