<svg width="30" height="30" xmlns="http://www.w3.org/2000/svg">
  <path d="M15 0c8.2842712 0 15 6.71572875 15 15 0 8.2842712-6.7157288 15-15 15-8.28427125 0-15-6.7157288-15-15C0 6.71572875 6.71572875 0 15 0zm2.7081967 9.26220314c-.7648357-.00602695-1.5004495.29352288-2.0434378.83220176-.5429882.5386788-.8483899 1.2718824-.8483655 2.0367426-.005119.2253358.0258743.4500378.0918033.6655738-2.317788-.1151597-4.4780282-1.2077909-5.94426228-3.00655737-.24193141.44346387-.36822333.94073827-.36721311 1.44590167.00069241.9552848.47311342 1.8485899 1.26229508 2.3868852-.45236779-.0130952-.89424182-.1393449-1.2852459-.3672131v.0459016c.00312296 1.3646377.95980918 2.5413618 2.29508201 2.8229509-.2471945.064455-.501942.0953334-.7573771.0918032l-.55081967-.0459016c.3799995 1.1684485 1.45686737 1.9691964 2.68524587 1.9967213-1.0155324.7934742-2.26862707 1.2219517-3.55737702 1.2163935h-.68852459c1.31639549.8395119 2.84525111 1.2854281 4.40655741 1.2852459 5.2786885 0 8.1704918-4.3836066 8.1704918-8.1704918v-.390164c.5588552-.4091492 1.0406458-.9142523 1.4229508-1.4918033-.5246535.2307984-1.0822393.3779391-1.652459.4360656.6036083-.3518886 1.0538478-.9167345 1.2622951-1.58360655-.558592.34040234-1.1720906.58114235-1.8131148.71147545-.5342925-.58861039-1.2935957-.92237003-2.0885246-.91812476z" fill="#06C" fill-rule="evenodd"/>
</svg>
