<svg width="60" height="60" fill="none" viewbox="0 0 60 60" xmlns="http://www.w3.org/2000/svg">
  <path fill-rule="evenodd" clip-rule="evenodd" d="M30 0C13.4315 0 0 13.4315 0 30s13.4315 30 30 30 30-13.4315 30-30S46.5685 0 30 0zm-.8355 25.4224l-.063-1.038c-.1889-2.6905 1.4689-5.148 4.092-6.1013.9652-.339 2.602-.3814 3.6722-.0848.4197.1272 1.2171.5509 1.7837.9322l1.0282.6991 1.1332-.3602c.6295-.1906 1.4689-.5084 1.8466-.7202.3567-.1907.6715-.2966.6715-.2331 0 .3602-.7764 1.5889-1.4269 2.2668-.8814.9533-.6296 1.0381 1.1541.4025 1.0702-.3601 1.0912-.3601.8814.0424-.1259.2119-.7765.9533-1.4689 1.6313-1.1752 1.1651-1.2381 1.2922-1.2381 2.2668 0 1.5041-.7135 4.6395-1.427 6.3555-1.322 3.2201-4.1549 6.5461-6.9878 8.2198-3.987 2.3515-9.296 2.9447-13.7657 1.5677-1.4899-.4661-4.05-1.6525-4.05-1.8643 0-.0636.7764-.1483 1.7207-.1695 1.9726-.0424 3.9451-.5932 5.6238-1.5677l1.1332-.6779-1.301-.4449c-1.8467-.6356-3.5044-2.0973-3.9241-3.4744-.1259-.4448-.084-.466 1.0912-.466l1.2171-.0212-1.0283-.4873c-1.2171-.6143-2.3292-1.6524-2.8748-2.7117-.3987-.7626-.9024-2.6905-.7555-2.8388.042-.0635.4827.0636.9863.2331 1.4479.5296 1.6368.4025.7974-.4873-1.5738-1.61-2.0565-4.0039-1.301-6.2707l.3567-1.0169 1.385 1.377c2.8329 2.7752 6.1694 4.4277 9.9885 4.9149l1.0493.1271z"/>
</svg>
