<svg version="1.1" id="Ebene_1" xmlns="http://www.w3.org/2000/svg" x="0" y="0" viewBox="0 0 600 600" xml:space="preserve">
  <style>
    .st0{fill:#7d47ff}
  </style>
  <path class="st0" d="M210.53 283.43c-.01 0-.01 0-.01.01v271.12c0 .01 0 .01.01.01H382.4c.01 0 .01 0 .01-.01V283.44c0-.01 0-.01-.01-.01H210.53zm184.16 142.52c-.01 0-.01 0-.01.01v128.59c0 .01 0 .01.01.01h171.86c.01 0 .01 0 .01-.01V425.96c0-.01 0-.01-.01-.01H394.69zM26.38 375.38c-.01 0-.01 0-.01.01v180.06c0 .01 0 .01.01.01h171.86c.01 0 .01 0 .01-.01V375.39c0-.01 0-.01-.01-.01H26.38zM109.33 196.5l18.1 45.44c.52 1.31 1.72 2.2 3.1 2.3l47.93 3.53c2 .15 3.5 1.92 3.36 3.96-.07 1-.53 1.92-1.28 2.57l-36.74 31.62c-1.06.91-1.52 2.35-1.18 3.72l11.52 47.62c.48 1.99-.71 4-2.65 4.49-.95.24-1.96.08-2.79-.45l-40.81-25.9c-1.17-.74-2.66-.74-3.83 0l-40.81 25.9c-1.7 1.08-3.94.55-5-1.19-.52-.85-.68-1.87-.44-2.85l11.52-47.62c.33-1.37-.13-2.81-1.18-3.72L31.4 254.3c-1.53-1.32-1.73-3.66-.44-5.22.63-.76 1.54-1.24 2.51-1.31l47.93-3.53c1.38-.1 2.58-.99 3.1-2.3l18.1-45.44c.76-1.9 2.87-2.81 4.73-2.04.91.38 1.63 1.11 2 2.04zM482.2 274.43l14.48 36.35c.42 1.05 1.38 1.76 2.48 1.84l38.34 2.83c1.6.12 2.8 1.54 2.69 3.17-.06.8-.43 1.54-1.02 2.05l-29.39 25.29c-.85.73-1.21 1.88-.95 2.98l9.21 38.1c.38 1.59-.57 3.2-2.12 3.59-.76.19-1.56.06-2.23-.36l-32.65-20.72c-.94-.6-2.13-.6-3.07 0l-32.65 20.72c-1.36.86-3.15.44-4-.95-.41-.68-.54-1.5-.35-2.28l9.21-38.1c.27-1.1-.1-2.25-.95-2.98l-29.39-25.29c-1.23-1.06-1.38-2.93-.35-4.18.5-.61 1.23-.99 2.01-1.05l38.34-2.83c1.1-.08 2.06-.79 2.48-1.84l14.48-36.35c.6-1.52 2.3-2.25 3.78-1.63.75.31 1.32.9 1.62 1.64z"/>
  <g>
    <path class="st0" d="M301.92 47.47l24.64 61.85c.71 1.78 2.35 2.99 4.22 3.13l65.23 4.81c2.72.2 4.77 2.62 4.57 5.4-.1 1.36-.72 2.62-1.74 3.49l-50 43.03c-1.44 1.24-2.06 3.2-1.61 5.07l15.68 64.82c.65 2.7-.96 5.44-3.61 6.11-1.29.33-2.66.1-3.79-.61l-55.54-35.25c-1.6-1.01-3.62-1.01-5.22 0l-55.54 35.25c-2.32 1.47-5.37.75-6.81-1.62-.7-1.16-.92-2.55-.6-3.87l15.68-64.82c.45-1.86-.17-3.83-1.61-5.07l-50-43.03c-2.09-1.8-2.35-4.98-.59-7.11.86-1.04 2.09-1.68 3.42-1.78l65.23-4.81c1.88-.14 3.51-1.35 4.22-3.13l24.64-61.85c1.03-2.58 3.91-3.82 6.44-2.77 1.21.5 2.19 1.5 2.69 2.76z"/>
  </g>
</svg>
