<svg version="1.1" id="Ebene_1" xmlns="http://www.w3.org/2000/svg" x="0" y="0" viewBox="0 0 600 600" xml:space="preserve">
  <style>
    .st0{fill:#7d47ff}
  </style>
  <path class="st0" d="M108.94 374.94l-84.42 84.05c-.72.72-.49 1.44.51 1.62l76.57 13.45c1 .18 1.96 1.13 2.14 2.13l13.5 76.23c.18 1 .9 1.23 1.63.51l94.99-94.58c-42.53-16.9-78.95-46.18-104.92-83.41zM574.68 458.99l-85.91-85.54c-25.67 37.42-61.84 66.94-104.17 84.17l95.72 95.31c.72.72 1.45.49 1.63-.51l13.5-76.23c.18-1 1.13-1.96 2.14-2.13l76.57-13.45c1.01-.18 1.24-.91.52-1.62z"/>
  <path d="M298.34 42.21c-107.83 0-195.56 88.86-195.56 198.08 0 109.22 87.73 198.07 195.56 198.07S493.9 349.5 493.9 240.29c0-109.23-87.73-198.08-195.56-198.08zm-.56 282.36c-46.33 0-83.89-37.56-83.89-83.89s37.56-83.89 83.89-83.89 83.89 37.56 83.89 83.89c-.01 46.33-37.57 83.89-83.89 83.89z" fill="#7d47ff" stroke="#7d47ff" stroke-width="4"/>
</svg>
