<svg width="30" height="30" xmlns="http://www.w3.org/2000/svg">
  <path d="M15 0c8.2842712 0 15 6.71572875 15 15 0 8.2842712-6.7157288 15-15 15-8.28427125 0-15-6.7157288-15-15C0 6.71572875 6.71572875 0 15 0zm3.5935379 9c-.4917355.02892562-.6652893.5785124-.8677686.95454545-1.3595041 2.45867765-2.892562 5.06198345-4.1942149 7.43388435l2.3429752 4.2520661c.1735537.3471074.4917356 1.2438016.8677686 1.3595041l2.516529-.1446281c.0867768-.1735537-.1157025-.4917355-.231405-.6942149-.8966942-1.6198347-1.7644628-3.2107438-2.6033058-4.8016529 1.3016529-2.3719008 2.6900827-4.7438016 4.0206612-7.1446281.1157024-.26033055.607438-.80991732.4338843-1.0702479zM10.06048 11.7768595c-.11570244.0289256-.20247929-.2024793-.26033053.1446281s.17355371.5495868.26033053.7231405l.7809918 1.3016529c.1490616.2026964.2661272.4270721.3471074.6652892-.0289256.0867769-.2314049.3471075-.2892562.46281l-1.67768593 3.0082644c-.08677686.1735537-.2892562.3471075-.23140496.5785124.05744693.09292.15246328.1562643.26033058.1735537h2.11157021c.4338843-.0578512.6652893-.6652892.8677686-1.0123967l1.8223141-3.2396694c-.3471075-.6363636-1.0413223-1.822314-1.2148761-2.1115702-.1735537-.2892562-.3181818-.6942149-.6942148-.6942149z" fill="#06C" fill-rule="evenodd"/>
</svg>
