<?xml version="1.0" encoding="UTF-8"?>
<svg width="32px" height="32px" viewBox="0 0 32 32" version="1.1" xmlns="http://www.w3.org/2000/svg" xmlns:xlink="http://www.w3.org/1999/xlink">
    <!-- Generator: Sketch 61.2 (89653) - https://sketch.com -->
    <title>Style/Icons/calendar</title>
    <desc>Created with Sketch.</desc>
    <g id="Style/Icons/calendar" stroke="none" stroke-width="1" fill-rule="evenodd">
        <path d="M24.8525353,7.10357246 C25.4047484,7.0904824 25.9399525,7.29511928 26.3425658,7.67329 C26.7248557,8.06311204 26.9575994,8.57514813 27,9.11949607 L27,24.326572 C27.0046382,24.8819589 26.7641023,25.4111377 26.3425658,25.772778 C25.9425755,26.1551155 25.4055744,26.3604395 24.8525353,26.3424956 L7.14746712,26.3424956 C6.58103163,26.3624555 6.02967561,26.1576661 5.6136122,25.772778 C5.21763056,25.3964875 4.99546387,24.8728089 5,24.326572 L5,9.11949607 C5.00549744,8.57530343 5.22607329,8.05537464 5.6136122,7.67329 C6.02967561,7.28840198 6.58103163,7.0836126 7.14746712,7.10357246 L8.85661974,7.10357246 L8.85661974,10.7409998 L12.274925,10.7409998 L12.274925,7.10357246 L19.681253,7.10357246 L19.681253,10.7409998 L23.0995583,10.7409998 L23.0995583,7.10357246 L24.8525353,7.10357246 Z M11.8805052,18.0158546 L11.8805052,13.7648853 L6.84069613,13.7648853 L6.84069613,18.0158546 L11.8805052,18.0158546 Z M11.8805052,23.8006789 L11.8805052,19.5497095 L6.84069613,19.5497095 L6.84069613,23.8006789 L11.8805052,23.8006789 Z M11.6175586,10.2589312 L9.51398614,10.2589312 L9.51398614,5 L11.6175586,5 L11.6175586,10.2589312 L11.6175586,10.2589312 Z M18.4979935,18.0158546 L18.4979935,13.7648853 L13.5020089,13.7648853 L13.5020089,18.0158546 L18.4979935,18.0158546 Z M18.4979935,23.8006789 L18.4979935,19.5497095 L13.5020089,19.5497095 L13.5020089,23.8006789 L18.4979935,23.8006789 Z M25.1154819,18.0158546 L25.1154819,13.7648853 L20.1194973,13.7648853 L20.1194973,18.0158546 L25.1154819,18.0158546 Z M25.1154819,23.8006789 L25.1154819,19.5497095 L20.1194973,19.5497095 L20.1194973,23.8006789 L25.1154819,23.8006789 Z M22.4860163,10.2589312 L20.3386194,10.2589312 L20.3386194,5 L22.4860163,5 L22.4860163,10.2589312 Z" id="icon-calendar"></path>
    </g>
</svg>