<?xml version="1.0" encoding="UTF-8"?>
<svg width="32px" height="32px" viewBox="0 0 32 32" version="1.1" xmlns="http://www.w3.org/2000/svg" xmlns:xlink="http://www.w3.org/1999/xlink">
    <!-- Generator: Sketch 61.2 (89653) - https://sketch.com -->
    <title>Style/Icons/minutes_read</title>
    <desc>Created with Sketch.</desc>
    <g id="Style/Icons/minutes_read" stroke="none" stroke-width="1" fill-rule="evenodd">
        <path d="M15.9786871,4.00081034 C17.5900532,3.98168864 19.1874752,4.30117303 20.6675356,4.93858005 C22.0797507,5.54848602 23.3661985,6.41575419 24.4612403,7.4961338 C25.5604955,8.60085065 26.4425085,9.9021813 27.0614199,11.3324644 C27.6739192,12.8052598 27.9924875,14.3836207 27.9991897,15.9786871 C28.0183114,17.5900532 27.698827,19.1874752 27.0614199,20.6675356 C26.451743,22.0903161 25.5682586,23.3793342 24.4612403,24.4612403 C23.3793342,25.5682586 22.0903161,26.451743 20.6675356,27.0614199 C19.1874752,27.698827 17.5900532,28.0183114 15.9786871,27.9991897 C14.381536,28.013611 12.7989881,27.6941977 11.3324644,27.0614199 C9.9021813,26.4425085 8.60085065,25.5604955 7.4961338,24.4612403 C6.41575419,23.3661985 5.54848602,22.0797507 4.93858005,20.6675356 C4.30117303,19.1874752 3.98168864,17.5900532 4.00081034,15.9786871 C3.98638898,14.381536 4.30580232,12.7989881 4.93858005,11.3324644 C5.55811814,9.91282985 6.42398577,8.6140284 7.4961338,7.4961338 C8.6140284,6.42398577 9.91282985,5.55811814 11.3324644,4.93858005 C12.7989881,4.30580232 14.381536,3.98638898 15.9786871,4.00081034 Z M15.9786871,25.5695136 C17.3173552,25.5935904 18.6483307,25.3621164 19.9002695,24.8874993 C22.1985147,24.0134363 24.0134363,22.1985147 24.8874993,19.9002695 C25.3621164,18.6483307 25.5935904,17.3173552 25.5695136,15.9786871 C25.5902489,14.6541483 25.3587957,13.3377582 24.8874993,12.0997305 C24.4644994,10.9589566 23.7949853,9.92557629 22.9267081,9.07329194 C22.0598746,8.22300402 21.0305711,7.55613129 19.9002695,7.11250073 C18.6511755,6.62333268 17.3201083,6.3773746 15.9786871,6.38786051 C14.6534563,6.40257215 13.3408929,6.64777631 12.0997305,7.11250073 C10.9672484,7.55187523 9.93713217,8.21927448 9.07329194,9.07329194 C8.22300402,9.94012538 7.55613129,10.9694289 7.11250073,12.0997305 C6.62765128,13.3352059 6.38175128,14.6514941 6.38774941,15.9786871 C6.39848862,17.3181734 6.64374393,18.6454374 7.11250073,19.9002695 C7.57246642,21.0221037 8.237408,22.0484265 9.07329194,22.9267081 C9.94012538,23.776996 10.9694289,24.4438687 12.0997305,24.8874993 C13.3377582,25.3587957 14.6541483,25.5902489 15.9786871,25.5695136 Z M23.9923555,15.5098022 L15.9786871,15.9786871 L15.9786871,8.00764455 C17.0024928,8.01204616 18.0157554,8.21469867 18.9624998,8.60440709 C19.9111426,8.97505239 20.7794872,9.52500393 21.5200535,10.2241911 C22.2545897,10.8901362 22.8613087,11.6846492 23.3103411,12.5686154 C23.7518477,13.4867011 23.9847521,14.4911013 23.9923555,15.5098022 Z" id="icon-minutes_read"></path>
    </g>
</svg>