<?xml version="1.0" encoding="UTF-8"?>
<svg width="30px" height="30px" viewBox="0 0 30 30" version="1.1" xmlns="http://www.w3.org/2000/svg" xmlns:xlink="http://www.w3.org/1999/xlink">
    <!-- Generator: Sketch 61.2 (89653) - https://sketch.com -->
    <title>linedin</title>
    <desc>Created with Sketch.</desc>
    <g id="Blog" stroke="none" stroke-width="1" fill="none" fill-rule="evenodd">
        <path d="M15,0 C23.2842712,0 30,6.71572875 30,15 C30,23.2842712 23.2842712,30 15,30 C6.71572875,30 0,23.2842712 0,15 C0,6.71572875 6.71572875,0 15,0 Z M11.955685,12.2962177 L9.17533847,12.2962177 L9.17533847,20.6873537 L11.955685,20.6873537 L11.955685,12.2962177 Z M18.5985703,12.0946326 C17.6918714,12.1211319 16.8552074,12.5933086 16.3638703,13.3557999 L16.3638703,13.3557999 L16.289,13.479 L16.2890179,12.2962177 L13.4836232,12.2962177 L13.4868854,12.3612182 C13.5293947,13.3886994 13.487874,20.0264213 13.4839196,20.641661 L13.4836232,20.6873537 L16.2890179,20.6873537 L16.2890179,16.0033465 L16.2842683,15.8322062 C16.2874243,15.6612111 16.3142367,15.4911946 16.3641624,15.3270459 C16.5817099,14.7222562 17.1493315,14.313967 17.7919079,14.3000711 C18.8188828,14.3000711 19.2196535,15.0765643 19.2196535,16.2037318 L19.2196535,16.2037318 L19.2196535,20.6873537 L22,20.6873537 L22,15.8781056 L21.9957304,15.6327267 C21.9106502,13.221827 20.5633664,12.0958324 18.7938346,12.0958324 L18.7938346,12.0958324 Z M10.7284254,8.26086498 L10.5780358,8.26346284 C9.62620548,8.26346284 9,8.88966701 9,9.71625653 C8.99946761,10.1149415 9.16280097,10.4963261 9.45172931,10.7710449 C9.7045416,11.0114238 10.034071,11.1516512 10.3792336,11.169137 L10.3792336,11.169137 L10.5529877,11.1690502 L10.7122832,11.163106 C11.5948063,11.096225 12.1310263,10.4732678 12.1310263,9.71625653 C12.1319825,9.31294703 11.9652452,8.92738805 11.670719,8.6518635 C11.3761927,8.37633896 10.9803861,8.23564717 10.5780358,8.26346284 Z" id="linedin" fill="#0066CC"></path>
    </g>
</svg>