<?xml version="1.0" encoding="UTF-8"?>
<svg width="30px" height="30px" viewBox="0 0 30 30" version="1.1" xmlns="http://www.w3.org/2000/svg" xmlns:xlink="http://www.w3.org/1999/xlink">
    <!-- Generator: Sketch 61.2 (89653) - https://sketch.com -->
    <title>Style/Icons/movie</title>
    <desc>Created with Sketch.</desc>
    <g id="Style/Icons/movie" stroke="none" stroke-width="1" fill="none" fill-rule="evenodd">
        <path d="M28.2143816,6.50812382 C28.2143816,6.50812382 25.0874657,6 15.5112859,6 C6.71683511,6 3.58991927,6.50812382 3.58991927,6.50812382 C3.16636174,9.44616118 2.97034664,12.412523 3.00362255,15.3807475 C2.97828004,18.4396387 3.17422351,21.4963569 3.58991927,24.5269764 C3.58991927,24.5269764 5.9741926,25.3868782 15.9021504,25.3868782 C25.8301082,25.3868782 28.2143816,24.5269764 28.2143816,24.5269764 C28.773834,21.4716822 29.035636,18.3693291 28.9961105,15.2634882 C28.9961105,9.79138546 28.2143816,6.50812382 28.2143816,6.50812382 Z M13.59605,20.9310232 L13.59605,10.4558551 L22.3905008,15.6934391 L13.59605,20.9310232 Z" id="icon-movie" fill="#0066CC"></path>
    </g>
</svg>