<?xml version="1.0" encoding="UTF-8"?>
<svg width="75px" height="57px" viewBox="0 0 75 57" version="1.1" xmlns="http://www.w3.org/2000/svg" xmlns:xlink="http://www.w3.org/1999/xlink">
    <!-- Generator: Sketch 61.2 (89653) - https://sketch.com -->
    <title>Style/1_icons/movie</title>
    <desc>Created with Sketch.</desc>
    <g id="Article" stroke="none" stroke-width="1" fill="none" fill-rule="evenodd">
        <g id="Roche_NewTemplates_Article_Desktop" transform="translate(-923.000000, -3434.000000)" fill="#0066CC" fill-rule="nonzero">
            <g id="Group-5" transform="translate(484.000000, 3208.000000)">
                <g id="Group" transform="translate(362.000000, 154.000000)">
                    <g id="Group-2">
                        <g id="Style/1_icons/movie" transform="translate(77.000000, 63.000000)">
                            <path d="M72.7337929,11.2157418 C72.7337929,11.2157418 63.7138434,9.75 36.0902479,9.75 C10.7216398,9.75 1.7016902,11.2157418 1.7016902,11.2157418 C0.479889627,19.6908496 -0.0855385318,28.2476624 0.0104496579,36.8098487 C-0.0626537287,45.6335732 0.502567823,54.4510295 1.7016902,63.1932011 C1.7016902,63.1932011 8.57940173,65.6736872 37.2177416,65.6736872 C65.8560814,65.6736872 72.7337929,63.1932011 72.7337929,63.1932011 C74.3475981,54.3798525 75.1027961,45.4307569 74.9887803,36.4716006 C74.9887803,20.6866888 72.7337929,11.2157418 72.7337929,11.2157418 Z M30.5655288,52.8202591 L30.5655288,22.6034281 L55.9341369,37.7118436 L30.5655288,52.8202591 Z"></path>
                        </g>
                    </g>
                </g>
            </g>
        </g>
    </g>
</svg>