<?xml version="1.0" encoding="UTF-8"?>
<svg width="32px" height="32px" viewBox="0 0 32 32" version="1.1" xmlns="http://www.w3.org/2000/svg" xmlns:xlink="http://www.w3.org/1999/xlink">
    <!-- Generator: Sketch 61.2 (89653) - https://sketch.com -->
    <title>Style/Icons/quote</title>
    <desc>Created with Sketch.</desc>
    <g id="Style/Icons/quote" stroke="none" stroke-width="1" fill-rule="evenodd">
        <path d="M17.5043732,16.7609329 C17.5043732,11.4431487 22.5072886,8.2244898 27.2653061,7 L28,9.09912536 C24.4314869,10.638484 22.0874636,12.3177843 22.0874636,15.3265306 C22.0874636,18.335277 24.4314869,19.5247813 26.8804665,19.9795918 C27.4052478,20.0495627 27.8250729,20.574344 27.8250729,21.4489796 C27.8250729,23.4081633 25.9358601,24.3527697 24.6413994,24.3527697 C21.4227405,24.3527697 17.5043732,21.5189504 17.5043732,16.7609329 Z M4,16.7609329 C4,11.4431487 9.10787172,8.2244898 13.7609329,7 L14.4956268,9.09912536 C10.8571429,10.638484 8.58309038,12.3177843 8.58309038,15.3265306 C8.58309038,18.335277 10.9271137,19.5247813 13.4110787,19.9795918 C13.8309038,20.0495627 14.3556851,20.574344 14.3556851,21.4489796 C14.3556851,23.4081633 12.4664723,24.3527697 11.1370262,24.3527697 C8.02332362,24.3527697 4,21.5189504 4,16.7609329 Z" id="icon-quote"></path>
    </g>
</svg>