<?xml version="1.0" encoding="utf-8"?>
<!-- Generator: Adobe Illustrator 15.0.0, SVG Export Plug-In . SVG Version: 6.00 Build 0)  -->
<!DOCTYPE svg PUBLIC "-//W3C//DTD SVG 1.1//EN" "http://www.w3.org/Graphics/SVG/1.1/DTD/svg11.dtd">
<svg version="1.1" id="Ebene_1" xmlns="http://www.w3.org/2000/svg" xmlns:xlink="http://www.w3.org/1999/xlink" x="0px" y="0px"
	 width="258.216px" height="283.46px" viewBox="0 0 258.216 283.46" enable-background="new 0 0 258.216 283.46"
	 xml:space="preserve">
<path d="M258.216,234.679l-65.514-65.514c12.829-17.597,20.61-39.05,20.61-62.5C213.313,47.707,165.571,0,106.718,0
	C47.741,0.001,0,47.708,0,106.666c0,58.889,47.741,106.631,106.718,106.631c20.226,0,38.96-5.96,55.084-15.775l66.794,66.776
	L258.216,234.679z M30.969,106.666c0.053-41.817,33.862-75.679,75.749-75.714c41.799,0.036,75.609,33.897,75.645,75.714
	c-0.036,41.747-33.845,75.609-75.645,75.681C64.831,182.275,31.021,148.413,30.969,106.666z"/>
</svg>
