<?xml version="1.0" encoding="UTF-8"?>
<svg width="16px" height="18px" viewBox="0 0 16 18" version="1.1" xmlns="http://www.w3.org/2000/svg" xmlns:xlink="http://www.w3.org/1999/xlink">
    <!-- Generator: Sketch 61.2 (89653) - https://sketch.com -->
    <title>Share</title>
    <desc>Created with Sketch.</desc>
    <g id="Blog" stroke="none" stroke-width="1" fill="none" fill-rule="evenodd">
        <g id="SSF_Desktop" transform="translate(-610.000000, -62.000000)" fill="#0066CC" fill-rule="nonzero">
            <g id="Style/1_icons/share" transform="translate(609.000000, 62.000000)">
                <path d="M12.9774194,11.6129032 C12.0401242,11.6083958 11.1492804,12.0205772 10.5459678,12.7379032 L7.642742,10.7782258 C8.26662516,9.85364723 8.36292295,8.6705601 7.89677426,7.65725803 L10.9814517,5.55241931 C11.9166125,6.39747839 13.2613367,6.61345419 14.4140882,6.10373414 C15.5668397,5.59401409 16.311958,4.45395824 16.3161291,3.19354833 C16.3161291,1.42980028 14.8863288,0 13.1225807,0 C11.3588327,0 9.92903237,1.42980028 9.92903234,3.19354833 C9.92817688,3.73907496 10.065512,4.27593031 10.3282259,4.75403221 L7.3161291,6.78629028 C6.69971675,6.16872949 5.86603559,5.81702025 4.99354845,5.80645157 C3.85260348,5.80645155 2.79832685,6.41513843 2.22785437,7.40322575 C1.65738188,8.39131307 1.65738188,9.60868686 2.22785437,10.5967742 C2.79832685,11.5848615 3.85260348,12.1935484 4.99354845,12.1935484 C5.68824487,12.1883266 6.3627435,11.9592516 6.91693555,11.5403226 L10.001613,13.6451613 C9.85660288,14.0151075 9.78272892,14.4091019 9.78387105,14.8064516 C9.78387105,16.5701997 11.2136714,18 12.9774194,18 C14.7411675,18 16.1709678,16.5701997 16.1709678,14.8064516 C16.1709678,13.0427035 14.7411675,11.6129032 12.9774194,11.6129032 L12.9774194,11.6129032 Z"></path>
            </g>
        </g>
    </g>
</svg>