<?xml version="1.0" encoding="UTF-8"?>
<svg width="30px" height="30px" viewBox="0 0 30 30" version="1.1" xmlns="http://www.w3.org/2000/svg" xmlns:xlink="http://www.w3.org/1999/xlink">
    <!-- Generator: Sketch 61.2 (89653) - https://sketch.com -->
    <title>twitter</title>
    <desc>Created with Sketch.</desc>
    <g id="Blog" stroke="none" stroke-width="1" fill="none" fill-rule="evenodd">
        <path d="M15,0 C23.2842712,0 30,6.71572875 30,15 C30,23.2842712 23.2842712,30 15,30 C6.71572875,30 0,23.2842712 0,15 C0,6.71572875 6.71572875,0 15,0 Z M17.7081967,9.26220314 C16.943361,9.25617619 16.2077472,9.55572602 15.6647589,10.0944049 C15.1217707,10.6330837 14.816369,11.3662873 14.8163934,12.1311475 C14.8112744,12.3564833 14.8422677,12.5811853 14.9081967,12.7967213 C12.5904087,12.6815616 10.4301685,11.5889304 8.96393442,9.79016393 C8.72200301,10.2336278 8.59571109,10.7309022 8.59672131,11.2360656 C8.59741372,12.1913504 9.06983473,13.0846555 9.85901639,13.6229508 C9.4066486,13.6098556 8.96477457,13.4836059 8.57377049,13.2557377 L8.57377049,13.3016393 C8.57689345,14.666277 9.53357967,15.8430011 10.8688525,16.1245902 C10.621658,16.1890452 10.3669105,16.2199236 10.1114754,16.2163934 L9.56065573,16.1704918 C9.94065523,17.3389403 11.0175231,18.1396882 12.2459016,18.1672131 C11.2303692,18.9606873 9.97727453,19.3891648 8.68852458,19.3836066 L7.99999999,19.3836066 C9.31639548,20.2231185 10.8452511,20.6690347 12.4065574,20.6688525 C17.6852459,20.6688525 20.5770492,16.2852459 20.5770492,12.4983607 L20.5770492,12.1081967 C21.1359044,11.6990475 21.617695,11.1939444 22,10.6163934 C21.4753465,10.8471918 20.9177607,10.9943325 20.347541,11.052459 C20.9511493,10.7005704 21.4013888,10.1357245 21.6098361,9.46885245 C21.0512441,9.80925479 20.4377455,10.0499948 19.7967213,10.1803279 C19.2624288,9.59171751 18.5031256,9.25795787 17.7081967,9.26220314 Z" id="twitter" fill="#0066CC"></path>
    </g>
</svg>