<?xml version="1.0" encoding="UTF-8"?>
<svg width="30px" height="30px" viewBox="0 0 30 30" version="1.1" xmlns="http://www.w3.org/2000/svg" xmlns:xlink="http://www.w3.org/1999/xlink">
    <!-- Generator: Sketch 61.2 (89653) - https://sketch.com -->
    <title>xing</title>
    <desc>Created with Sketch.</desc>
    <g id="Blog" stroke="none" stroke-width="1" fill="none" fill-rule="evenodd">
        <path d="M15,0 C23.2842712,0 30,6.71572875 30,15 C30,23.2842712 23.2842712,30 15,30 C6.71572875,30 0,23.2842712 0,15 C0,6.71572875 6.71572875,0 15,0 Z M18.5935379,9 C18.1018024,9.02892562 17.9282486,9.5785124 17.7257693,9.95454545 C16.3662652,12.4132231 14.8332073,15.0165289 13.5315544,17.3884298 L13.5315544,17.3884298 L15.8745296,21.6404959 C16.0480833,21.9876033 16.3662652,22.8842975 16.7422982,23 L16.7422982,23 L19.2588272,22.8553719 C19.345604,22.6818182 19.1431247,22.3636364 19.0274222,22.161157 C18.130728,20.5413223 17.2629594,18.9504132 16.4241164,17.3595041 C17.7257693,14.9876033 19.1141991,12.6157025 20.4447776,10.214876 C20.56048,9.95454545 21.0522156,9.40495868 20.8786619,9.1446281 L20.8786619,9.1446281 Z M10.06048,11.7768595 C9.94477756,11.8057851 9.85800071,11.5743802 9.80014947,11.9214876 C9.74229823,12.268595 9.97370318,12.4710744 10.06048,12.6446281 L10.06048,12.6446281 L10.8414718,13.946281 C10.9905334,14.1489774 11.107599,14.3733531 11.1885792,14.6115702 C11.1596536,14.6983471 10.9571743,14.9586777 10.899323,15.0743802 L10.899323,15.0743802 L9.22163707,18.0826446 C9.13486021,18.2561983 8.93238087,18.4297521 8.99023211,18.661157 C9.04767904,18.754077 9.14269539,18.8174213 9.25056269,18.8347107 L9.25056269,18.8347107 L11.3621329,18.8347107 C11.7960172,18.7768595 12.0274222,18.1694215 12.2299015,17.822314 L12.2299015,17.822314 L14.0522156,14.5826446 C13.7051081,13.946281 13.0108933,12.7603306 12.8373395,12.4710744 C12.6637858,12.1818182 12.5191577,11.7768595 12.1431247,11.7768595 L12.1431247,11.7768595 Z" id="xing" fill="#0066CC"></path>
    </g>
</svg>